<svg xmlns="http://www.w3.org/2000/svg" viewBox="0 0 69.42 66.1"><defs><style>.cls-1{fill:#5bc67a;}.cls-2{fill:none;stroke:#5bc67a;stroke-linecap:round;stroke-linejoin:round;stroke-width:3px;}</style></defs><title>2019 - Documento</title><g id="Camada_2" data-name="Camada 2"><g id="Capa_1" data-name="Capa 1"><path class="cls-1" d="M0,51.9a1.55,1.55,0,0,1,1.49-.71c2.26,0,4.52,0,6.78,0h.79c0-.29,0-.53,0-.77q.13-19.05.26-38.09c0-1.46.32-1.77,1.81-1.77q13.25,0,26.5,0a.93.93,0,0,0,1-.69A16,16,0,1,1,56.17,31.71c-1.15.19-2.32.23-3.59.36v.71q0,12.17,0,24.33a8.77,8.77,0,0,1-7.22,8.81,15,15,0,0,1-2.77.17H9A8.87,8.87,0,0,1,.13,58.71c0-.15-.09-.29-.13-.44Zm11.36-.71H35.78c1,0,1.33.36,1.34,1.36,0,1.47,0,2.94,0,4.4a8.67,8.67,0,0,0,.09,1.35,6.62,6.62,0,0,0,7.11,5.51,6.55,6.55,0,0,0,6-6.62c0-8.31,0-16.62,0-24.94,0-.49-.17-.62-.62-.74a15.55,15.55,0,0,1-9.31-6.42,1,1,0,0,0-1-.46c-3.55,0-7.09,0-10.64,0-.2,0-.41,0-.61,0a1.13,1.13,0,0,1,0-2.25c.2,0,.4,0,.61,0h10a16.43,16.43,0,0,1-1.06-9.5H11.62C11.53,25.63,11.44,38.36,11.36,51.19ZM67.14,16a13.71,13.71,0,1,0-13.7,13.7A13.69,13.69,0,0,0,67.14,16ZM2.27,53.46c0,1.36,0,2.69,0,4a6.52,6.52,0,0,0,6.6,6.35q14.16,0,28.32,0c.16,0,.32,0,.53-.06a9.05,9.05,0,0,1-2.88-7.12V53.46ZM39.11,44.3c1.35,0,2.71,0,4.06,0a1.1,1.1,0,0,0,1.15-1.09,1.12,1.12,0,0,0-1.1-1.14c-.2,0-.41,0-.61,0H32.51c-1.37,0-2.75,0-4.13,0-.85,0-1.34.51-1.27,1.24s.52,1,1.29,1H39.11ZM28.33,32.23a1.09,1.09,0,0,0-1.19,1.39,1.12,1.12,0,0,0,1.24.83H43.15a1.12,1.12,0,0,0,1.17-1.14,1.09,1.09,0,0,0-1.21-1.08H28.33Zm-3.75-8.64A3.55,3.55,0,0,1,21,27.06a3.49,3.49,0,1,1,.06-7A3.54,3.54,0,0,1,24.58,23.59ZM21,24.79a1.23,1.23,0,1,0-1.33-1.23A1.27,1.27,0,0,0,21,24.79Zm3.59,8.54A3.6,3.6,0,1,1,21,29.85,3.55,3.55,0,0,1,24.58,33.33ZM21,34.56a1.3,1.3,0,0,0,1.37-1.2A1.32,1.32,0,0,0,21,32.11a1.29,1.29,0,0,0-1.35,1.21A1.27,1.27,0,0,0,21,34.56Zm3.6,8.58A3.54,3.54,0,0,1,21,46.6a3.48,3.48,0,1,1,0-7A3.51,3.51,0,0,1,24.58,43.14ZM21,44.33a1.3,1.3,0,0,0,1.35-1.23A1.33,1.33,0,0,0,21,41.88a1.23,1.23,0,1,0,0,2.45Z"/><polyline class="cls-2" points="48.18 18.5 50.5 22.32 59.27 10.4"/></g></g></svg>