<svg xmlns="http://www.w3.org/2000/svg" viewBox="0 0 115.36 115.41"><defs><style>.cls-1{fill:#96d733;}</style></defs><title>e-contábil</title><g id="Camada_2" data-name="Camada 2"><g id="Capa_1" data-name="Capa 1"><path class="cls-1" d="M49.13,0c2.4.76,4.14,2.18,4.61,4.78a6.07,6.07,0,0,1,.09,1.9c-.1.9.27,1,1.06,1,7.25,0,14.5,0,21.75,0a2.38,2.38,0,0,1,1.85.78q11.33,11.39,22.7,22.71a2.26,2.26,0,0,1,.73,1.76q0,13.76,0,27.49c0,1-.23,1.25-1.16,1.15s-2,.27-2.51-.17-.19-1.68-.19-2.57c0-7.7,0-15.4,0-23.1,0-.86-.2-1.11-1.09-1.1-6.95,0-13.9,0-20.85,0-1,0-1.15-.28-1.15-1.18,0-6.95,0-13.9,0-20.85,0-.86-.18-1.13-1.09-1.12q-9.52.06-19,0c-1,0-1.06.33-1.06,1.14q0,23.09,0,46.19c0,4.27-2.25,6.54-6.51,6.54-9.61,0-19.23,0-28.84,0-.87,0-1.2.12-1.2,1.12q.06,22,0,44.05c0,.84.2,1,1,1q39.33,0,78.64,0c.89,0,1.1-.22,1.1-1.1,0-7,0-14,0-20.95,0-.84.19-1.15,1-1.06s2.09-.29,2.61.17.19,1.76.19,2.69c0,7.66,0,15.32,0,23,0,.84-.16,1.12-1.07,1.12q-43.15,0-86.3,0c-.9,0-1.09-.24-1.09-1.1,0-15.89,0-31.77,0-47.66,0-1-.2-1.35-1.26-1.3-2,.1-4.06,0-6.09,0A5.74,5.74,0,0,1,.31,61.49c-.07-.16-.07-.39-.31-.42V4.51A6.75,6.75,0,0,1,4.73,0ZM50,32.67V6.54c0-2.1-.59-2.7-2.65-2.7H6.57c-2.16,0-2.73.57-2.73,2.73V58.84c0,2.11.57,2.69,2.65,2.69H47.27c2.17,0,2.74-.57,2.74-2.72Zm45-1.92L78.86,14.64v.52c0,4.87,0,9.74,0,14.62,0,.9.3,1,1.09,1,4.76,0,9.52,0,14.28,0C94.49,30.77,94.8,30.88,95,30.75Z"/><path class="cls-1" d="M109.67,59.71a5.58,5.58,0,0,1,5.14,3.38,5.47,5.47,0,0,1-1,6.18c-1,1.09-2,2.09-3.08,3.12Q96,87.14,81.31,101.86a6.86,6.86,0,0,1-2,1.4q-4.45,2-8.87,4.08a2,2,0,0,1-2.78-2.76q2.14-4.64,4.27-9.28a4.69,4.69,0,0,1,1-1.36q16.17-16.15,32.33-32.32A6.25,6.25,0,0,1,109.67,59.71Zm-36.5,42.2c2.32-1.35,4.63-1.91,6.4-3.71C86.59,91,93.73,84,100.81,76.9c.64-.64,1.8-1.35,1.74-1.93-.07-.73-1.19-1.32-1.77-2s-.89-.56-1.46,0c-6.59,6.63-13.16,13.3-19.86,19.82-2.61,2.55-4.94,5.2-6.15,8.69ZM111.49,65.4a2,2,0,0,0-1.43-1.81,2.93,2.93,0,0,0-3,1.63c-.35.72.55.89.86,1.31a9,9,0,0,0,1.19,1.2c.14.15.25.38.54.28A4.64,4.64,0,0,0,111.49,65.4Zm-8.73,4.19c.77.73,1.55,1.42,2.27,2.18.4.42.6.29,1,0,.66-.57,1-1.06,0-1.66a5.35,5.35,0,0,1-.72-.71C104.08,68.11,104.08,68.11,102.76,69.59Z"/><path class="cls-1" d="M63.47,88.56A19.23,19.23,0,1,1,44.41,69.21,19.28,19.28,0,0,1,63.47,88.56Zm-3.86-.15a15.38,15.38,0,1,0-15.34,15.45A15.42,15.42,0,0,0,59.61,88.41Z"/><path class="cls-1" d="M80.67,55.75c3.53,0,7,0,10.58,0,.93,0,1.11.29,1.1,1.15,0,2.76,0,2.76-2.72,2.76-6.41,0-12.83,0-19.24,0-.9,0-1.23-.15-1.21-1.14.06-2.76,0-2.76,2.82-2.76Z"/><path class="cls-1" d="M80.69,67.33c-3.49,0-7,0-10.47,0-.73,0-1.11-.11-1-1s-.29-2.15.18-2.72,1.76-.18,2.69-.18c6.42,0,12.83,0,19.24,0,.85,0,1.06.23,1,1.06,0,2.82,0,2.82-2.78,2.82Z"/><path class="cls-1" d="M80.67,51.91c-3.49,0-7,0-10.46,0-.74,0-1-.13-1-1,0-2.92,0-2.92,2.89-2.92,6.37,0,12.75,0,19.12,0,.84,0,1.17.14,1.15,1.08,0,2.79,0,2.79-2.79,2.79Z"/><path class="cls-1" d="M80.67,44.21c-3.49,0-7,0-10.46,0-.74,0-1.11-.12-1-1s-.38-2.12.18-2.71,1.77-.18,2.7-.19c6.33,0,12.67,0,19,0,.93,0,1.3.13,1.26,1.2-.08,2.67,0,2.67-2.68,2.67Z"/><path class="cls-1" d="M63.52,55.75c1.86,0,1.86,0,1.86,1.87s0,2-2,2c-1.81,0-1.81,0-1.81-1.81v-.11C61.52,55.75,61.52,55.75,63.52,55.75Z"/><path class="cls-1" d="M65.37,65.43c0,1.9,0,1.9-2,1.9s-1.89,0-1.89-1.86,0-2,2-2S65.37,63.47,65.37,65.43Z"/><path class="cls-1" d="M65.37,50.07c0,1.84,0,1.84-1.89,1.84s-1.95,0-1.95-2,0-1.86,1.89-1.86S65.37,48.05,65.37,50.07Z"/><path class="cls-1" d="M65.37,42.32c0,1.89,0,1.89-1.94,1.89s-1.9,0-1.9-1.94,0-1.91,1.95-1.91S65.37,40.36,65.37,42.32Z"/><path class="cls-1" d="M26.82,19.21c-6.65,0-13.3,0-19.94,0-.87,0-1.13-.19-1.12-1.09.06-3.79,0-7.59,0-11.38,0-.79.19-1,1-1q20.17,0,40.33,0c.78,0,1,.18,1,1q-.07,5.75,0,11.49c0,.78-.19,1-1,1C40.33,19.2,33.57,19.21,26.82,19.21Zm.11-3.85c5.41,0,10.82,0,16.22,0,.92,0,1.12-.28,1.08-1.13-.07-1.27-.06-2.55,0-3.82,0-.64-.17-.82-.81-.82q-16.5,0-33,0c-.66,0-.8.23-.78.84,0,1.31.06,2.63,0,3.94,0,.79.19,1,1,1C16.05,15.34,21.49,15.36,26.93,15.36Z"/><path class="cls-1" d="M34.63,53.79c0-.6,0-1.2,0-1.8a3.81,3.81,0,0,1,3.78-3.92c1.31-.06,2.63-.06,3.94,0A3.84,3.84,0,0,1,46.16,52c0,1.24,0,2.48,0,3.71a3.82,3.82,0,0,1-3.8,3.91c-1.2.06-2.4,0-3.6,0a3.84,3.84,0,0,1-4.13-4.14C34.62,54.92,34.63,54.35,34.63,53.79Zm3.85,0c0,2,0,2,1.84,2,2,0,2,0,2-1.95s0-1.91-2-1.91S38.48,51.9,38.48,53.76Z"/><path class="cls-1" d="M32.68,53.89c0,.56,0,1.12,0,1.68a3.81,3.81,0,0,1-3.78,4q-2,.09-3.93,0a3.78,3.78,0,0,1-3.8-4c0-1.2,0-2.4,0-3.6a3.8,3.8,0,0,1,3.77-3.93c1.31-.06,2.63-.06,3.94,0a3.83,3.83,0,0,1,3.8,4C32.69,52.69,32.68,53.29,32.68,53.89Zm-3.83,0c0-2,0-2-2-2S25,51.91,25,53.76s0,2,1.95,2S28.85,55.76,28.85,53.92Z"/><path class="cls-1" d="M19.19,53.84c0,.75,0,1.5,0,2.25A3.63,3.63,0,0,1,16,59.52a21.13,21.13,0,0,1-5.15,0,3.73,3.73,0,0,1-3.19-3.77c0-1.23,0-2.47,0-3.71a3.86,3.86,0,0,1,3.87-4c1.19,0,2.39,0,3.59,0a3.86,3.86,0,0,1,4.07,4.1c0,.56,0,1.12,0,1.68Zm-7.67-.08c0,2,0,2,2,2s1.89,0,1.89-1.85c0-2,0-2-2-2S11.52,51.9,11.52,53.76Z"/><path class="cls-1" d="M40.38,34.64c.68,0,1.35,0,2,0a3.75,3.75,0,0,1,3.73,3.62,38.49,38.49,0,0,1,0,4.16,3.83,3.83,0,0,1-3.79,3.72c-1.31.06-2.63.06-3.94,0a3.79,3.79,0,0,1-3.78-3.83c0-1.2,0-2.4,0-3.6a3.8,3.8,0,0,1,4.06-4.1c.56,0,1.13,0,1.69,0Zm1.95,5.72c0-1.88,0-1.88-1.87-1.88s-2,0-2,2,0,1.89,1.85,1.89S42.33,42.33,42.33,40.36Z"/><path class="cls-1" d="M19.21,40.36c0,.64,0,1.27,0,1.91a3.81,3.81,0,0,1-3.83,3.89c-1.27,0-2.55,0-3.83,0a3.85,3.85,0,0,1-3.85-3.89c0-1.27,0-2.55,0-3.83a3.77,3.77,0,0,1,3.8-3.79c1.27,0,2.55,0,3.83,0a3.75,3.75,0,0,1,3.89,3.91C19.22,39.16,19.21,39.76,19.21,40.36Zm-3.84,0c0-1.92,0-1.92-1.91-1.92s-1.94,0-1.94,1.91,0,1.94,1.92,1.94S15.37,42.33,15.37,40.4Z"/><path class="cls-1" d="M13.45,32.68H11.53A3.82,3.82,0,0,1,7.7,29c-.07-1.39-.06-2.78,0-4.17a3.77,3.77,0,0,1,3.8-3.67c1.31,0,2.63,0,3.94,0a3.72,3.72,0,0,1,3.75,3.7c0,1.31,0,2.63,0,3.94a3.78,3.78,0,0,1-3.95,3.86Zm1.92-5.84c0-1.83,0-1.83-1.79-1.83-2.06,0-2.06,0-2.06,2,0,1.83,0,1.83,1.79,1.83C15.37,28.85,15.37,28.85,15.37,26.84Z"/><path class="cls-1" d="M40.42,21.17c.6,0,1.2,0,1.8,0a3.83,3.83,0,0,1,3.94,3.9q.06,1.86,0,3.72a3.83,3.83,0,0,1-3.95,3.89c-1.28,0-2.56,0-3.83,0a3.72,3.72,0,0,1-3.72-3.61c-.06-1.35,0-2.71,0-4.06a3.76,3.76,0,0,1,4-3.83C39.22,21.16,39.82,21.17,40.42,21.17Zm-1.94,5.74c0,1.94,0,1.94,1.9,1.94s1.95,0,1.95-1.91,0-1.93-1.92-1.93S38.48,25,38.48,26.91Z"/><path class="cls-1" d="M27,34.66c.75,0,1.5,0,2.25,0a3.7,3.7,0,0,1,3.45,3.53c.06,1.46.07,2.93,0,4.39A3.79,3.79,0,0,1,29,46.15c-1.35.06-2.71.06-4.06,0a3.81,3.81,0,0,1-3.74-3.86c0-1.28,0-2.55,0-3.83a3.77,3.77,0,0,1,3.76-3.82c.68,0,1.35,0,2,0Zm0,3.82c-1.93,0-1.93,0-1.93,1.9s0,1.95,1.91,1.95,1.93,0,1.93-1.92S28.85,38.48,26.94,38.48Z"/><path class="cls-1" d="M21.17,26.84c0-.64,0-1.27,0-1.91A3.79,3.79,0,0,1,25,21.17c1.31,0,2.62,0,3.93,0a3.76,3.76,0,0,1,3.76,3.69c0,1.38,0,2.77,0,4.15A3.77,3.77,0,0,1,29,32.67q-2,.06-4.05,0a3.79,3.79,0,0,1-3.76-3.81C21.16,28.19,21.17,27.52,21.17,26.84Zm7.67.09C28.84,25,28.84,25,27,25h-.11C25,25,25,25,25,26.87s0,2,1.94,2S28.84,28.84,28.84,26.93Z"/><path class="cls-1" d="M38.42,92.32c1,0,1.79-.06,2.56.83,1.29,1.5,5,1.4,6.5.1a1.09,1.09,0,0,0-.08-1.94,5.42,5.42,0,0,0-3.3-.94A9,9,0,0,1,39.19,89c-3.59-2.32-3.55-6.55.1-8.8a4.53,4.53,0,0,1,1.51-.71c1.18-.21,1.79-.72,1.53-2-.08-.41.12-.62.57-.59s1,0,1.46,0c1.65,0,1.68,0,1.8,1.62,0,.43.18.55.56.65a8.19,8.19,0,0,1,2.86,1.28,5.62,5.62,0,0,1,2,2.39c.65,1.53.49,1.77-1.16,1.77-.38,0-.75,0-1.13,0a1.68,1.68,0,0,1-1.59-.68c-1.3-1.63-5.32-1.63-6.84-.14a1,1,0,0,0,.09,1.71,5,5,0,0,0,3.26,1,9.52,9.52,0,0,1,4.14.89c2.06,1,3.55,2.45,3.55,4.88s-1.52,3.88-3.56,4.89a3.37,3.37,0,0,1-1,.39c-.93.1-1.29.57-1.11,1.48s-.23,1.07-1,1a6.76,6.76,0,0,0-.9,0c-1.68,0-1.7,0-1.93-1.69-.06-.39-.22-.48-.55-.56a8.25,8.25,0,0,1-2.19-.86,6.19,6.19,0,0,1-2.31-2.09c-.44-.71-1-1.58-.65-2.29C36.89,92,37.88,92.43,38.42,92.32Z"/></g></g></svg>