<svg xmlns="http://www.w3.org/2000/svg" viewBox="0 0 179.94 179.54"><defs><style>.cls-1{fill:#96d733;}.cls-2{fill:none;stroke:#96d733;stroke-miterlimit:10;stroke-width:5px;}</style></defs><title>e-OAB</title><g id="Camada_2" data-name="Camada 2"><g id="Capa_1" data-name="Capa 1"><path class="cls-1" d="M172.34,164.56c1.23.83,2.68,1.34,3.55,2.68,2,3.17,1.21,6.76-2.06,8.87-.39.25-1,.27-1.08.85l-3.78,0H65c-4,0-6.48-1.86-7.1-5.31-.3-1.71.38-3.19,1.24-4.9-2.62,0-5.07-.13-7.5,0a4.91,4.91,0,0,1-5.17-2.88A15.34,15.34,0,0,1,44.68,160a2.81,2.81,0,0,1,.33-.62c2.66-2.92,5.31-5.84,8-8.72.51-.56.94-1.28,1.8-1.41a36.79,36.79,0,0,0,4.58,14.6c.74,1.22,1.36,2,2.89,1.07a5.8,5.8,0,0,1,3-.36q48.69,0,97.38,0c.78,0,1.57,0,2.36,0Z"/><path class="cls-1" d="M173.07,113.68c0,.69.68.75,1.11,1a6.18,6.18,0,0,1,.12,10.3c-.46.32-1.14.48-1.22,1.2l-1.8.05h-6.6l-85.88,0a5.19,5.19,0,0,1-2.5-.23,1.8,1.8,0,0,1,.54-1.1c2.67-3.08,5.4-6.11,8.28-9a3.68,3.68,0,0,0,1.39-2.23h31.54c6,0,12.09,0,18.13-.07l3.77,0,31.68.06C172.11,113.64,172.59,113.66,173.07,113.68Z"/><path class="cls-1" d="M140,113.58l-3.77,0-.78-.42c-5.55-2.83-6.45-8.78-2.33-12.43.39-.34.91-.65.78-1.32.84,0,1.21-.75,1.71-1.24q14.53-14.5,29.05-29c.42-.42.79-.91,1.18-1.36.79-.27,1.19-1,1.77-1.51a6.9,6.9,0,0,1,9.91.33c3.07,3,3.3,7,.53,10-.89,1-1.86,1.9-2.8,2.84q-15.52,15.52-31,31.05A12.92,12.92,0,0,1,140,113.58Z"/><path class="cls-1" d="M80.34,46c-.75.21-1.12.89-1.64,1.38-3.14,2.88-7.1,2.76-10.19-.34s-3.18-7.1-.15-10.15C76,29.11,83.74,21.43,91.44,13.73,95.38,9.8,99.28,5.82,103.27,2a6.75,6.75,0,0,1,8.51-.8c3.15,2.07,4.49,5.39,3.45,8.58a8.16,8.16,0,0,1-1.94,3c-.43.45-1.17.74-1,1.59-.84,0-1.22.73-1.71,1.23q-14.53,14.5-29,29C81.11,45,80.74,45.5,80.34,46Z"/><path class="cls-2" d="M89.84,71.83a3.76,3.76,0,0,1-3.51-2.65c-.62-1.63-1.33-3.22-2-4.85a5.25,5.25,0,0,1,1.28-6.11c1.15-1.14,2.25-2.33,3.37-3.5a9.32,9.32,0,0,0,.86-.66l30-30c.38-.38.86-.71.85-1.33,1.51-.63,2.38-2,3.46-3.08a5.48,5.48,0,0,1,6.73-1.35,42,42,0,0,0,4,1.62,4.24,4.24,0,0,1,3.17,3.76,6.85,6.85,0,0,1-2,3.16Q114.47,48.42,92.89,70A4.91,4.91,0,0,1,89.84,71.83Z"/><path class="cls-2" d="M156.31,41.91a3.77,3.77,0,0,1,3.49,2.67c.59,1.57,1.28,3.11,1.91,4.67a5.37,5.37,0,0,1-1.25,6.29c-1.15,1.14-2.24,2.34-3.35,3.51a4.87,4.87,0,0,0-.73.53L126.14,89.81c-.34.34-.74.65-.72,1.2-1.6.62-2.45,2.09-3.6,3.2a5.39,5.39,0,0,1-6.45,1.26,40.84,40.84,0,0,0-4-1.62A4.33,4.33,0,0,1,108,90a7.37,7.37,0,0,1,1.78-2.87q21.82-21.76,43.6-43.58A4.66,4.66,0,0,1,156.31,41.91Z"/><path class="cls-2" d="M156.31,41.91a4.66,4.66,0,0,0-2.93,1.65q-21.78,21.81-43.6,43.58A7.37,7.37,0,0,0,108,90l-2.5-2.22-6.9-7.25c.88-.11,1.29-.86,1.83-1.4q22.5-22.45,45-44.94c.54-.54,1-1.28,1.87-1.33Z"/><path class="cls-2" d="M147.27,32.87c-.91.05-1.33.79-1.87,1.33q-22.49,22.47-45,44.94c-.54.54-1,1.29-1.83,1.4-2.33-1.92-4.13-4.39-6.55-6.21l-2.21-2.5a4.91,4.91,0,0,0,3-1.8q21.58-21.6,43.19-43.18a6.85,6.85,0,0,0,2-3.16Z"/><path class="cls-2" d="M155.55,41.8c-.9.05-1.32.8-1.86,1.34l-45,44.94c-.54.54-1,1.29-1.84,1.4-2.32-1.92-4.13-4.39-6.54-6.21l-2.22-2.5a5,5,0,0,0,3-1.8q21.58-21.6,43.2-43.18a6.86,6.86,0,0,0,2-3.17Z"/><path class="cls-2" d="M68.76,108.11c-1.83,2.25-4,4.21-5.91,6.36-5.21,5.8-10.62,11.4-15.93,17.11q-8.81,9.48-17.57,19c-4.34,4.7-8.79,9.31-13,14.15-2,2.36-4.17,4.35-7.29,5a12.68,12.68,0,0,1-5.55-.14C2,165,3.28,161.16,6.72,158Q19.35,146.23,32,134.57L65,104.2A31.67,31.67,0,0,1,68.76,108.11Z"/><path class="cls-2" d="M120.71,22.74c0,.62-.47,1-.85,1.33q-15,15-30,30a9.32,9.32,0,0,1-.86.66L80.34,46c.4-.45.77-.93,1.19-1.35q14.5-14.52,29-29c.49-.5.87-1.21,1.71-1.23A107.76,107.76,0,0,1,120.71,22.74Z"/><path class="cls-2" d="M125.42,91c0-.55.38-.86.72-1.2l30.24-30.23a4.87,4.87,0,0,1,.73-.53l8.68,8.74c-.39.45-.76.94-1.18,1.36q-14.52,14.53-29.05,29c-.5.49-.87,1.21-1.71,1.24A109.79,109.79,0,0,1,125.42,91Z"/><path class="cls-2" d="M92.05,74.33c2.42,1.82,4.22,4.29,6.55,6.21l6.9,7.25L85.27,104.85a1.37,1.37,0,0,1-.86-.58,41.63,41.63,0,0,0-5.15-5.22c0-.77.61-1.14,1.07-1.6,3-3,6-6,8.93-9A3.87,3.87,0,0,0,90,83.42a8.11,8.11,0,0,0-2.84-3Z"/><path class="cls-2" d="M68.76,108.11A31.67,31.67,0,0,0,65,104.2a12,12,0,0,1-1.1-4A6.75,6.75,0,0,1,73.58,94c.53.24,1,.78,1.64.63.68,1.93,2.69,2.73,3.68,4.4.08.29.14.58.23.86,1.39,4.27-.73,7.88-5.1,9.1-1.7.48-3-.51-4.58-.51Z"/><path class="cls-1" d="M42.13,151.64c1.2-1.9,3-3.31,4.44-5,2.81-3.13,5.76-6.15,8.64-9.21a7.65,7.65,0,0,1-.13,1.59c-.2,3-1,6-.22,9.09l-.06,1c-.86.13-1.29.85-1.8,1.41-2.68,2.88-5.33,5.8-8,8.72a2.81,2.81,0,0,0-.33.62C43.08,157.41,42.78,154.47,42.13,151.64Z"/><path class="cls-2" d="M78.9,99.05c-1-1.67-3-2.47-3.68-4.4L87.13,80.47a8.11,8.11,0,0,1,2.84,3,3.87,3.87,0,0,1-.71,5.08c-3,3-6,6-8.93,9-.46.46-1.07.83-1.07,1.6Z"/><path class="cls-2" d="M85.14,113.49l1.37.19a3.68,3.68,0,0,1-1.39,2.23c-2.88,2.88-5.61,5.91-8.28,9a1.8,1.8,0,0,0-.54,1.1l-1,.34-9.44-.13a2.26,2.26,0,0,0,0-.26l9.85-10.88,1.65.61A6.69,6.69,0,0,0,85.14,113.49Z"/><path class="cls-2" d="M85.14,113.49a6.69,6.69,0,0,1-7.83,2.19l-1.65-.61-6.21-6.57c1.54,0,2.88,1,4.58.51,4.37-1.22,6.49-4.83,5.1-9.1-.09-.28-.15-.57-.23-.86h.36a41.63,41.63,0,0,1,5.15,5.22,1.37,1.37,0,0,0,.86.58C86.76,107.75,87.37,110.64,85.14,113.49Z"/><path class="cls-2" d="M65.82,126.21l-.16.07h-.17l.32-.33A2.26,2.26,0,0,1,65.82,126.21Z"/><path class="cls-2" d="M171.28,126.26s-21.44,13.74,0,37.34H59.82s-23.37-21.67,2.68-37.53Z"/><path class="cls-2" d="M42.13,151.64,24.59,170.46c-1.2,1.28-2.34,2.62-3.63,3.8-5.74,5.27-15.4,2.67-17.42-4.65a12.68,12.68,0,0,0,5.55.14c3.12-.65,5.24-2.64,7.29-5,4.18-4.84,8.63-9.45,13-14.15q8.79-9.51,17.57-19c5.31-5.71,10.72-11.31,15.93-17.11,1.94-2.15,4.08-4.11,5.91-6.36l.69.39,6.21,6.57L65.81,126l-.32.33c-3.51,3.65-7,7.3-10.28,11.19-2.88,3.06-5.83,6.08-8.64,9.21C45.09,148.33,43.33,149.74,42.13,151.64Z"/></g></g></svg>