<svg xmlns="http://www.w3.org/2000/svg" viewBox="0 0 188.9 188.85"><defs><style>.cls-1{fill:none;stroke:#96d733;stroke-miterlimit:10;stroke-width:5px;}</style></defs><title>e-saúde</title><g id="Camada_2" data-name="Camada 2"><g id="Capa_1" data-name="Capa 1"><path class="cls-1" d="M6.5,186.35c-3.08-1.43-4-3.85-4-7.19.12-16.39,0-32.78,0-49.18,0-4.29,2.07-6.34,6.4-6.35H25.11c4.21,0,6.25,2.07,6.25,6.3,0,16.45-.05,32.9.06,49.35,0,3.34-.94,5.74-4.09,7.07Z"/><path class="cls-1" d="M186.4,95.86c-2.51,4.29-4.71,4.92-9.27,2.64-3.19-1.6-6.4-3.17-9.59-4.79s-4.28-4.63-2.91-7.43,4.57-3.74,7.66-2.24,6,3.12,9.11,4.53c2.15,1,4,2.21,5,4.42Z"/><path class="cls-1" d="M186.4,38.41c-1.22,2.28-3.32,3.4-5.55,4.44-2.91,1.36-5.74,2.88-8.64,4.28-3.06,1.48-6.12.56-7.52-2.17s-.3-5.91,2.77-7.47c3.29-1.67,6.6-3.29,9.9-5,4.35-2.19,7-1.31,9,3Z"/><path class="cls-1" d="M100.16,105.57q-14.1,0-28.18,0c-13.37,0-23.2-9.81-23.25-23.2q-.07-16.77,0-33.56c.05-13.47,9.91-23.23,23.4-23.26h.18c1.71-.12,4,.75,5-.34s.28-3.18.28-4.84c0-4,0-8,0-12,0-3.61,2.2-5.82,5.79-5.83h33.75c3.61,0,5.77,2.18,5.79,5.82,0,5.14.07,10.29,0,15.43,0,1.56.46,1.87,1.9,1.83a33.57,33.57,0,0,1,10.33.79,22.62,22.62,0,0,1,16.67,21.89c.13,11.55.15,23.09,0,34.64-.16,13-10.12,22.63-23.08,22.66C119.18,105.59,109.67,105.57,100.16,105.57Zm5.46-49c0-.78,0-1.56,0-2.34a5.39,5.39,0,1,0-10.77,0c0,1.62-.06,3.24,0,4.85,0,1-.33,1.22-1.24,1.18-1.56-.06-3.11,0-4.67,0-3.26.06-5.58,2.25-5.63,5.26S85.64,70.88,89,71a29.81,29.81,0,0,0,4.12,0c1.58-.18,1.92.45,1.79,1.88a36.28,36.28,0,0,0,0,4.3,5.38,5.38,0,1,0,10.75,0c0-1.62.06-3.24,0-4.85,0-1,.24-1.31,1.28-1.31,2.08,0,4.19.3,6.25-.22a5.34,5.34,0,0,0-.91-10.49c-1-.07-1.92,0-2.87,0C105.62,60.22,105.62,60.22,105.62,56.54Zm-5.58-31c3.58,0,7.17-.05,10.75,0,1.14,0,1.39-.32,1.37-1.4-.07-3.23,0-6.46,0-9.68,0-.87-.13-1.25-1.14-1.25q-10.76.08-21.51,0c-1,0-1.19.28-1.18,1.2.06,3.29.07,6.58,0,9.86,0,1.07.35,1.27,1.32,1.25C93.11,25.52,96.57,25.55,100,25.55Z"/><path class="cls-1" d="M80.65,174.83c-12.21,0-24.42,0-36.63,0-1.4,0-1.93-.21-1.92-1.8q.1-18,0-36.08c0-1.38.3-1.9,1.76-1.81,2,.13,4.29.57,6-.13s1.68-3.41,2.66-5.13c4.36-7.64,10.83-11.88,19.66-12,11.9-.15,23.82-.12,35.72,0a11.51,11.51,0,0,1,11.61,11.65c-.08,6.39-5.12,11.32-11.84,11.43-5.69.09-11.37,0-17.06,0a5.36,5.36,0,1,0,0,10.71c6.82,0,13.65.07,20.46-.06,4.66-.09,8.47-2.19,11.72-5.46q12.53-12.6,25.13-25.14c7.15-7.08,17.49-7.4,24.71-.87,2.82,2.55,3,5.76.3,8.46q-19.58,19.64-39.24,39.2a24.06,24.06,0,0,1-17.53,7C104.35,174.85,92.5,174.83,80.65,174.83Z"/><path class="cls-1" d="M36.34,89.56a4.79,4.79,0,0,1-2.78,3.81c-3.91,2-7.84,4-11.82,5.91A5.35,5.35,0,0,1,17,89.68c3.9-2.05,7.82-4.07,11.82-5.92C32.44,82.09,36.38,84.77,36.34,89.56Z"/><path class="cls-1" d="M36.35,42.53a5.22,5.22,0,0,1-7.24,4.93c-4.24-1.88-8.38-4-12.47-6.21a5.15,5.15,0,0,1-2-6.87,5.23,5.23,0,0,1,6.81-2.61c4.17,1.92,8.26,4,12.31,6.16A4.84,4.84,0,0,1,36.35,42.53Z"/><path class="cls-1" d="M105.62,56.54c0,3.68,0,3.68,3.73,3.69,1,0,1.91,0,2.87,0a5.34,5.34,0,0,1,.91,10.49c-2.06.52-4.17.22-6.25.22-1,0-1.33.31-1.28,1.31.07,1.61.05,3.23,0,4.85a5.38,5.38,0,1,1-10.75,0,36.28,36.28,0,0,1,0-4.3c.13-1.43-.21-2.06-1.79-1.88A29.81,29.81,0,0,1,89,71c-3.32-.11-5.67-2.43-5.63-5.5s2.37-5.2,5.63-5.26c1.56,0,3.11,0,4.67,0,.91,0,1.28-.2,1.24-1.18-.08-1.61-.05-3.23,0-4.85a5.39,5.39,0,1,1,10.77,0C105.63,55,105.62,55.76,105.62,56.54Z"/><path class="cls-1" d="M100,25.55c-3.47,0-6.93,0-10.4,0-1,0-1.35-.18-1.32-1.25.07-3.28.06-6.57,0-9.86,0-.92.21-1.21,1.18-1.2q10.75.06,21.51,0c1,0,1.15.38,1.14,1.25,0,3.22-.06,6.45,0,9.68,0,1.08-.23,1.43-1.37,1.4C107.21,25.5,103.62,25.55,100,25.55Z"/></g></g></svg>