<svg xmlns="http://www.w3.org/2000/svg" viewBox="0 0 35.1 35.1"><defs><style>.cls-1{fill:#fff;}</style></defs><title>Localização</title><g id="Camada_2" data-name="Camada 2"><g id="Capa_1" data-name="Capa 1"><path class="cls-1" d="M17.52,10.35a4.47,4.47,0,1,0,0,8.93A4.48,4.48,0,0,0,22,14.84,4.52,4.52,0,0,0,17.52,10.35Z"/><path class="cls-1" d="M17.55,0A17.55,17.55,0,1,0,35.1,17.55,17.55,17.55,0,0,0,17.55,0ZM26.1,17.41a26.48,26.48,0,0,1-2.69,4.86c-1.46,2.16-3.1,4.17-4.71,6.22l-1,1.25c-.18.24-.33.24-.51,0-1.81-2.42-3.78-4.72-5.49-7.21a23.53,23.53,0,0,1-3.09-5.76,8.82,8.82,0,0,1-.3-1.12,5,5,0,0,1-.14-1.34,8.92,8.92,0,0,1,2.42-6.16,8.87,8.87,0,0,1,6.44-3,9,9,0,0,1,8.66,5A8.17,8.17,0,0,1,26.1,17.41Z"/></g></g></svg>