<svg xmlns="http://www.w3.org/2000/svg" viewBox="0 0 169.4 187.75"><defs><style>.cls-1{opacity:0.4;}.cls-2{fill:#96d733;}.cls-3{fill:#fff;}</style></defs><title>Lâmpada</title><g id="Camada_2" data-name="Camada 2"><g id="Capa_1" data-name="Capa 1"><g class="cls-1"><path class="cls-2" d="M84.59,187.74c-5.6,0-11.2,0-16.81,0-4.79,0-7.45-2.63-7.55-7.46,0-2.22.4-4.48-2.21-5.85-.93-.49-1.15-1.89-1.15-3.09,0-4.06,0-8.13,0-12.2a4.1,4.1,0,0,1,2.19-3.92c1.28-.63,1.41-1.52,1.41-2.74,0-11.68-3.36-22-11.66-30.57C41.31,114.19,36.42,105.23,35,94.32,31.39,68.06,45.3,44.59,69.34,36.89,103.2,26,137.11,52.81,135,88.3c-.8,13.14-5.13,24.3-14.37,33.63-8.22,8.3-11.59,18.52-11.67,30,0,1.4-.15,2.63,1.58,3.41s2.12,2.51,2,4.27c-.19,3.8-.19,7.61,0,11.41a4.06,4.06,0,0,1-1.68,3.93c-1.67,1-1.72,2.33-1.7,4,.08,6.49-2.28,8.82-8.81,8.82Zm.09-33.36c5.52,0,11-.16,16.55.06,2.64.11,3.35-.67,3.32-3.27a44.23,44.23,0,0,1,12.85-32.55,58.68,58.68,0,0,0,5.22-6.24c7.43-10.16,8.7-21.75,7.31-33.78-3-26-29.3-44.46-54.84-38.54C35.21,49.32,30,96.65,50.73,117.23c9.72,9.64,14.51,21.27,14.19,35,0,1.93.67,2.27,2.42,2.24C73.12,154.31,78.9,154.37,84.68,154.38Zm0,21.84c-5.94,0-11.88,0-17.82,0-.67,0-1.75-.34-1.91.36a9.45,9.45,0,0,0,.07,5.14c.46,1.44,1.76,1.45,3,1.45q16,0,32,0a10.82,10.82,0,0,0,2.35,0c3.22-.68,2-3.33,2.26-5.31s-1.32-1.58-2.4-1.59C96.4,176.2,90.55,176.22,84.69,176.22Zm0-13.16c7,0,14,0,21,0,1.56,0,2.36-.18,2.35-2.08s-.62-2.11-2.25-2.11q-21.1.09-42.21,0c-1.68,0-2.16.43-2.21,2.16-.06,2,.91,2,2.38,2C70.75,163,77.74,163.07,84.73,163.06Zm0,8.6c7,0,14,0,21,0,1.48,0,2.4-.06,2.35-2,0-1.73-.5-2.19-2.23-2.18q-21.09.09-42.2,0c-1.72,0-2.21.47-2.24,2.19,0,1.94.88,2,2.38,2C70.73,171.62,77.72,171.65,84.71,171.66Z"/><path class="cls-2" d="M11.4,87C8.61,87,5.82,87,3,87c-1.68,0-3-.41-3-2.36,0-1.78,1.31-2.26,2.89-2.26,5.93,0,11.85,0,17.78,0,1.6,0,2.84.6,2.79,2.37S22.16,87,20.55,87C17.5,87,14.45,87,11.4,87Z"/><path class="cls-2" d="M157.51,87c-2.89,0-5.78,0-8.67,0-1.61,0-2.85-.48-2.87-2.29s1.26-2.32,2.85-2.32h17.85c1.6,0,2.8.59,2.73,2.42S168.19,87,166.7,87C163.64,87,160.57,87,157.51,87Z"/><path class="cls-2" d="M86.92,11.78c0,3,0,5.94,0,8.9,0,1.63-.52,2.82-2.34,2.75s-2.11-1.24-2.1-2.73q0-9,0-18.07c0-1.54.61-2.62,2.22-2.63s2.23,1.09,2.23,2.62C86.92,5.67,86.93,8.73,86.92,11.78Z"/><path class="cls-2" d="M42.11,39.56A2.28,2.28,0,0,1,41,41.76a2.12,2.12,0,0,1-2.67-.28c-4.54-4.5-9.07-9-13.55-13.55A2.25,2.25,0,0,1,28,24.82c4.49,4.42,8.93,8.89,13.37,13.36A2.21,2.21,0,0,1,42.11,39.56Z"/><path class="cls-2" d="M42.09,129.28a3.09,3.09,0,0,1-1.22,2.48Q34.75,137.88,28.64,144c-1.15,1.16-2.42,2-3.83.61s-.57-2.68.6-3.84q6.22-6.18,12.43-12.41a2.45,2.45,0,0,1,2.81-.84A2.22,2.22,0,0,1,42.09,129.28Z"/><path class="cls-2" d="M145.25,142.72a2.2,2.2,0,0,1-1.22,2.35,2,2,0,0,1-2.44-.31c-4.6-4.56-9.19-9.12-13.72-13.74a2,2,0,0,1,.2-3,1.93,1.93,0,0,1,2.84-.13q7,6.89,13.93,13.88A2.48,2.48,0,0,1,145.25,142.72Z"/><path class="cls-2" d="M145.27,26.72a2.42,2.42,0,0,1-.93,1.58q-6.39,6.4-12.8,12.79c-1.07,1.07-2.27,1.47-3.46.37-1.35-1.25-.83-2.49.3-3.63L141,25.21c.84-.84,1.77-1.44,3-.84A2.28,2.28,0,0,1,145.27,26.72Z"/><path class="cls-3" d="M84.68,154.38c-5.78,0-11.56-.07-17.34,0-1.75,0-2.46-.31-2.42-2.24.32-13.68-4.47-25.31-14.19-34.95C30,96.65,35.21,49.32,75.09,40.06c25.54-5.92,51.82,12.49,54.84,38.54,1.39,12,.12,23.62-7.31,33.78a58.68,58.68,0,0,1-5.22,6.24,44.23,44.23,0,0,0-12.85,32.55c0,2.6-.68,3.38-3.32,3.27C95.72,154.22,90.2,154.38,84.68,154.38ZM82.52,44.79C62,46.12,45.63,62.42,44.78,82.22c-.07,1.79-.88,4.41,1.93,4.64,3.07.26,2.5-2.52,2.61-4.4a35.55,35.55,0,0,1,33.31-33.2c1.8-.11,4.41.56,4.19-2.46S84.06,44.89,82.52,44.79Z"/><path class="cls-2" d="M84.69,176.22c5.86,0,11.71,0,17.57,0,1.08,0,2.69-.54,2.4,1.59s1,4.63-2.26,5.31a10.82,10.82,0,0,1-2.35,0q-16,0-32,0c-1.28,0-2.58,0-3-1.45a9.45,9.45,0,0,1-.07-5.14c.16-.7,1.24-.36,1.91-.36C72.81,176.21,78.75,176.22,84.69,176.22Z"/><path class="cls-2" d="M84.73,163.06c-7,0-14,0-21,0-1.47,0-2.44,0-2.38-2,0-1.73.53-2.17,2.21-2.16q21.1.09,42.21,0c1.63,0,2.23.33,2.25,2.11s-.79,2.09-2.35,2.08C98.71,163,91.72,163.06,84.73,163.06Z"/><path class="cls-2" d="M84.71,171.65c-7,0-14,0-21,0-1.5,0-2.42-.08-2.38-2,0-1.72.52-2.2,2.24-2.19q21.1.1,42.2,0c1.73,0,2.19.45,2.23,2.18,0,2-.87,2-2.35,2C98.69,171.63,91.7,171.66,84.71,171.65Z"/><path class="cls-2" d="M82.52,44.79c1.54.1,4.08-.91,4.3,2s-2.39,2.35-4.19,2.46a35.55,35.55,0,0,0-33.31,33.2c-.11,1.88.46,4.66-2.61,4.4-2.81-.23-2-2.85-1.93-4.64C45.63,62.42,62,46.12,82.52,44.79Z"/></g></g></g></svg>