<svg xmlns="http://www.w3.org/2000/svg" viewBox="0 0 106.45 114.38"><defs><style>.cls-1{fill:#384e79;}</style></defs><title>Selo-Certificado-Azul</title><g id="Camada_2" data-name="Camada 2"><g id="Capa_1" data-name="Capa 1"><path class="cls-1" d="M90.48,77.54c5,5.86,8.84,10.67,13.08,15s4.19,7.33-2.17,7.86c-6,.5-8.54,2.94-9.17,9-.65,6.36-4.16,6-8.12,2-4.92-5-10-9.74-14.94-14.73-1.26-1.29-4-2.26-2.89-4.61s3.54-1.06,5.46-.84C84.76,92.75,85.83,92.11,90.48,77.54Z"/><path class="cls-1" d="M15.6,77.62c5.19,14.57,6,15.07,19.18,13.63,1.94-.21,4.31-1.52,5.37,1,.79,1.88-1.34,3-2.49,4.09-5.15,5.13-10.45,10.12-15.57,15.28-4.39,4.43-7.5,3.36-7.91-2.45-.44-6.43-3.62-8.27-9.4-8.79C-.63,99.92-1.5,97.23,2.44,93,6.78,88.36,10.74,83.35,15.6,77.62Z"/><path class="cls-1" d="M98.42,56.19c-3.75-5.52-3.59-10.64.08-16.12s1.82-9.37-4.11-11.57c-5.69-2.12-9.08-5.5-9.22-12.21C85,10,81.6,6.42,74.7,8.59c-6,1.88-10.76.59-14.71-4.42-4.5-5.7-9.35-5.46-13.71.15-4,5.12-8.9,6-14.78,4.26-6.3-1.88-9.94,1-10.15,7.1-.24,6.85-3.32,10.75-9.53,13S4.49,35,8,40.32s3.91,10,.26,15.33c-3.8,5.52-2.81,10,3.83,12.28,6.37,2.2,9,6.49,9.28,13.16.22,5.74,4,8.77,9.56,6.91,7.32-2.43,12.32.08,16.81,5.57,2.77,3.38,6.63,4.64,9.79,1C63,88.2,68.92,84.4,75.93,88.15c7.06.74,9-3,9.12-7.34.24-6.74,3.27-10.82,9.5-13S102,61.48,98.42,56.19ZM53.06,81.6c-19.4,0-34.86-15-35.07-33.92S33.91,12.83,53.33,12.9,88.59,28.78,88.29,48C88,66.91,72.55,81.66,53.06,81.6Z"/><path class="cls-1" d="M53.1,76.58C36.59,76.54,23.23,63.69,23,47.66,22.76,31.45,36.5,18,53.3,18c16.47,0,29.84,12.9,30.07,29C83.61,63.31,70,76.63,53.1,76.58Z"/></g></g></svg>