<svg xmlns="http://www.w3.org/2000/svg" viewBox="0 0 113.86 122.34"><defs><style>.cls-1{fill:#5c6677;}</style></defs><title>Selo-Certificado</title><g id="Camada_2" data-name="Camada 2"><g id="Capa_1" data-name="Capa 1"><path class="cls-1" d="M96.77,82.93c5.41,6.27,9.46,11.42,14,16.09s4.48,7.84-2.32,8.41c-6.47.53-9.13,3.14-9.81,9.67-.7,6.8-4.45,6.38-8.68,2.11-5.26-5.32-10.74-10.42-16-15.76-1.36-1.38-4.23-2.41-3.1-4.93s3.78-1.14,5.84-.9C90.66,99.21,91.81,98.52,96.77,82.93Z"/><path class="cls-1" d="M16.69,83c5.55,15.59,6.4,16.12,20.51,14.58,2.08-.23,4.61-1.63,5.75,1.1.84,2-1.44,3.15-2.67,4.38-5.51,5.49-11.18,10.82-16.65,16.34-4.7,4.74-8,3.6-8.46-2.62-.48-6.87-3.87-8.84-10-9.4-5.8-.53-6.72-3.4-2.51-7.91C7.25,94.51,11.49,89.15,16.69,83Z"/><path class="cls-1" d="M105.27,60.1c-4-5.91-3.84-11.38.08-17.24s2-10-4.38-12.38c-6.1-2.26-9.72-5.88-9.88-13C91,10.7,87.28,6.87,79.9,9.19c-6.38,2-11.51.63-15.74-4.73-4.81-6.1-10-5.84-14.66.16C45.24,10.1,40,11.06,33.69,9.18c-6.74-2-10.63,1.08-10.86,7.6-.25,7.31-3.55,11.49-10.19,13.85S4.8,37.46,8.56,43.12s4.19,10.74.29,16.4c-4.07,5.91-3,10.69,4.1,13.14,6.8,2.35,9.64,6.94,9.91,14.07.24,6.14,4.24,9.38,10.24,7.39,7.82-2.59,13.17.09,18,6,3,3.62,7.08,5,10.47,1,5.87-6.79,12.17-10.85,19.66-6.85,7.56.8,9.6-3.19,9.76-7.84.26-7.21,3.49-11.58,10.16-13.92S109.11,65.76,105.27,60.1ZM56.75,87.28C36,87.22,19.47,71.23,19.24,51s17-37.28,37.8-37.2,37.71,17,37.39,37.48C94.12,71.56,77.6,87.34,56.75,87.28Z"/><path class="cls-1" d="M56.79,81.91c-17.65,0-31.95-13.78-32.2-30.93C24.34,33.63,39,19.26,57,19.29c17.62,0,31.92,13.79,32.16,31C89.42,67.72,74.85,82,56.79,81.91Z"/></g></g></svg>