<svg xmlns="http://www.w3.org/2000/svg" viewBox="0 0 173.63 186.57"><defs><style>.cls-1{fill:#fff;}</style></defs><title>Selo-Certificado-Branco</title><g id="Camada_2" data-name="Camada 2"><g id="Capa_1" data-name="Capa 1"><path class="cls-1" d="M147.58,126.47C155.83,136,162,143.88,168.93,151c6.72,6.93,6.83,12-3.54,12.82-9.88.82-13.93,4.79-15,14.75-1.07,10.37-6.79,9.73-13.24,3.21-8-8.11-16.38-15.89-24.37-24-2.07-2.1-6.45-3.68-4.72-7.52,1.83-4.06,5.76-1.73,8.9-1.37C138.26,151.3,140,150.24,147.58,126.47Z"/><path class="cls-1" d="M25.45,126.61c8.47,23.77,9.77,24.58,31.29,22.23,3.16-.35,7-2.48,8.76,1.68,1.28,3.07-2.2,4.81-4.07,6.68-8.41,8.37-17,16.5-25.4,24.92-7.16,7.23-12.24,5.48-12.9-4-.73-10.48-5.9-13.48-15.32-14.34C-1,163-2.45,158.6,4,151.72,11.06,144.13,17.52,136,25.45,126.61Z"/><path class="cls-1" d="M160.53,91.65c-6.1-9-5.85-17.35.14-26.29s3-15.28-6.7-18.87c-9.29-3.46-14.81-9-15.05-19.91-.22-10.26-5.81-16.11-17.07-12.56-9.73,3.07-17.55,1-24-7.22-7.34-9.3-15.24-8.91-22.36.25C69,15.4,61,16.86,51.38,14,41.1,10.93,35.16,15.65,34.82,25.58c-.38,11.16-5.42,17.54-15.55,21.14-10,3.54-11.94,10.41-6.21,19,5.6,8.42,6.38,16.38.43,25-6.2,9-4.58,16.31,6.25,20,10.39,3.59,14.7,10.58,15.13,21.46.36,9.36,6.46,14.3,15.61,11.27,11.92-4,20.08.13,27.41,9.09,4.52,5.52,10.81,7.57,16,1.6,9-10.36,18.56-16.55,30-10.45,11.53,1.21,14.64-4.87,14.89-12,.38-11,5.32-17.66,15.49-21.23C164.22,107.08,166.39,100.29,160.53,91.65Zm-74,41.46c-31.63-.09-56.85-24.49-57.2-55.34S55.31,20.93,87,21,144.5,47,144,78.21C143.53,109.14,118.34,133.2,86.54,133.11Z"/><path class="cls-1" d="M86.61,124.92c-26.92-.08-48.72-21-49.1-47.17-.39-26.46,22-48.38,49.44-48.33,26.86,0,48.66,21,49,47.23C136.37,103.27,114.15,125,86.61,124.92Z"/></g></g></svg>