<svg xmlns="http://www.w3.org/2000/svg" viewBox="0 0 35.32 35.32"><defs><style>.cls-1{fill:#fff;}</style></defs><title>Site</title><g id="Camada_2" data-name="Camada 2"><g id="Capa_1" data-name="Capa 1"><path class="cls-1" d="M12.72,17.66c0-1,0-2.07.13-3.08H7a11,11,0,0,0,0,6.16h5.86C12.76,19.73,12.72,18.69,12.72,17.66Z"/><path class="cls-1" d="M14.75,6.94a11.14,11.14,0,0,0-7,5.78h5.35A17.93,17.93,0,0,1,14.75,6.94Z"/><path class="cls-1" d="M27.6,12.72a11.11,11.11,0,0,0-7-5.78,17.67,17.67,0,0,1,1.7,5.78Z"/><path class="cls-1" d="M14.58,17.66c0,1.06,0,2.09.13,3.08H20.6c.09-1,.14-2,.14-3.08s0-2.09-.14-3.08H14.71C14.62,15.57,14.58,16.6,14.58,17.66Z"/><path class="cls-1" d="M19.61,9.44c-.66-2-1.46-2.89-1.95-2.89s-1.29.89-2,2.89a19.59,19.59,0,0,0-.76,3.28h5.44A19.55,19.55,0,0,0,19.61,9.44Z"/><path class="cls-1" d="M7.71,22.6a11.17,11.17,0,0,0,7,5.78,18,18,0,0,1-1.69-5.78Z"/><path class="cls-1" d="M17.66,0A17.66,17.66,0,1,0,35.32,17.66,17.66,17.66,0,0,0,17.66,0ZM29.9,21.92a.56.56,0,0,1,0,.12,13,13,0,0,1-24.4,0l0-.12a13,13,0,0,1,0-8.53,1.17,1.17,0,0,1,0-.11,13,13,0,0,1,24.4,0,.36.36,0,0,1,0,.11,13,13,0,0,1,0,8.53Z"/><path class="cls-1" d="M22.47,14.58c.09,1,.13,2,.13,3.08s0,2.07-.13,3.08h5.86a11,11,0,0,0,0-6.16Z"/><path class="cls-1" d="M20.56,28.38a11.14,11.14,0,0,0,7-5.78H22.26A17.75,17.75,0,0,1,20.56,28.38Z"/><path class="cls-1" d="M15.7,25.88c.67,2,1.46,2.89,2,2.89s1.29-.9,1.95-2.89a20,20,0,0,0,.77-3.28H14.94A21.16,21.16,0,0,0,15.7,25.88Z"/></g></g></svg>