<svg xmlns="http://www.w3.org/2000/svg" viewBox="0 0 35.1 35.1"><defs><style>.cls-1{fill:#fff;}</style></defs><title>Telefones</title><g id="Camada_2" data-name="Camada 2"><g id="Capa_1" data-name="Capa 1"><path class="cls-1" d="M21,24.82a.69.69,0,0,1-.76.14,18.84,18.84,0,0,1-9-9,.66.66,0,0,1,.13-.75l1.86-1.86-.85-4a4.65,4.65,0,0,0-3.85,6.2A20.17,20.17,0,0,0,20.58,27.67a4.66,4.66,0,0,0,6.19-3.86L22.82,23Z"/><path class="cls-1" d="M17.55,0A17.55,17.55,0,1,0,35.1,17.55,17.55,17.55,0,0,0,17.55,0Zm0,13.34a5.31,5.31,0,0,1,5.31,5.31.67.67,0,0,1-1.33,0,4,4,0,0,0-4-4,.66.66,0,1,1,0-1.32Zm-.67-2a.67.67,0,0,1,.67-.66,8,8,0,0,1,8,8,.66.66,0,0,1-.67.66.65.65,0,0,1-.66-.66A6.65,6.65,0,0,0,17.51,12,.67.67,0,0,1,16.84,11.34ZM27.42,26.12a6.19,6.19,0,0,1-1.84,2.07,5.92,5.92,0,0,1-2.57,1,5,5,0,0,1-.86.07,5.77,5.77,0,0,1-2-.37,21.47,21.47,0,0,1-7.86-5,21.75,21.75,0,0,1-5-7.87,5.93,5.93,0,0,1-.3-2.89,6,6,0,0,1,1-2.56A5.95,5.95,0,0,1,12.87,8a.66.66,0,0,1,.65.53l1.05,4.86a.71.71,0,0,1-.18.61L12.6,15.8a17.5,17.5,0,0,0,7.75,7.75l1.78-1.78a.66.66,0,0,1,.61-.18l4.87,1a.67.67,0,0,1,.52.65A6,6,0,0,1,27.42,26.12Zm0-6.81a.66.66,0,0,1-.67-.66,9.31,9.31,0,0,0-9.29-9.3.67.67,0,1,1,0-1.33A10.64,10.64,0,0,1,28.13,18.65.66.66,0,0,1,27.47,19.31Z"/></g></g></svg>