<svg xmlns="http://www.w3.org/2000/svg" viewBox="0 0 88.94 116.79"><defs><style>.cls-1{fill:#fff;}</style></defs><title>Unidades</title><g id="Camada_2" data-name="Camada 2"><g id="Capa_1" data-name="Capa 1"><path class="cls-1" d="M45.23,0c.38.3,1,.55,1.09.89.54,3.61,3.45,2.81,5.6,2.8,3.87,0,7.75-.6,11.63-.64C70,3,70,3.09,70,9.41c0,2.07-.07,4.15,0,6.22.06,1.42-.36,1.9-1.76,1.47-3.47-1.08-7-.81-10.53-.32a28.49,28.49,0,0,1-10.95-.22c0,1.75.07,3.38,0,5s1.13,1.59,2,2q18.45,9.58,36.94,19.11a6.76,6.76,0,0,1,2.65,2,3.59,3.59,0,0,1-2.85,5.68,35.89,35.89,0,0,1-6.22,0c-2.19-.19-2.9.35-2.88,2.75.13,16.44,0,32.87.13,49.31,0,2.2-.56,2.77-2.68,2.6a53.17,53.17,0,0,0-7.78,0c-1.93.13-2.46-.43-2.45-2.4.1-13.84,0-27.68.11-41.52,0-2.43-.65-3.14-3-2.93a42,42,0,0,1-7,0c-2.13-.18-2.75.44-2.73,2.64.1,13.92,0,27.85.09,41.78,0,1.83-.27,2.61-2.34,2.44a50.07,50.07,0,0,0-8,0c-2.21.18-2.51-.72-2.5-2.63.07-13.84,0-27.68.09-41.52,0-2.13-.52-2.88-2.7-2.71a56.11,56.11,0,0,1-7.78,0c-1.89-.12-2.26.58-2.25,2.33.07,14,0,28,.09,42,0,2.1-.6,2.61-2.56,2.48a61.2,61.2,0,0,0-7.78,0c-1.91.13-2.46-.39-2.45-2.38.09-16.26.07-32.53,0-48.79,0-4,.52-3.39-3.43-3.43-1.64,0-3.28,0-4.93,0-2.1,0-3.82-.75-4.36-2.9S1,44,2.81,43.1l18.13-9.37c6.5-3.37,13-6.8,19.52-10.07a3.32,3.32,0,0,0,2.11-3.56c-.12-5.62,0-11.25,0-16.87A6.21,6.21,0,0,1,43.16,0Z"/><path class="cls-1" d="M1.11,116.79c-.61-.31-.33-.68,0-1,2.29-2.12,4.6-4.2,6.86-6.33a2.73,2.73,0,0,1,2.19-.5q34.36,0,68.74,0a3.51,3.51,0,0,1,2.8.94c1.87,1.91,3.88,3.69,5.79,5.57.31.3,1.32.61.33,1.31Z"/></g></g></svg>