<svg xmlns="http://www.w3.org/2000/svg" viewBox="0 0 149.26 149.26"><defs><style>.cls-1{opacity:0.3;}.cls-2{fill:#a2b743;}</style></defs><title>Videoconferência</title><g id="Camada_2" data-name="Camada 2"><g id="Capa_1" data-name="Capa 1"><g class="cls-1"><path class="cls-2" d="M0,125.07c1.88-4.67,5.5-6.07,10.24-5.68,2.21.19,2.22,0,2.22-2.19V28.3c0-4.2,1.87-7,5.32-8.06a10,10,0,0,1,2.88-.37H81.15c2.24,0,2.94.52,3.46,2.51-.51,2-1.12,2.47-3.45,2.47H21.55c-3.53,0-4.1.57-4.1,4q0,20.7,0,41.39c0,5.64,0,11.27,0,16.91,0,6.8,0,13.6-.06,20.4,0,1.41.26,1.87,1.8,1.87q55.46-.09,110.9,0c1.28,0,1.72-.27,1.71-1.65-.07-7.92,0-15.84,0-23.76q0-17.85,0-35.7c0-2.34.57-3.09,2.59-3.51,1.94.49,2.4,1.11,2.4,3.35q0,17.26,0,34.52c0,11.71,0,23.41,0,35.11,0,1.28.23,1.8,1.64,1.7a17.24,17.24,0,0,1,5.07.17,7.45,7.45,0,0,1,5.76,7.59A20.53,20.53,0,0,1,135.41,147a30.89,30.89,0,0,1-9,2c-.2,0-.38.05-.43.28H22.74c-2.14-.48-4.3-.86-6.4-1.48-7.85-2.33-13.51-7-15.68-15.19-.2-.77-.09-1.62-.66-2.28Zm126.85-10.53c-.64,0-1.27-.05-1.9-.05H20.6c-3.15,0-3.15,0-3.14,3.09,0,1.88,0,1.88,1.86,1.88H125.14c.53,0,1.06,0,1.6,0s.87.09,1.3.09c4,0,4,0,3.77-3.95-.05-.75-.28-1-1-1C129.47,114.56,128.16,114.54,126.85,114.54Zm11.91,9.95a1.5,1.5,0,0,0-.29-.06q-15.73,0-31.48,0c-.75,0-1,.36-1.21,1-1,2.62-2.1,5.21-3.13,7.83a5.26,5.26,0,0,1-5.37,3.63q-22.66,0-45.33,0a5.25,5.25,0,0,1-5.34-3.67c-1-2.52-2.07-5-3-7.56a1.6,1.6,0,0,0-1.8-1.2c-6.75.05-13.5,0-20.26,0-4.51,0-9,0-13.55,0-1.95,0-3,.88-3,2.59.07,5.29,1.86,9.79,6.33,12.92,4.82,3.37,10.35,4.33,16,4.34q47.3.07,94.59,0a25.31,25.31,0,0,0,8.33-1.15,5.63,5.63,0,0,0,2.52-.6c7.15-2.42,11-7.49,11.44-14.83.12-2.23-.81-3.24-3-3.27C140.4,124.42,139.58,124.47,138.76,124.49Zm-78.41-.06c-3.55,0-7.1,0-10.64,0-1,0-1.18.26-.78,1.18.77,1.78,1.45,3.59,2.15,5.4a1.1,1.1,0,0,0,1.17.83q9.41,0,18.8,0c.85,0,1.08-.32,1.06-1.11,0-1.65-.09-3.31,0-5,.06-1.15-.4-1.37-1.43-1.35C67.24,124.46,63.79,124.43,60.35,124.43Zm28.57,0c-3.4,0-6.8,0-10.2,0-1.16,0-1.67.22-1.58,1.5a35.87,35.87,0,0,1,0,4.52c-.06,1.05.22,1.42,1.36,1.41q9.1-.08,18.21,0a1.43,1.43,0,0,0,1.57-1.11c.6-1.69,1.27-3.36,2-5,.47-1,.26-1.34-.88-1.32C95.91,124.46,92.42,124.43,88.92,124.43Z"/><path class="cls-2" d="M134.39,39.91h-7.55c-3.69,0-7.38,0-11.07-.08a2.73,2.73,0,0,0-1.58.65c-3,2-5.9,3.93-8.84,5.91-1.77,1.21-3.63,1.66-5.61.63A5.08,5.08,0,0,1,97,41.93c0-2,0-2-2-2.1-3.5-.13-5.42-2.11-5.45-5.65q0-5.89-.07-11.8,0-8.07.07-16.16c0-4.4,1.8-6.22,6.14-6.22H143.3c4.1,0,6,1.86,6,5.94V34.05c0,3.8-1.91,5.72-5.71,5.76ZM139.32,5H119.55C111.68,5,103.82,5,96,4.93c-1.26,0-1.51.41-1.5,1.58q.06,13.25,0,26.5c0,1.4.37,1.78,1.77,1.77,3.84,0,5.79,2,5.81,5.86a3.63,3.63,0,0,0,.18,1.81c2.25-1.5,4.56-2.83,6.64-4.47a13.84,13.84,0,0,1,10.65-3.25l19.86,0c1.31,0,2.62,0,3.93,0,.76,0,1-.25,1-1,0-1.65,0-3.3,0-5,0-7.47,0-14.95,0-22.43,0-1-.22-1.51-1.36-1.41S140.54,5,139.32,5Z"/><path class="cls-2" d="M94.39,59.47c-.77,3-1.68,6-4.44,7.91-.51.36-.54,1-.73,1.56a15.69,15.69,0,0,1-3.79,6.3,2.24,2.24,0,0,0-.31,3.12A10.6,10.6,0,0,0,94,83.67a49.63,49.63,0,0,1,7.07.86,11,11,0,0,1,8.32,9.71,28.27,28.27,0,0,1,0,5.67,4.83,4.83,0,0,1-5.1,4.53c-5.06,0-10.11,0-15.16,0H47.74c-3.39,0-5.44-2-5.46-5.42,0-2.72-.24-5.47.89-8,2.09-4.71,6-6.6,10.89-7,1.4-.12,2.8-.32,4.18-.56a7.88,7.88,0,0,0,6.46-7.1A2.89,2.89,0,0,0,64,74a9.54,9.54,0,0,1-1.94-3.23,12.14,12.14,0,0,0-3.74-5.53c-1.62-2.94-2.81-5.95-1.86-9.42A5.93,5.93,0,0,1,59.35,52a2.08,2.08,0,0,0,1.15-1.5C62,43.76,67,39.87,73.94,39.82c3.2,0,6.4-.1,9.34,1.55A12.69,12.69,0,0,1,89.85,50a3.08,3.08,0,0,0,1.54,2.22C94.08,53.87,94.47,56.6,94.39,59.47ZM74.94,75a8.4,8.4,0,0,0,5.81-2.16A13,13,0,0,0,84.88,66c.25-1.09.53-2.18,1.71-2.72a5.83,5.83,0,0,0,2.68-6c-.14-.46-.27-.73-.86-.76-2.54-.12-3-.63-3.09-3.11-.18-5.44-3.42-8.63-8.85-8.62-2,0-4.07-.23-6,.52-3.26,1.25-5.09,4.08-5.19,8.13-.06,2.35-.76,3.09-3,3.1-.44,0-.72.06-.92.48-.63,1.37.56,5.59,1.93,6,1.63.54,2.08,1.7,2.41,3.12a10.55,10.55,0,0,0,.84,2.32C68.3,72.21,70.93,74.84,74.94,75Zm.83,24.44H98.93c1.51,0,3,0,4.52,0,.4,0,1,.11,1-.55-.05-2,.36-4.1-.46-6a5.56,5.56,0,0,0-4.59-3.61c-4.31-.48-8.41-1.1-12.88.71-8.64,3.5-17.48,2.77-25.95-1.26a3,3,0,0,0-1.82-.34c-2,.3-4,.54-6.06.83a6.11,6.11,0,0,0-5.4,5.92c-.05.92.07,1.85,0,2.76-.16,1.3.3,1.63,1.59,1.63C57.8,99.45,66.78,99.48,75.77,99.48Zm9.2-14a14.64,14.64,0,0,1-4.61-5.83c-.18-.45-.52-.51-1-.37a12.58,12.58,0,0,1-9.36-.39c-.46-.2-.73-.18-.87.31a13.68,13.68,0,0,1-3.94,6.16A31.46,31.46,0,0,0,85,85.53Z"/><path class="cls-2" d="M116.9,131.86a2.56,2.56,0,0,1-2.4,2.47,2.59,2.59,0,0,1-2.54-2.49,2.47,2.47,0,0,1,4.94,0Z"/><path class="cls-2" d="M126.83,131.88a2.53,2.53,0,0,1-2.41,2.45,2.59,2.59,0,0,1-2.52-2.51,2.48,2.48,0,0,1,2.59-2.4A2.4,2.4,0,0,1,126.83,131.88Z"/><path class="cls-2" d="M139.06,21.28a4.78,4.78,0,0,1,.05,2.06,2.83,2.83,0,0,1-2.88,1.51c-5.56,0-11.12,0-16.68,0l-17-.08a2.82,2.82,0,0,1-2.27-.73,2.41,2.41,0,0,1,.82-3.94,5.78,5.78,0,0,1,2.15-.31c5.43,0,10.86,0,16.3,0s10.94,0,16.41,0A3.21,3.21,0,0,1,139.06,21.28Z"/><path class="cls-2" d="M119.53,9.89c5.48,0,10.95,0,16.43,0a3.2,3.2,0,0,1,3.11,1.45,3.56,3.56,0,0,1,0,2.07,3,3,0,0,1-2.93,1.47c-5.53,0-11.07,0-16.61,0-5.71,0-11.43,0-17.14-.06-1.71,0-2.65-.77-2.76-2.14-.13-1.81.91-2.8,3-2.81,5.13,0,10.27,0,15.4,0C118.57,9.92,119.05,9.9,119.53,9.89Z"/></g></g></g></svg>