<svg xmlns="http://www.w3.org/2000/svg" viewBox="0 0 35.1 35.1"><defs><style>.cls-1{fill:#fff;}</style></defs><title>WhatsApp</title><g id="Camada_2" data-name="Camada 2"><g id="Capa_1" data-name="Capa 1"><path class="cls-1" d="M17.61,8.65a8.8,8.8,0,0,0-7.45,13.48l.21.33-.89,3.25,3.33-.87.32.19a8.79,8.79,0,0,0,4.48,1.22h0a8.8,8.8,0,0,0,0-17.6Zm5.18,12.58A2.74,2.74,0,0,1,21,22.49a3.6,3.6,0,0,1-1.66-.11,14.41,14.41,0,0,1-1.51-.55,11.81,11.81,0,0,1-4.52-4,5.12,5.12,0,0,1-1.08-2.73,3,3,0,0,1,.93-2.21,1,1,0,0,1,.7-.33h.51c.16,0,.38-.06.59.45s.75,1.84.82,2a.46.46,0,0,1,0,.46,7.27,7.27,0,0,1-.66.91c-.12.14-.27.27-.12.54a8.23,8.23,0,0,0,1.48,1.83A7.22,7.22,0,0,0,18.62,20c.27.13.42.11.57-.07a12,12,0,0,0,.84-1c.18-.27.35-.22.6-.14s1.54.73,1.8.86.44.2.51.31A2.17,2.17,0,0,1,22.79,21.23Z"/><path class="cls-1" d="M17.55,0A17.55,17.55,0,1,0,35.1,17.55,17.55,17.55,0,0,0,17.55,0Zm.06,28h0a10.56,10.56,0,0,1-5.05-1.29L6.94,28.22l1.5-5.48A10.58,10.58,0,1,1,17.61,28Z"/></g></g></svg>