<svg width="1080" height="142" viewBox="0 0 1080 142" fill="none" xmlns="http://www.w3.org/2000/svg">
<path d="M0 0V141.34C110.79 119.81 151.7 54.45 166.72 6.21997C339.72 57.79 623.47 108.35 913.96 14.56C931.14 62.02 973.96 121.83 1079.96 141.75V0H0ZM133.5 23.09C117.12 67.97 86.5 90.71 63.65 101.89C38.93 114 18.31 115.46 17.44 115.52H17.21C16.2817 115.55 15.3794 115.211 14.7014 114.576C14.0235 113.941 13.6255 113.063 13.595 112.135C13.5645 111.207 13.904 110.304 14.5388 109.626C15.1736 108.948 16.0517 108.55 16.98 108.52C17.33 108.52 37.4 106.99 60.83 95.46C92.21 80.01 114.45 54.85 126.93 20.68C127.074 20.2314 127.308 19.8166 127.616 19.4604C127.924 19.1042 128.301 18.8139 128.725 18.607C129.148 18.4 129.609 18.2807 130.079 18.256C130.55 18.2314 131.02 18.3021 131.463 18.4637C131.905 18.6254 132.311 18.8748 132.655 19.1969C132.999 19.519 133.274 19.9072 133.464 20.3382C133.654 20.7693 133.756 21.2343 133.762 21.7054C133.768 22.1766 133.679 22.6441 133.5 23.08V23.09ZM1060.5 115.53H1060.27C1059.41 115.47 1038.78 114 1014.06 101.9C991.24 90.72 960.59 67.98 944.21 23.1C944.031 22.6641 943.942 22.1966 943.948 21.7254C943.954 21.2543 944.056 20.7893 944.246 20.3582C944.436 19.9272 944.711 19.539 945.055 19.2169C945.399 18.8948 945.805 18.6454 946.247 18.4837C946.69 18.3221 947.16 18.2514 947.631 18.276C948.101 18.3006 948.562 18.42 948.985 18.627C949.409 18.8339 949.786 19.1242 950.094 19.4804C950.403 19.8366 950.636 20.2514 950.78 20.7C966.37 63.39 995.47 85 1017.14 95.61C1040.63 107.11 1060.53 108.53 1060.73 108.54C1061.66 108.57 1062.54 108.968 1063.17 109.646C1063.81 110.324 1064.15 111.227 1064.11 112.155C1064.08 113.083 1063.69 113.961 1063.01 114.596C1062.33 115.231 1061.43 115.57 1060.5 115.54V115.53Z" fill="white"/>
</svg>
