<svg xmlns="http://www.w3.org/2000/svg" viewBox="0 0 407.8 380.69"><defs><style>.cls-1{font-size:89.47px;}.cls-1,.cls-2,.cls-3,.cls-4,.cls-5{fill:#fff;}.cls-1,.cls-2,.cls-5{font-family:Stealdream;}.cls-2{font-size:89.47px;}.cls-4{font-size:41.38px;font-family:LittlePea-Demo-Regular, Little Pea - Demo;}.cls-5{font-size:89.47px;}</style></defs><title>Head-Rede-Ideia</title><g id="Camada_2" data-name="Camada 2"><g id="Capa_1" data-name="Capa 1"><text class="cls-1" transform="translate(91.26 100.73) rotate(-14.84)">S</text><text class="cls-1" transform="translate(126.83 91.41) rotate(-9.5)">o</text><text class="cls-1" transform="translate(157.36 86.48) rotate(-5.79)">l</text><text class="cls-1" transform="translate(175.19 84.31) rotate(-1.77)">u</text><text class="cls-1" transform="translate(212.32 83.36) rotate(2.51)">ç</text><text class="cls-1" transform="translate(236.69 84.3) rotate(6.18)">õ</text><text class="cls-1" transform="translate(267.53 87.72) rotate(9.67)">e</text><text class="cls-1" transform="translate(291.47 91.73) rotate(12.81)">s</text><text class="cls-2" transform="translate(73.5 331.33) rotate(4.91)">N</text><text class="cls-2" transform="translate(137.82 336.23) rotate(1.29)">e</text><text class="cls-2" transform="translate(164.91 336.94) rotate(-1.63)">g</text><text class="cls-2" transform="translate(203.12 335.74) rotate(-5.46)">ó</text><text class="cls-2" transform="translate(237.53 332.27) rotate(-9.34)">c</text><text class="cls-2" transform="translate(264.48 327.69) rotate(-12.9)">i</text><text class="cls-2" transform="translate(286.64 322.78) rotate(-17.83)">o</text><path class="cls-3" d="M30.44,211.94l.8,7.78A10.54,10.54,0,0,1,30.1,226c-1.19,2.13-3.35,3.17-6.33,3.65l.8,6.92a1.15,1.15,0,0,1-2.28.24L19,205.06A1.16,1.16,0,0,1,21,204.2c2.73-.88,6.05-.2,7.48,1.71C29.51,207.16,30.14,209.06,30.44,211.94Zm-2.29.24a10.18,10.18,0,0,0-1.4-4.86c-1.06-1.21-3.58-1.55-5.34-.81l2.12,20.8c2.22-.4,3.74-1,4.57-2.52A7.66,7.66,0,0,0,29,220Z"/><path class="cls-3" d="M49.27,225.78A1.15,1.15,0,0,1,47,226l-.58-4.51c-.88,3.92-2.48,6.11-4.77,6.23-3.31.21-6.33-4.48-6.87-10.44-.41-4.66.11-8.42,1.61-11.16A7.43,7.43,0,0,1,41.61,202a5.2,5.2,0,0,1,2.53.2,1.15,1.15,0,0,1,2.26,0ZM45.05,210l-.58-4.55v0c-.47-2.35-4.59-1.21-6.12,1.74-1.24,2.37-1.67,5.74-1.3,9.84.39,4.4,2.5,8.44,4.46,8.35C45,225.47,45.19,211.59,45.05,210Z"/><path class="cls-3" d="M61.5,205.69a1.16,1.16,0,0,1-2.31-.17c.22-2.14-.65-3.49-2.18-3.37a3.31,3.31,0,0,0-2.84,3.54l1.52,20.16c.13,1.66-2.18,1.57-2.29.18l-1.9-24.61a1.15,1.15,0,0,1,2.29-.22v0a4.7,4.7,0,0,1,3.05-1.38A4.08,4.08,0,0,1,60.08,201,6,6,0,0,1,61.5,205.69Z"/><path class="cls-3" d="M77.72,223.71a1.15,1.15,0,0,1-2.29.19L75,219.38c-1,3.89-2.63,6-4.93,6.11-3.31.13-6.22-4.62-6.61-10.6-.3-4.66.31-8.4,1.88-11.1a7.37,7.37,0,0,1,5.31-4,5.11,5.11,0,0,1,2.53.26,1.14,1.14,0,0,1,2.26.06Zm-3.84-15.84-.47-4.57v0c-.41-2.36-4.56-1.32-6.16,1.6-1.29,2.34-1.8,5.69-1.53,9.8.29,4.41,2.3,8.5,4.26,8.45C73.48,223.3,74,209.43,73.88,207.87Z"/><path class="cls-3" d="M96.84,208.76a16.12,16.12,0,0,1,4.49,8.73,6.8,6.8,0,0,1-1.78,5.74c-2.23,2.19-5.91,1-7.25-2.39-1-2.16-1-4.46.07-5.66.84-1.1,2.69.26,1.73,1.54-.4.44-.29,2,.24,3.22.89,1.87,2.63,2.68,3.57,1.7a4.73,4.73,0,0,0,1.13-4,14.28,14.28,0,0,0-3.83-7.26c-1.83-1.88-3.84-3.91-4.16-6.19a5.15,5.15,0,0,1,1.85-5c2.55-2,6.37-1.41,7.38,1.27a4.65,4.65,0,0,1-.14,3.37,1.15,1.15,0,1,1-2-1.06,2.27,2.27,0,0,0,.06-1.53c-.44-1.13-2.57-1.33-3.84-.25a2.83,2.83,0,0,0-1,2.86C93.57,205.3,95.14,207,96.84,208.76Z"/><path class="cls-3" d="M107.2,194.14a1.32,1.32,0,0,1-1.09,1.45,1.18,1.18,0,0,1-1.37-1.14l-.24-1.86a1.16,1.16,0,0,1,1-1.4,1.07,1.07,0,0,1,1.36,1C107,193,107.14,193.64,107.2,194.14Zm.89,28a1.28,1.28,0,0,1-1.18,1.36,1.33,1.33,0,0,1-1.28-1.27c-.14-3.48-.64-18.43-.78-21.95a1.29,1.29,0,0,1,1.18-1.37,1.23,1.23,0,0,1,1.28,1.27C107.45,203.71,108,218.66,108.09,222.14Z"/><path class="cls-3" d="M135.67,221.94a1.13,1.13,0,1,1-2.25-.06,159.55,159.55,0,0,0-.39-17.29A14.55,14.55,0,0,0,132,200.2a3.25,3.25,0,0,0-4.79-1.14,6.28,6.28,0,0,0-2.16,3.33c.14.72.25,1.52.31,2.2.44,3.56.53,8.15.41,17.71a1.15,1.15,0,0,1-2.3-.15c.1-7,.14-13.18-.4-17.28a12.46,12.46,0,0,0-1.05-4.39,3.24,3.24,0,0,0-4.83-1.1,5.43,5.43,0,0,0-2.08,3.33l.8,19.74a1.15,1.15,0,1,1-2.29.06l-1-24.37a1.15,1.15,0,0,1,2.29-.06v.17a5.33,5.33,0,0,1,1-.84,5.56,5.56,0,0,1,8,1.82,6,6,0,0,1,2-2.09,6.54,6.54,0,0,1,5.17-.66c2.4.66,3.74,3.17,4.25,7.84C135.86,208.59,135.77,214.8,135.67,221.94Z"/><path class="cls-3" d="M150.48,205.56l.12,7.82a10.55,10.55,0,0,1-1.7,6.11c-1.37,2-3.61,2.85-6.63,3.07l.19,7a1.15,1.15,0,0,1-2.3,0l-.51-31.88a1.16,1.16,0,0,1,2.12-.66c2.8-.64,6,.33,7.3,2.35C150,200.72,150.44,202.67,150.48,205.56Zm-2.29,0a10.31,10.31,0,0,0-1-5c-.95-1.3-3.43-1.86-5.25-1.28l.27,20.91c2.25-.2,3.82-.69,4.77-2.11a7.63,7.63,0,0,0,1.29-4.74Z"/><path class="cls-3" d="M154.56,221.16c-.08-.34-.09-1.15-.19-2.93,0-1.62,0-3.91.08-6.76.23-14.16.32-13.1-.25-21a1.23,1.23,0,0,1,1-1.32,1.17,1.17,0,0,1,1.33,1,173,173,0,0,1,.24,20.49c-.12,5.82,0,9.26,0,9.26,0,1,.44,2.34-1.05,2.35A1.38,1.38,0,0,1,154.56,221.16Z"/><path class="cls-3" d="M164.65,192.93a1.32,1.32,0,0,1-1.15,1.4,1.17,1.17,0,0,1-1.32-1.18l-.17-1.87a1.15,1.15,0,0,1,1.06-1.36,1.06,1.06,0,0,1,1.32,1C164.48,191.74,164.6,192.42,164.65,192.93Zm-.13,28a1.28,1.28,0,0,1-1.23,1.32,1.35,1.35,0,0,1-1.24-1.32c0-3.48,0-18.43,0-22a1.28,1.28,0,0,1,1.23-1.32,1.23,1.23,0,0,1,1.24,1.31C164.55,202.49,164.51,217.44,164.52,220.93Z"/><path class="cls-3" d="M170.25,228.17c0-.64-.17-9.95-.19-18.15a1.2,1.2,0,0,1,0-1.66c0-3.31-.28-6.79,1.43-9.08,1.24-1.65,3.54-2.58,7.75-2.57a1.17,1.17,0,0,1,0,2.34c-1.36.12-3.66-.05-5.19,1a3.68,3.68,0,0,0-1.5,3.31c-.09,1.48-.14,3.1-.14,4.72h4.24a1.18,1.18,0,0,1,1.19,1.15,1.22,1.22,0,0,1-1.19,1.19l-4.21,0c0,3.4,0,7,.05,10,0,4.37.1,7.65.1,7.73a1.15,1.15,0,0,1-1.15,1.19h0A1.12,1.12,0,0,1,170.25,228.17Z"/><path class="cls-3" d="M187.36,221a1.28,1.28,0,0,1-1.25,1.31,1.36,1.36,0,0,1-1.22-1.33c0-3.49.27-18.44.31-22a1.27,1.27,0,0,1,1.24-1.3,1.21,1.21,0,0,1,1.22,1.32C187.63,202.55,187.39,217.51,187.36,221Zm.49-28a1.32,1.32,0,0,1-1.16,1.39,1.16,1.16,0,0,1-1.3-1.2l-.16-1.87a1.17,1.17,0,0,1,1.08-1.35,1.06,1.06,0,0,1,1.31,1C187.69,191.8,187.82,192.48,187.85,193Z"/><path class="cls-3" d="M204.22,203.93a1.16,1.16,0,0,1-2.3-.12v0c0-2.72-.16-3.75-.9-4.74s-2.71-1-4,.11c-1.86,1.67-2.9,5.56-2.86,10.92a23.59,23.59,0,0,0,1.07,7.07,7.32,7.32,0,0,0,2.29,3.31c1.51.92,3.06-.29,3.4-2.62a7,7,0,0,0,0-2.51,1.17,1.17,0,0,1,1-1.21,1.06,1.06,0,0,1,1.3.91,9.86,9.86,0,0,1,0,3.23,5.54,5.54,0,0,1-3.09,4.37,3.76,3.76,0,0,1-3.87-.32,8.25,8.25,0,0,1-3.11-4.39,23.16,23.16,0,0,1-1.28-7.88c0-6,1.24-10.35,3.65-12.53a5.73,5.73,0,0,1,4.41-1.41,4.48,4.48,0,0,1,3.85,3.42A10.68,10.68,0,0,1,204.22,203.93Z"/><path class="cls-3" d="M220.42,221.67a1.15,1.15,0,0,1-2.29,0l0-4.55c-1.34,3.79-3.17,5.79-5.47,5.64-3.31-.17-5.77-5.16-5.62-11.15.13-4.68,1.07-8.35,2.88-10.9a7.4,7.4,0,0,1,5.66-3.5,5.08,5.08,0,0,1,2.5.48,1.14,1.14,0,0,1,2.24.27ZM218,205.54,218,201v0c-.19-2.39-4.42-1.73-6.27,1-1.51,2.21-2.31,5.51-2.42,9.63-.11,4.41,1.52,8.66,3.47,8.8C216.24,220.88,218,207.11,218,205.54Z"/><path class="cls-3" d="M234.79,203a1.16,1.16,0,0,1-2.29-.42c.46-2.11-.26-3.54-1.79-3.59a3.3,3.3,0,0,0-3.21,3.2l-.69,20.23a1.15,1.15,0,0,1-2.3-.08l.8-24.69a1.15,1.15,0,0,1,2.3,0v0a4.73,4.73,0,0,1,3.18-1,4.08,4.08,0,0,1,3.1,1.51A6,6,0,0,1,234.79,203Z"/><path class="cls-3" d="M252,203.4c-1.55,2.19-2.43,5.46-2.62,9.58-.21,4.41,1.33,8.7,3.28,8.87,3.46.51,5.52-13.22,5.59-14.79l.05-4.59v0C258.18,200.12,253.94,200.69,252,203.4Z"/><path class="cls-3" d="M255.26,194A17.15,17.15,0,1,0,272,211.15,17,17,0,0,0,255.26,194Zm5.06,29.23a1.15,1.15,0,0,1-2.29-.06l0-4.55c-1.41,3.76-3.29,5.71-5.57,5.52-3.31-.24-5.67-5.29-5.38-11.27.22-4.67,1.24-8.32,3.1-10.83a7.37,7.37,0,0,1,5.73-3.38,5.06,5.06,0,0,1,2.49.54,1.15,1.15,0,0,1,2.24.32Z"/><path class="cls-3" d="M286.68,227.13c-.53,3-1.55,5.14-3.11,6.24-2.29,1.82-6.37,1-8.2-1a3.94,3.94,0,0,1-.83-3.8,1.17,1.17,0,0,1,1.41-.72,1.23,1.23,0,0,1,.8,1.46,1.76,1.76,0,0,0,.45,1.6c1.45,1.45,4.29,1.67,5.67,0,.87-1,1.45-2.76,1.8-5.72a5,5,0,0,1-3.8.87c-2.36-.4-4.2-2.39-4.87-5.24a29.11,29.11,0,0,1-.91-8c.25-6.21,1.72-10.63,4.23-12.73a5.64,5.64,0,0,1,4.47-1.26,3.62,3.62,0,0,1,2,.9,1.12,1.12,0,0,1,1-.49,1.18,1.18,0,0,1,1.12,1.22c0,.5-.56,14.53-.55,15.72A65.07,65.07,0,0,1,286.68,227.13Zm-1.53-13.81c.11-3.06.22-6.37.34-8.92.27-3.05-2.63-4.25-4.7-2.55s-3.19,5.56-3.41,11.08a25,25,0,0,0,.74,7.28c.64,2,1.76,3.31,3.15,3.56a3,3,0,0,0,3.35-2.56A66,66,0,0,0,285.15,213.32Z"/><path class="cls-3" d="M304.72,219.94c-.25,3.43-1.66,5.89-3.94,6.87a6.26,6.26,0,0,1-2.72.45c-4.53-.32-6.7-5.8-6-14.49.3-4.87,1.49-8.41,3.49-10.23a6.24,6.24,0,0,1,8.31-.09c2,1.89,2.21,4.93,2,8.15-.12,1.7-1.44,3-3.8,3.74s-6.2.92-7.73.38a21.68,21.68,0,0,0,.09,3.54c.49,3.87,1.43,6.15,3.4,6.64,2.47.6,4.41-1.44,4.66-5.08.05-.64,0-2,1.37-1.83C305,218.16,304.76,219.26,304.72,219.94Zm-10.38-7.55c2.79,1,9.05-.21,9.18-1.95a13.23,13.23,0,0,0-.24-4.53,3.84,3.84,0,0,0-6.22-1.77C295.28,205.85,294.61,209.21,294.34,212.39Z"/><path class="cls-3" d="M315.55,212.87a16.07,16.07,0,0,1,3.36,9.22,6.8,6.8,0,0,1-2.47,5.47c-2.5,1.89-6,.21-6.91-3.27-.71-2.27-.41-4.55.79-5.61,1-1,2.63.59,1.52,1.74-.45.39-.53,1.92-.17,3.23.66,2,2.28,3,3.33,2.14a4.75,4.75,0,0,0,1.63-3.88,14.42,14.42,0,0,0-2.89-7.69c-1.59-2.08-3.33-4.35-3.36-6.65a5.12,5.12,0,0,1,2.46-4.71c2.77-1.7,6.48-.6,7.16,2.18a4.68,4.68,0,0,1-.56,3.32,1.15,1.15,0,1,1-1.9-1.3,2.35,2.35,0,0,0,.25-1.51c-.3-1.18-2.39-1.64-3.78-.73a2.82,2.82,0,0,0-1.33,2.71C312.74,209,314.08,210.93,315.55,212.87Z"/><path class="cls-3" d="M335.5,204.33v0a1.24,1.24,0,0,1-1.25,1.09l-4.42-.16c-1,7.93-1.57,15.43-1.64,18.24l-.19,4.8a1.15,1.15,0,0,1-2.29-.15l.18-4.68c.08-2.93.67-10.39,1.65-18.32l-3.1-.14a1.15,1.15,0,0,1,.06-2.3l3.28.11c.24-1.85.49-3.75.81-5.56a1.1,1.1,0,0,1,1.32-1,1.24,1.24,0,0,1,1,1.31c-.32,1.77-.56,3.54-.8,5.35l4.29.2A1.13,1.13,0,0,1,335.5,204.33Z"/><path class="cls-3" d="M352.85,228.29c-1.29-3.33-.94-9.36-.28-12.92.73-3.86,1.47-6.94,4-8.56a6.49,6.49,0,0,1,7.71,1c2,2.34,1.79,10.68.64,15.73-.86,3.85-2.13,6.37-3.88,7.6C358.29,233.2,354.21,231.76,352.85,228.29Zm10.48-9.88c.33-3.33.13-7.33-.84-9.09-.69-1.22-3.41-1.32-4.69-.47-1.51,1-2.36,3-2.92,6.92-.32,2.36-1.07,8.95.12,11.54,1,2.15,3.28,3.07,4.71,2C361.33,228.08,362.47,224.78,363.33,218.41Z"/><text class="cls-4" transform="matrix(1, 0.05, -0.05, 1, 152.54, 261.38)">d</text><text class="cls-4" transform="translate(169.66 262.19) rotate(0.15)">o</text><text class="cls-4" transform="matrix(1, -0.03, 0.03, 1, 186.7, 262.16)"> </text><text class="cls-4" transform="matrix(1, -0.06, 0.06, 1, 196.26, 261.89)">s</text><text class="cls-4" transform="translate(209.62 261.16) rotate(-4.99)">e</text><text class="cls-4" transform="translate(225.8 259.74) rotate(-6.66)">u</text><text class="cls-5" transform="translate(25.94 175.84) rotate(-8.49)">T</text><text class="cls-5" transform="matrix(1, -0.09, 0.09, 1, 68.3, 169.75)">e</text><text class="cls-5" transform="translate(92.61 167.54) rotate(-2.43)">c</text><text class="cls-5" transform="translate(116.39 166.22) rotate(1.63)">n</text><text class="cls-5" transform="translate(152.97 167.25) rotate(7.31)">o</text><text class="cls-5" transform="translate(192.83 169.55) rotate(-4.21)">l</text><text class="cls-5" transform="matrix(1, -0.04, 0.04, 1, 211.38, 168.09)">ó</text><text class="cls-5" transform="translate(242.66 166.65) rotate(-0.17)">g</text><text class="cls-5" transform="translate(277.66 166.68) rotate(2.08)">i</text><text class="cls-5" transform="translate(296.34 167.28) rotate(4.26)">c</text><text class="cls-5" transform="translate(320.14 168.72) rotate(8.32)">a</text><text class="cls-5" transform="matrix(0.97, 0.25, -0.25, 0.97, 356.26, 174.01)">s</text><path class="cls-3" d="M58.05,339s158.81,78.28,266.17-15.66C324.22,323.36,228,433,58.05,339Z"/><path class="cls-3" d="M347.44,229a1,1,0,0,1-1.19,1,1.19,1.19,0,0,1-.77-.36,1.16,1.16,0,0,1-.31-.84l.25-4.5q-2.34,5.53-5.64,5.24a4.1,4.1,0,0,1-2.87-1.75,10.28,10.28,0,0,1-1.79-4.16,17.77,17.77,0,0,1-.3-5.5q.65-7,3.55-10.59a8.09,8.09,0,0,1,2.84-2.4,6.06,6.06,0,0,1,3.41-.7,4.94,4.94,0,0,1,2,.65,1,1,0,0,1,.48-.57,1.2,1.2,0,0,1,.73-.17,1.14,1.14,0,0,1,.75.34,1,1,0,0,1,.25.81Zm-4.61-4.38a37.87,37.87,0,0,0,2.26-6.68,41.31,41.31,0,0,0,1-5l.25-4.54v0a1.26,1.26,0,0,0-.45-1.1,2.32,2.32,0,0,0-1.27-.45,4.75,4.75,0,0,0-2.39.48A5.56,5.56,0,0,0,340.1,209q-2.44,3.12-3,9.36a16.44,16.44,0,0,0,.13,4.16,9.66,9.66,0,0,0,1.07,3.33,2.48,2.48,0,0,0,1.66,1.45Q341.49,227.64,342.83,224.66Z"/><path class="cls-3" d="M340.46,201.27h0a2.56,2.56,0,0,1-.78-4.23l.16-.13a3.36,3.36,0,0,1,2.79-.73,3.46,3.46,0,0,1,1.36.55c.43.29.84.58,1.23.9l1.1.87a2.21,2.21,0,0,0,.94.48.92.92,0,0,0,.87-.34,6.49,6.49,0,0,0,.93-1.6l0,0a2.56,2.56,0,0,1,.82,4.19l-.18.16a3.16,3.16,0,0,1-2.68.75,3.4,3.4,0,0,1-1.36-.55,13.86,13.86,0,0,1-1.23-.9l-1.1-.87a2.26,2.26,0,0,0-.94-.48,1.12,1.12,0,0,0-1,.32A4.9,4.9,0,0,0,340.46,201.27Z"/></g></g></svg>