<svg xmlns="http://www.w3.org/2000/svg" viewBox="0 0 88.55 95.79"><defs><style>.cls-1{fill:#fff;}</style></defs><title>Logotipo-Rede-Ideia</title><g id="Camada_2" data-name="Camada 2"><g id="Capa_1" data-name="Capa 1"><path class="cls-1" d="M50.6,95.65H48.38a.29.29,0,0,1-.3-.32V84.06a.29.29,0,0,1,.3-.31H50.6a.31.31,0,0,1,.32.31V95.33a.32.32,0,0,1-.32.32"/><path class="cls-1" d="M57.25,95.79a26.32,26.32,0,0,1-3.53-.23.49.49,0,0,1-.48-.57V84.41a.49.49,0,0,1,.48-.56,26,26,0,0,1,3.53-.24c3.3,0,5.29,1.68,5.29,5.06v2.07c0,3.37-2,5.05-5.29,5.05m2.46-7.12h0c0-2.16-1-2.74-2.46-2.74-.41,0-.94,0-1.18,0v7.48c.24,0,.77,0,1.18,0,1.49,0,2.46-.57,2.46-2.73Z"/><path class="cls-1" d="M71.75,95.59a20.69,20.69,0,0,1-3.22.2c-2.14,0-4-.52-4-3.44V87c0-2.92,1.91-3.43,4-3.43a19.88,19.88,0,0,1,3.2.21c.23,0,.33.11.33.32v1.49a.33.33,0,0,1-.33.32H68.38c-.78,0-1.06.25-1.06,1.09v1.45h4.3a.33.33,0,0,1,.33.32v1.53a.33.33,0,0,1-.33.32h-4.3v1.69c0,.84.28,1.09,1.06,1.09h3.37a.33.33,0,0,1,.33.32v1.49c0,.21-.1.31-.33.34"/><path class="cls-1" d="M76.69,95.65H74.47a.3.3,0,0,1-.3-.32V84.06a.29.29,0,0,1,.3-.31h2.22a.31.31,0,0,1,.32.31V95.33a.32.32,0,0,1-.32.32"/><path class="cls-1" d="M88.22,95.65H86a.3.3,0,0,1-.3-.32V91.44h-3.6v3.89a.31.31,0,0,1-.31.32H79.63a.33.33,0,0,1-.34-.32V87.17c0-2.89,1.81-3.53,4-3.53h1.22c2.22,0,4,.64,4,3.53v8.16a.32.32,0,0,1-.33.32m-2.49-8.48h0c0-.89-.26-1.16-1.19-1.16H83.32c-.91,0-1.19.27-1.19,1.16v2h3.6Z"/><path class="cls-1" d="M18.48,95.49a20.21,20.21,0,0,1-3.22.21c-2.14,0-4-.53-4-3.44V86.94c0-2.91,1.91-3.43,4-3.43a19.88,19.88,0,0,1,3.2.21c.23,0,.33.11.33.32v1.49a.32.32,0,0,1-.33.32H15.11c-.78,0-1.06.26-1.06,1.09V88.4h4.29a.33.33,0,0,1,.34.32v1.52a.33.33,0,0,1-.34.32H14.05v1.7c0,.83.28,1.08,1.06,1.08h3.37a.33.33,0,0,1,.33.33v1.48c0,.21-.1.31-.33.34"/><path class="cls-1" d="M24.91,95.7a26.13,26.13,0,0,1-3.53-.24.49.49,0,0,1-.48-.56V84.32a.49.49,0,0,1,.48-.57,26.13,26.13,0,0,1,3.53-.24c3.3,0,5.29,1.69,5.29,5.06v2.07c0,2.5-1.09,4.07-3,4.72a7.09,7.09,0,0,1-2.3.34m2.46-7.13h0c0-2.16-1-2.73-2.46-2.73-.41,0-.94,0-1.17,0v7.47c.23,0,.76,0,1.17,0,1.5,0,2.46-.58,2.46-2.74Z"/><path class="cls-1" d="M39.41,95.49c-3,.42-7.25.84-7.25-3.23V86.94c0-2.91,1.91-3.43,4.05-3.43a19.88,19.88,0,0,1,3.2.21c.23,0,.33.11.33.32v1.49a.32.32,0,0,1-.33.32H36c-.78,0-1.06.26-1.06,1.09V88.4h4.3a.32.32,0,0,1,.33.32v1.52a.32.32,0,0,1-.33.32H35v1.7c0,.83.28,1.08,1.06,1.08h3.37a.33.33,0,0,1,.33.33v1.48c0,.21-.1.31-.33.34"/><path class="cls-1" d="M9.27,95.55H6.73c-.18,0-.24-.16-.33-.32l-2.22-4L4,91.2l-1.18,0v4.06a.32.32,0,0,1-.33.32H.33A.32.32,0,0,1,0,95.23V84.49c0-.54.23-.69.75-.77a27.44,27.44,0,0,1,3.36-.21c2.82,0,5,.92,5,3.75v.21A3.22,3.22,0,0,1,7,90.67l2.5,4.52a.41.41,0,0,1,0,.17c0,.11-.07.19-.25.19m-3-8.29h0c0-1-.78-1.42-2.18-1.42l-1.29,0C2.82,87.93,2.12,89,4,89s2.29-.43,2.29-1.52Z"/><path class="cls-1" d="M52.19,61.43H36.58a1.08,1.08,0,0,0,0,2.16H52.19a1.08,1.08,0,0,0,0-2.16"/><path class="cls-1" d="M52.34,64.85H36.73a1.08,1.08,0,0,0,0,2.16H52.34a1.08,1.08,0,0,0,0-2.16"/><path class="cls-1" d="M47.34,68.35H41.59a1.08,1.08,0,0,0,0,2.16h5.75a1.08,1.08,0,0,0,0-2.16"/><path class="cls-1" d="M44,0V2.06a6,6,0,0,1,3.67,1.22L81.17,27.84a6.12,6.12,0,0,1,2.12,6.91L70.93,70.46a6.13,6.13,0,0,1-5.79,4.12H23.51a6.15,6.15,0,0,1-5.74-4L4.48,34.93A6.15,6.15,0,0,1,6.65,27.8L40.41,3.2A6.16,6.16,0,0,1,44,2.06V0m0,0a8.2,8.2,0,0,0-4.75,1.52L5.46,26.13a8.18,8.18,0,0,0-2.92,9.52l13.3,35.67a8.19,8.19,0,0,0,7.67,5.32H65.14a8.19,8.19,0,0,0,7.74-5.51L85.24,35.42a8.18,8.18,0,0,0-2.84-9.23L48.88,1.63A8.16,8.16,0,0,0,44,0Z"/><g id="Lampada"><path class="cls-1" d="M45.17,57.64H43.52l0-11.26a.87.87,0,0,1,.1-.39L51,32.46V21.17h1.65v11.5a.86.86,0,0,1-.09.39L45.21,46.59Z"/><path class="cls-1" d="M50,21a1.74,1.74,0,1,0,1.74-1.74A1.74,1.74,0,0,0,50,21Z"/><path class="cls-1" d="M45.27,26.34A1.74,1.74,0,1,0,47,24.6,1.74,1.74,0,0,0,45.27,26.34Z"/><path class="cls-1" d="M52.4,36.63a1.74,1.74,0,1,0,1.74-1.74A1.74,1.74,0,0,0,52.4,36.63Z"/><path class="cls-1" d="M57.8,28.82a1.74,1.74,0,1,0,1.74-1.74A1.74,1.74,0,0,0,57.8,28.82Z"/><path class="cls-1" d="M47.83,39.16l-1.46-1.74a.86.86,0,0,1-.19-.53v-10h1.65v9.74l1.27,1.52Z"/><path class="cls-1" d="M50.79,57.64H49.14V50.27a.87.87,0,0,1,.19-.54l4-4.64V36.63H55v8.76a.82.82,0,0,1-.2.54l-4,4.65Z"/><path class="cls-1" d="M50.58,50.81l-1.24-1.08L58.72,39V28.82h1.65V39.3a.83.83,0,0,1-.21.54Z"/><path class="cls-1" d="M43.05,57.64l0-11-4-5.49a.78.78,0,0,1-.16-.49V37.48l-4.09-7.77a.86.86,0,0,1-.09-.39V21.44H36.3v7.68l4.08,7.77a.75.75,0,0,1,.1.38V40.4l4,5.49a.84.84,0,0,1,.16.49l0,11.26Z"/><path class="cls-1" d="M37.21,21.44a1.74,1.74,0,1,1-1.74-1.74A1.73,1.73,0,0,1,37.21,21.44Z"/><path class="cls-1" d="M44.36,15.14a1.75,1.75,0,1,1-1.75-1.74A1.74,1.74,0,0,1,44.36,15.14Z"/><path class="cls-1" d="M35.82,35.76A1.74,1.74,0,1,1,34.08,34,1.74,1.74,0,0,1,35.82,35.76Z"/><path class="cls-1" d="M30.42,28.82a1.74,1.74,0,1,1-1.74-1.74A1.74,1.74,0,0,1,30.42,28.82Z"/><path class="cls-1" d="M40.36,37.69l-1.42-.84L41.82,32l0-15.7h1.65l0,15.93a.76.76,0,0,1-.12.42Z"/><path class="cls-1" d="M39.08,57.64H37.44V50.58l-4-4.65a.82.82,0,0,1-.2-.54V35.76H34.9v9.33l4,4.64a.87.87,0,0,1,.19.54Z"/><path class="cls-1" d="M37.64,50.81l-9.58-11a.83.83,0,0,1-.21-.54V28.82H29.5V39l9.38,10.74Z"/></g></g></g></svg>