<svg xmlns="http://www.w3.org/2000/svg" viewBox="0 0 111.36 102.46"><defs><style>.cls-1{fill:#fff;}</style></defs><title>Simbolo-Rede-Ideia</title><g id="Camada_2" data-name="Camada 2"><g id="Capa_1" data-name="Capa 1"><path class="cls-1" d="M66.77,82.12H46A1.44,1.44,0,0,0,46,85H66.77a1.44,1.44,0,0,0,0-2.88"/><path class="cls-1" d="M67,86.7H46.19a1.44,1.44,0,0,0,0,2.88H67a1.44,1.44,0,0,0,0-2.88"/><path class="cls-1" d="M60.32,91.38H52.66a1.44,1.44,0,0,0,0,2.88h7.66a1.44,1.44,0,0,0,0-2.88"/><path class="cls-1" d="M55.84,0V2.76a8,8,0,0,1,4.88,1.63l44.63,32.83a8.18,8.18,0,0,1,2.82,9.23L91.72,94.19A8.17,8.17,0,0,1,84,99.7H28.6A8.18,8.18,0,0,1,21,94.37L3.26,46.69a8.21,8.21,0,0,1,2.9-9.52L51.1,4.28a8.06,8.06,0,0,1,4.74-1.52V0m0,0A10.88,10.88,0,0,0,49.5,2L4.57,34.93A11,11,0,0,0,.69,47.66l17.7,47.67a10.9,10.9,0,0,0,10.21,7.13H84a10.9,10.9,0,0,0,10.3-7.37l16.45-47.74A11,11,0,0,0,107,35L62.36,2.18A10.83,10.83,0,0,0,55.84,0Z"/><g id="Lampada"><path class="cls-1" d="M57.43,77.05h-2.2l.06-15a1,1,0,0,1,.13-.52l9.75-18.09V28.31h2.2V43.67a1.08,1.08,0,0,1-.14.53L57.48,62.28Z"/><path class="cls-1" d="M63.88,28.12A2.32,2.32,0,1,0,66.2,25.8,2.32,2.32,0,0,0,63.88,28.12Z"/><path class="cls-1" d="M57.56,35.21a2.32,2.32,0,1,0,2.32-2.33A2.32,2.32,0,0,0,57.56,35.21Z"/><path class="cls-1" d="M67.05,49a2.32,2.32,0,1,0,2.32-2.33A2.32,2.32,0,0,0,67.05,49Z"/><path class="cls-1" d="M74.24,38.52a2.32,2.32,0,1,0,2.32-2.33A2.32,2.32,0,0,0,74.24,38.52Z"/><path class="cls-1" d="M61,52.35,59,50a1.14,1.14,0,0,1-.25-.71V35.89H61v13l1.69,2Z"/><path class="cls-1" d="M64.9,77.05H62.71V67.2a1.09,1.09,0,0,1,.26-.71l5.3-6.21V49h2.2V60.68a1.06,1.06,0,0,1-.27.72l-5.3,6.21Z"/><path class="cls-1" d="M64.63,67.93,63,66.48,75.46,52.12V38.52h2.2v14a1.13,1.13,0,0,1-.27.73Z"/><path class="cls-1" d="M54.61,77.05l-.06-14.69L49.2,55a1.07,1.07,0,0,1-.21-.65V50.1L43.55,39.71a1.14,1.14,0,0,1-.13-.51V28.66h2.2V38.93l5.44,10.38a1.17,1.17,0,0,1,.12.52V54l5.36,7.34a1.14,1.14,0,0,1,.21.65l.06,15Z"/><path class="cls-1" d="M46.84,28.66a2.32,2.32,0,1,1-2.32-2.33A2.32,2.32,0,0,1,46.84,28.66Z"/><path class="cls-1" d="M56.35,20.24A2.32,2.32,0,1,1,54,17.91,2.32,2.32,0,0,1,56.35,20.24Z"/><path class="cls-1" d="M45,47.8a2.32,2.32,0,1,1-2.32-2.33A2.32,2.32,0,0,1,45,47.8Z"/><path class="cls-1" d="M37.8,38.52a2.32,2.32,0,1,1-2.32-2.33A2.32,2.32,0,0,1,37.8,38.52Z"/><path class="cls-1" d="M51,50.39l-1.89-1.13L53,42.79l0-21h2.2l0,21.3a1.09,1.09,0,0,1-.15.56Z"/><path class="cls-1" d="M49.33,77.05h-2.2V67.61l-5.3-6.21a1.1,1.1,0,0,1-.26-.72V47.8h2.19V60.28l5.31,6.21a1.09,1.09,0,0,1,.26.71Z"/><path class="cls-1" d="M47.4,67.93,34.65,53.26a1.13,1.13,0,0,1-.27-.73v-14h2.2v13.6L49.06,66.48Z"/></g></g></g></svg>