<svg width="169" height="142" viewBox="0 0 169 142" fill="none" xmlns="http://www.w3.org/2000/svg">
<path d="M17.53 83.1929C17.7447 65.6774 24.8533 48.9522 37.3152 36.6421C49.7771 24.332 66.5882 17.4289 84.105 17.4289C101.622 17.4289 118.433 24.332 130.895 36.6421C143.357 48.9522 150.465 65.6774 150.68 83.1929V83.3529H168.21V83.1929C167.969 61.0457 159.001 39.8876 143.255 24.3119C127.508 8.73615 106.254 0 84.105 0C61.9565 0 40.7019 8.73615 24.9554 24.3119C9.20888 39.8876 0.241498 61.0457 0 83.1929V83.3529H17.53V83.1929Z" fill="#96D733"/>
<path d="M89.0904 141.405C121.139 138.841 145.042 110.782 142.478 78.7325C139.914 46.6834 111.855 22.781 79.8056 25.3449C47.7565 27.9088 23.8541 55.9682 26.418 88.0173C28.9819 120.066 57.0413 143.969 89.0904 141.405Z" fill="#567A93"/>
<path d="M89.0904 141.405C121.139 138.841 145.042 110.782 142.478 78.7325C139.914 46.6834 111.855 22.781 79.8056 25.3449C47.7565 27.9088 23.8541 55.9682 26.418 88.0173C28.9819 120.066 57.0413 143.969 89.0904 141.405Z" fill="#96D733"/>
<path d="M50.072 92.0169C50.888 91.3689 51.26 91.0689 51.188 91.1169C53.54 89.1729 55.388 87.5769 56.732 86.3289C58.1 85.0809 59.252 83.7729 60.188 82.4049C61.124 81.0369 61.592 79.7049 61.592 78.4089C61.592 77.4249 61.364 76.6569 60.908 76.1049C60.452 75.5529 59.768 75.2769 58.856 75.2769C57.944 75.2769 57.224 75.6249 56.696 76.3209C56.192 76.9929 55.94 77.9529 55.94 79.2009H50C50.048 77.1609 50.48 75.4569 51.296 74.0889C52.136 72.7209 53.228 71.7129 54.572 71.0649C55.94 70.4169 57.452 70.0929 59.108 70.0929C61.964 70.0929 64.112 70.8249 65.552 72.2889C67.016 73.7529 67.748 75.6609 67.748 78.0129C67.748 80.5809 66.872 82.9689 65.12 85.1769C63.368 87.3609 61.136 89.4969 58.424 91.5849H68.144V96.5889H50.072V92.0169Z" fill="white"/>
<path d="M70.8544 83.4489C70.8544 79.3209 71.6464 76.0689 73.2304 73.6929C74.8384 71.3169 77.4184 70.1289 80.9704 70.1289C84.5224 70.1289 87.0904 71.3169 88.6744 73.6929C90.2824 76.0689 91.0864 79.3209 91.0864 83.4489C91.0864 87.6249 90.2824 90.9009 88.6744 93.2769C87.0904 95.6529 84.5224 96.8409 80.9704 96.8409C77.4184 96.8409 74.8384 95.6529 73.2304 93.2769C71.6464 90.9009 70.8544 87.6249 70.8544 83.4489ZM85.0384 83.4489C85.0384 81.0249 84.7744 79.1649 84.2464 77.8689C83.7184 76.5489 82.6264 75.8889 80.9704 75.8889C79.3144 75.8889 78.2224 76.5489 77.6944 77.8689C77.1664 79.1649 76.9024 81.0249 76.9024 83.4489C76.9024 85.0809 76.9984 86.4369 77.1904 87.5169C77.3824 88.5729 77.7664 89.4369 78.3424 90.1089C78.9424 90.7569 79.8184 91.0809 80.9704 91.0809C82.1224 91.0809 82.9864 90.7569 83.5624 90.1089C84.1624 89.4369 84.5584 88.5729 84.7504 87.5169C84.9424 86.4369 85.0384 85.0809 85.0384 83.4489Z" fill="white"/>
<path d="M93.6908 76.3929V70.6689H103.663V96.9489H97.2548V76.3929H93.6908Z" fill="white"/>
<path d="M107.226 76.3929V70.6689H117.198V96.9489H110.79V76.3929H107.226Z" fill="white"/>
</svg>
