<svg width="169" height="143" viewBox="0 0 169 143" fill="none" xmlns="http://www.w3.org/2000/svg">
<path d="M17.53 84.1C17.7447 66.5845 24.8533 49.8593 37.3152 37.5492C49.7771 25.2391 66.5882 18.336 84.105 18.336C101.622 18.336 118.433 25.2391 130.895 37.5492C143.357 49.8593 150.465 66.5845 150.68 84.1V84.26H168.21V84.1C167.969 61.9528 159.001 40.7947 143.255 25.219C127.508 9.64325 106.254 0.907104 84.105 0.907104C61.9565 0.907104 40.7019 9.64325 24.9554 25.219C9.20888 40.7947 0.241498 61.9528 0 84.1V84.26H17.53V84.1Z" fill="#5BC67A"/>
<path d="M89.0904 142.312C121.139 139.748 145.042 111.689 142.478 79.6396C139.914 47.5905 111.855 23.6881 79.8056 26.252C47.7565 28.8159 23.8541 56.8753 26.418 88.9244C28.9819 120.973 57.0413 144.876 89.0904 142.312Z" fill="#567A93"/>
<path d="M89.0904 142.312C121.139 139.748 145.042 111.689 142.478 79.6396C139.914 47.5905 111.855 23.6881 79.8056 26.252C47.7565 28.8159 23.8541 56.8753 26.418 88.9244C28.9819 120.973 57.0413 144.876 89.0904 142.312Z" fill="#5BC67A"/>
<path d="M46.072 91.96C46.888 91.312 47.26 91.012 47.188 91.06C49.54 89.116 51.388 87.52 52.732 86.272C54.1 85.024 55.252 83.716 56.188 82.348C57.124 80.98 57.592 79.648 57.592 78.352C57.592 77.368 57.364 76.6 56.908 76.048C56.452 75.496 55.768 75.22 54.856 75.22C53.944 75.22 53.224 75.568 52.696 76.264C52.192 76.936 51.94 77.896 51.94 79.144H46C46.048 77.104 46.48 75.4 47.296 74.032C48.136 72.664 49.228 71.656 50.572 71.008C51.94 70.36 53.452 70.036 55.108 70.036C57.964 70.036 60.112 70.768 61.552 72.232C63.016 73.696 63.748 75.604 63.748 77.956C63.748 80.524 62.872 82.912 61.12 85.12C59.368 87.304 57.136 89.44 54.424 91.528H64.144V96.532H46.072V91.96Z" fill="white"/>
<path d="M66.8544 83.392C66.8544 79.264 67.6464 76.012 69.2304 73.636C70.8384 71.26 73.4184 70.072 76.9704 70.072C80.5224 70.072 83.0904 71.26 84.6744 73.636C86.2824 76.012 87.0864 79.264 87.0864 83.392C87.0864 87.568 86.2824 90.844 84.6744 93.22C83.0904 95.596 80.5224 96.784 76.9704 96.784C73.4184 96.784 70.8384 95.596 69.2304 93.22C67.6464 90.844 66.8544 87.568 66.8544 83.392ZM81.0384 83.392C81.0384 80.968 80.7744 79.108 80.2464 77.812C79.7184 76.492 78.6264 75.832 76.9704 75.832C75.3144 75.832 74.2224 76.492 73.6944 77.812C73.1664 79.108 72.9024 80.968 72.9024 83.392C72.9024 85.024 72.9984 86.38 73.1904 87.46C73.3824 88.516 73.7664 89.38 74.3424 90.052C74.9424 90.7 75.8184 91.024 76.9704 91.024C78.1224 91.024 78.9864 90.7 79.5624 90.052C80.1624 89.38 80.5584 88.516 80.7504 87.46C80.9424 86.38 81.0384 85.024 81.0384 83.392Z" fill="white"/>
<path d="M89.6908 76.336V70.612H99.6628V96.892H93.2548V76.336H89.6908Z" fill="white"/>
<path d="M110.498 89.188C110.858 91.084 111.962 92.032 113.81 92.032C115.082 92.032 115.982 91.468 116.51 90.34C117.038 89.212 117.302 87.376 117.302 84.832C116.774 85.576 116.054 86.152 115.142 86.56C114.23 86.968 113.21 87.172 112.082 87.172C110.546 87.172 109.178 86.86 107.978 86.236C106.778 85.588 105.83 84.64 105.134 83.392C104.462 82.12 104.126 80.584 104.126 78.784C104.126 77.008 104.486 75.46 105.206 74.14C105.95 72.82 106.994 71.8 108.338 71.08C109.706 70.36 111.314 70 113.162 70C116.714 70 119.198 71.104 120.614 73.312C122.03 75.52 122.738 78.772 122.738 83.068C122.738 86.188 122.45 88.768 121.874 90.808C121.322 92.824 120.374 94.36 119.03 95.416C117.71 96.472 115.898 97 113.594 97C111.77 97 110.21 96.64 108.914 95.92C107.642 95.2 106.658 94.252 105.962 93.076C105.29 91.9 104.906 90.604 104.81 89.188H110.498ZM113.486 82.312C114.494 82.312 115.298 82.012 115.898 81.412C116.498 80.788 116.798 79.948 116.798 78.892C116.798 77.74 116.486 76.852 115.862 76.228C115.238 75.604 114.398 75.292 113.342 75.292C112.286 75.292 111.446 75.616 110.822 76.264C110.222 76.888 109.922 77.752 109.922 78.856C109.922 79.888 110.222 80.728 110.822 81.376C111.446 82 112.334 82.312 113.486 82.312Z" fill="white"/>
</svg>
