<svg xmlns="http://www.w3.org/2000/svg" viewBox="0 0 241.35 162.53"><defs><style>.cls-1{fill:#fff;}</style></defs><title>25 mil estabelecimentos</title><g id="Camada_2" data-name="Camada 2"><g id="Capa_1" data-name="Capa 1"><path class="cls-1" d="M7.68,162.53a7.48,7.48,0,0,1-3.9-1A7.69,7.69,0,0,1,1,158.71a7.78,7.78,0,0,1-1-4,8,8,0,0,1,1-3.95A7.45,7.45,0,0,1,3.58,148a6.89,6.89,0,0,1,3.71-1,6.74,6.74,0,0,1,3.7,1,7.14,7.14,0,0,1,2.52,2.76,8.43,8.43,0,0,1,.91,4v.81H3.33a5.37,5.37,0,0,0,.79,2.18,4.42,4.42,0,0,0,1.59,1.48,4.31,4.31,0,0,0,2.12.54,5.33,5.33,0,0,0,2-.37,4.27,4.27,0,0,0,1.57-1l2.22,2a9.69,9.69,0,0,1-2.8,1.67A9,9,0,0,1,7.68,162.53Zm-4.32-9.08h7.85a4.89,4.89,0,0,0-.73-1.92,4.14,4.14,0,0,0-1.38-1.32,3.53,3.53,0,0,0-1.81-.48,3.65,3.65,0,0,0-1.82.46,3.87,3.87,0,0,0-1.36,1.31A5.44,5.44,0,0,0,3.36,153.45Z"/><path class="cls-1" d="M22.79,162.53a11.78,11.78,0,0,1-3.58-.52,8.46,8.46,0,0,1-2.87-1.52l1.59-2.25a14.1,14.1,0,0,0,2.59,1.32,6.64,6.64,0,0,0,2.24.39,3.83,3.83,0,0,0,2.19-.57,1.71,1.71,0,0,0,.84-1.47,1.33,1.33,0,0,0-.5-1.09,3.62,3.62,0,0,0-1.6-.62l-2.64-.45a6.46,6.46,0,0,1-3.27-1.43,3.54,3.54,0,0,1-1.08-2.7,4.13,4.13,0,0,1,.74-2.45,4.88,4.88,0,0,1,2-1.62,7.33,7.33,0,0,1,3-.58,10.29,10.29,0,0,1,3,.45,11.73,11.73,0,0,1,2.88,1.35L26.84,151a8.92,8.92,0,0,0-2.27-1.1,7.65,7.65,0,0,0-2.26-.34,3.38,3.38,0,0,0-1.88.46,1.46,1.46,0,0,0-.7,1.28,1.31,1.31,0,0,0,.46,1.09,3.59,3.59,0,0,0,1.64.56l2.67.51a6.35,6.35,0,0,1,3.34,1.42,3.59,3.59,0,0,1,1.1,2.74,4.12,4.12,0,0,1-.81,2.49,5.57,5.57,0,0,1-2.19,1.76A7.36,7.36,0,0,1,22.79,162.53Z"/><path class="cls-1" d="M37.9,162.53a5,5,0,0,1-3.45-1.06,4,4,0,0,1-1.17-3.14v-8.42h-3v-2.7h3v-4.14l3.39-.72v4.86h4.17v2.7H36.67v7.67a2.15,2.15,0,0,0,.48,1.58,2.29,2.29,0,0,0,1.62.46,5.65,5.65,0,0,0,.95-.07,8.66,8.66,0,0,0,1.09-.29v2.85a7.64,7.64,0,0,1-1.42.32A11.41,11.41,0,0,1,37.9,162.53Z"/><path class="cls-1" d="M48.07,162.5a6.34,6.34,0,0,1-2.78-.58,4.55,4.55,0,0,1-1.89-1.62,4.28,4.28,0,0,1-.67-2.39,3.93,3.93,0,0,1,.7-2.34,4.68,4.68,0,0,1,2-1.53,8.09,8.09,0,0,1,3.06-.54,9.43,9.43,0,0,1,2.06.23,8.16,8.16,0,0,1,2,.73v-1.67a2.83,2.83,0,0,0-.85-2.25,3.85,3.85,0,0,0-2.59-.75,7.76,7.76,0,0,0-2,.28,15.64,15.64,0,0,0-2.38.89l-1.2-2.46A14.87,14.87,0,0,1,49.75,147a6.62,6.62,0,0,1,4.54,1.42,5.12,5.12,0,0,1,1.6,4v9.8H52.53v-1.56a6.47,6.47,0,0,1-2.07,1.38A6.24,6.24,0,0,1,48.07,162.5Zm-2.16-4.65a1.92,1.92,0,0,0,.84,1.65,3.8,3.8,0,0,0,2.25.6,5.65,5.65,0,0,0,1.9-.31,5.27,5.27,0,0,0,1.63-.95v-2.43a7.71,7.71,0,0,0-1.62-.54,8.64,8.64,0,0,0-1.82-.18,4.16,4.16,0,0,0-2.33.57A1.8,1.8,0,0,0,45.91,157.85Z"/><path class="cls-1" d="M59.67,162.23V140.82l3.39-.57v9a5.48,5.48,0,0,1,2-1.58,6.44,6.44,0,0,1,6.08.47,7.3,7.3,0,0,1,2.42,2.76,8.29,8.29,0,0,1,.9,3.86,8.08,8.08,0,0,1-.93,3.87A7.3,7.3,0,0,1,71,161.36a6.36,6.36,0,0,1-3.53,1,5.74,5.74,0,0,1-2.49-.54,5.87,5.87,0,0,1-2-1.53v1.92Zm7-2.67a4.21,4.21,0,0,0,2.29-.63,4.47,4.47,0,0,0,1.59-1.72,5.19,5.19,0,0,0,.59-2.48,5.07,5.07,0,0,0-.59-2.45A4.52,4.52,0,0,0,69,150.57a4.21,4.21,0,0,0-2.29-.63,4.75,4.75,0,0,0-2,.43,4.22,4.22,0,0,0-1.56,1.25v6.26a4.79,4.79,0,0,0,1.59,1.23A4.55,4.55,0,0,0,66.66,159.56Z"/><path class="cls-1" d="M84.65,162.53a7.48,7.48,0,0,1-3.9-1A7.69,7.69,0,0,1,78,158.71a7.78,7.78,0,0,1-1-4,8,8,0,0,1,1-3.95A7.47,7.47,0,0,1,80.56,148a6.83,6.83,0,0,1,3.7-1,6.74,6.74,0,0,1,3.7,1,7.14,7.14,0,0,1,2.52,2.76,8.43,8.43,0,0,1,.92,4v.81H80.3a5.52,5.52,0,0,0,.79,2.18,4.42,4.42,0,0,0,1.59,1.48,4.31,4.31,0,0,0,2.12.54,5.33,5.33,0,0,0,2-.37,4.4,4.4,0,0,0,1.58-1l2.22,2A9.74,9.74,0,0,1,87.78,162,9,9,0,0,1,84.65,162.53Zm-4.32-9.08h7.86a4.91,4.91,0,0,0-.74-1.92,4.14,4.14,0,0,0-1.38-1.32,3.53,3.53,0,0,0-1.81-.48,3.65,3.65,0,0,0-1.82.46,3.87,3.87,0,0,0-1.36,1.31A5.44,5.44,0,0,0,80.33,153.45Z"/><path class="cls-1" d="M94.51,162.23v-21.5l3.39-.6v22.1Z"/><path class="cls-1" d="M108.73,162.53a7.48,7.48,0,0,1-3.9-1,7.69,7.69,0,0,1-2.76-2.79,7.78,7.78,0,0,1-1-4,8,8,0,0,1,1-3.95,7.45,7.45,0,0,1,2.62-2.78,6.89,6.89,0,0,1,3.71-1,6.74,6.74,0,0,1,3.7,1,7.14,7.14,0,0,1,2.52,2.76,8.43,8.43,0,0,1,.91,4v.81H104.38a5.37,5.37,0,0,0,.79,2.18,4.42,4.42,0,0,0,1.59,1.48,4.31,4.31,0,0,0,2.12.54,5.33,5.33,0,0,0,2-.37,4.36,4.36,0,0,0,1.57-1l2.22,2a9.69,9.69,0,0,1-2.8,1.67A9,9,0,0,1,108.73,162.53Zm-4.32-9.08h7.85a4.89,4.89,0,0,0-.73-1.92,4.14,4.14,0,0,0-1.38-1.32,3.53,3.53,0,0,0-1.81-.48,3.65,3.65,0,0,0-1.82.46,3.87,3.87,0,0,0-1.36,1.31A5.44,5.44,0,0,0,104.41,153.45Z"/><path class="cls-1" d="M125.55,162.5a7.36,7.36,0,0,1-3.86-1,7.56,7.56,0,0,1-2.72-2.81,8.17,8.17,0,0,1,0-7.87,7.58,7.58,0,0,1,2.72-2.79,7.36,7.36,0,0,1,3.86-1,8.47,8.47,0,0,1,3.31.66,7.33,7.33,0,0,1,2.68,1.89l-2.09,2.19a5.43,5.43,0,0,0-1.74-1.32,4.75,4.75,0,0,0-2-.45,3.92,3.92,0,0,0-2.21.64,4.61,4.61,0,0,0-1.54,1.73,5.09,5.09,0,0,0-.57,2.42,5.24,5.24,0,0,0,.57,2.45,4.43,4.43,0,0,0,1.54,1.72,4,4,0,0,0,2.21.63,4.75,4.75,0,0,0,2-.45,5.63,5.63,0,0,0,1.74-1.29l2.09,2.16a7.33,7.33,0,0,1-2.68,1.89A8.47,8.47,0,0,1,125.55,162.5Z"/><path class="cls-1" d="M135.68,144.15a2.09,2.09,0,0,1,0-4.17,2,2,0,0,1,1.49.62,2,2,0,0,1,.61,1.45,2.08,2.08,0,0,1-2.1,2.1ZM134,162.23v-15h3.39v15Z"/><path class="cls-1" d="M141.23,162.23v-15h3.39v2.37a6,6,0,0,1,2-2,4.82,4.82,0,0,1,2.48-.66,4.65,4.65,0,0,1,4.43,2.88,6.49,6.49,0,0,1,2.15-2.15,5.45,5.45,0,0,1,2.83-.73,4.82,4.82,0,0,1,2.57.69,4.63,4.63,0,0,1,1.74,1.92,6.36,6.36,0,0,1,.61,2.82v9.83H160v-9.08a3.7,3.7,0,0,0-.81-2.52,2.79,2.79,0,0,0-2.22-.93,3.21,3.21,0,0,0-1.66.45A4,4,0,0,0,154,151.5c0,.14,0,.28.05.43s0,.31,0,.47v9.83h-3.41v-9.08a3.7,3.7,0,0,0-.81-2.52,2.79,2.79,0,0,0-2.22-.93,3.43,3.43,0,0,0-3,1.74v10.79Z"/><path class="cls-1" d="M174.15,162.53a7.44,7.44,0,0,1-3.89-1,7.69,7.69,0,0,1-2.76-2.79,7.78,7.78,0,0,1-1-4,8,8,0,0,1,1-3.95,7.45,7.45,0,0,1,2.62-2.78,6.86,6.86,0,0,1,3.7-1,6.78,6.78,0,0,1,3.71,1,7.14,7.14,0,0,1,2.52,2.76,8.43,8.43,0,0,1,.91,4v.81H169.81a5.37,5.37,0,0,0,.79,2.18,4.42,4.42,0,0,0,1.59,1.48,4.28,4.28,0,0,0,2.11.54,5.38,5.38,0,0,0,2-.37,4.36,4.36,0,0,0,1.57-1l2.22,2a9.69,9.69,0,0,1-2.8,1.67A9,9,0,0,1,174.15,162.53Zm-4.31-9.08h7.85a4.89,4.89,0,0,0-.73-1.92,4.14,4.14,0,0,0-1.38-1.32,3.56,3.56,0,0,0-1.82-.48,3.61,3.61,0,0,0-1.81.46,3.87,3.87,0,0,0-1.36,1.31A5.44,5.44,0,0,0,169.84,153.45Z"/><path class="cls-1" d="M184,162.23v-15h3.39v2.46a6,6,0,0,1,2.07-2,5.75,5.75,0,0,1,5.39,0,4.91,4.91,0,0,1,1.85,1.88,5.66,5.66,0,0,1,.67,2.82v9.89H194V153.3a3.77,3.77,0,0,0-.89-2.63,3.11,3.11,0,0,0-2.4-1,3.71,3.71,0,0,0-1.85.46,4.2,4.2,0,0,0-1.42,1.37v10.7Z"/><path class="cls-1" d="M207.17,162.53a5,5,0,0,1-3.45-1.06,4,4,0,0,1-1.17-3.14v-8.42h-3v-2.7h3v-4.14l3.39-.72v4.86h4.17v2.7h-4.17v7.67a2.15,2.15,0,0,0,.48,1.58,2.29,2.29,0,0,0,1.62.46,5.53,5.53,0,0,0,.94-.07,8.74,8.74,0,0,0,1.1-.29v2.85a7.75,7.75,0,0,1-1.43.32A11.26,11.26,0,0,1,207.17,162.53Z"/><path class="cls-1" d="M219.4,162.5a7.43,7.43,0,0,1-6.57-3.79,8.55,8.55,0,0,1,0-8A7.37,7.37,0,0,1,219.4,147a7.29,7.29,0,0,1,3.85,1,7.45,7.45,0,0,1,2.69,2.77,8.48,8.48,0,0,1,0,8,7.45,7.45,0,0,1-2.69,2.77A7.29,7.29,0,0,1,219.4,162.5Zm0-2.88a3.85,3.85,0,0,0,2.18-.63,4.25,4.25,0,0,0,1.48-1.75,5.74,5.74,0,0,0,.54-2.51,5.57,5.57,0,0,0-.54-2.5,4.42,4.42,0,0,0-1.48-1.74,3.78,3.78,0,0,0-2.18-.64,3.83,3.83,0,0,0-2.19.64,4.39,4.39,0,0,0-1.5,1.74,5.57,5.57,0,0,0-.54,2.5,5.69,5.69,0,0,0,.54,2.52,4.26,4.26,0,0,0,1.5,1.74A3.9,3.9,0,0,0,219.4,159.62Z"/><path class="cls-1" d="M235.2,162.53a11.83,11.83,0,0,1-3.58-.52,8.41,8.41,0,0,1-2.86-1.52l1.59-2.25a14.1,14.1,0,0,0,2.59,1.32,6.59,6.59,0,0,0,2.23.39,3.83,3.83,0,0,0,2.19-.57,1.71,1.71,0,0,0,.84-1.47,1.33,1.33,0,0,0-.49-1.09,3.67,3.67,0,0,0-1.61-.62l-2.64-.45a6.42,6.42,0,0,1-3.26-1.43,3.54,3.54,0,0,1-1.08-2.7,4.13,4.13,0,0,1,.73-2.45,4.88,4.88,0,0,1,2-1.62,7.36,7.36,0,0,1,3-.58,10.29,10.29,0,0,1,3,.45,11.73,11.73,0,0,1,2.88,1.35L239.25,151a8.87,8.87,0,0,0-2.26-1.1,7.71,7.71,0,0,0-2.27-.34,3.34,3.34,0,0,0-1.87.46,1.46,1.46,0,0,0-.7,1.28,1.31,1.31,0,0,0,.46,1.09,3.54,3.54,0,0,0,1.63.56l2.67.51a6.39,6.39,0,0,1,3.35,1.42,3.59,3.59,0,0,1,1.09,2.74,4.12,4.12,0,0,1-.81,2.49,5.57,5.57,0,0,1-2.19,1.76A7.36,7.36,0,0,1,235.2,162.53Z"/><path class="cls-1" d="M70.63,56.68c14.42-11.92,29.78-23.74,29.78-35.18,0-4.93-2.23-8.1-7.07-8.1S85.8,17.12,85.8,23.54H70.44C70.91,7.07,81.61,0,94,0c15.45,0,22.33,9,22.33,20.47,0,14.89-13.3,26.81-24.1,35.09h25.13V68.5H70.63Z"/><path class="cls-1" d="M171.14,1.4v14h-29V28.2c2.42-2.7,7.08-4.66,12.47-4.66,14.8,0,20.48,11.27,20.48,22.25,0,14.33-8.38,23.64-23.45,23.64-15.27,0-24.11-8.47-24.66-20.2h15.54c.65,3.54,3.35,6.7,8.56,6.7,6.05,0,8.65-4.37,8.65-10.24,0-6.14-3.07-9.4-8.74-9.4-4.47,0-7.08,2.42-7.91,5.59H127.68V1.4Z"/><path class="cls-1" d="M122.37,107.23c0-4.87-2.8-7.53-7.13-7.53s-7.13,2.66-7.13,7.53v20.19H96.79V107.23c0-4.87-2.8-7.53-7.13-7.53s-7.13,2.66-7.13,7.53v20.19H71.13V90.23h11.4V94.9a13.09,13.09,0,0,1,10.86-5.07c5.59,0,10.13,2.47,12.66,6.93a15,15,0,0,1,12.53-6.93c9.19,0,15.12,5.87,15.12,15.86v21.73H122.37Z"/><path class="cls-1" d="M139.9,80.24c0-3.47,2.73-6.2,6.79-6.2s6.73,2.73,6.73,6.2-2.73,6.13-6.73,6.13S139.9,83.64,139.9,80.24Zm1.06,10h11.4v37.19H141Z"/><path class="cls-1" d="M159.89,78.11h11.39v49.31H159.89Z"/><path class="cls-1" d="M36.92,44.86V61.51h16.2V75.75H36.92V92.32H21.85V75.75H5.65V61.51h16.2V44.86Z"/></g></g></svg>