<svg xmlns="http://www.w3.org/2000/svg" viewBox="0 0 300.54 162.62"><defs><style>.cls-1{fill:#fff;}</style></defs><title>3 mil marcas físicas e online</title><g id="Camada_2" data-name="Camada 2"><g id="Capa_1" data-name="Capa 1"><path class="cls-1" d="M0,162.32v-15H3.39v2.37a6,6,0,0,1,2-1.95,4.82,4.82,0,0,1,2.48-.66,4.65,4.65,0,0,1,4.43,2.88,6.46,6.46,0,0,1,2.15-2.14,5.46,5.46,0,0,1,2.83-.74,4.82,4.82,0,0,1,2.57.69,4.6,4.6,0,0,1,1.73,1.92,6.22,6.22,0,0,1,.62,2.82v9.83H18.77v-9.08a3.7,3.7,0,0,0-.81-2.52,2.79,2.79,0,0,0-2.22-.93,3.21,3.21,0,0,0-1.66.45,4,4,0,0,0-1.34,1.35c0,.14,0,.28,0,.43s0,.31,0,.47v9.83H9.39v-9.08a3.7,3.7,0,0,0-.81-2.52,2.79,2.79,0,0,0-2.22-.93,3.43,3.43,0,0,0-3,1.74v10.79Z"/><path class="cls-1" d="M30.49,162.59a6.33,6.33,0,0,1-2.77-.58,4.55,4.55,0,0,1-1.89-1.62,4.25,4.25,0,0,1-.67-2.38,3.93,3.93,0,0,1,.7-2.34,4.53,4.53,0,0,1,2-1.53,7.84,7.84,0,0,1,3.05-.54,9.58,9.58,0,0,1,2.07.22,7.79,7.79,0,0,1,2,.74v-1.68a2.83,2.83,0,0,0-.85-2.25,3.86,3.86,0,0,0-2.6-.75,7.72,7.72,0,0,0-2,.29,15.5,15.5,0,0,0-2.38.88l-1.2-2.46a14.83,14.83,0,0,1,6.23-1.53,6.64,6.64,0,0,1,4.55,1.43,5.1,5.1,0,0,1,1.6,4v9.8H35v-1.55a6.6,6.6,0,0,1-2.07,1.37A6.33,6.33,0,0,1,30.49,162.59ZM28.34,158a1.92,1.92,0,0,0,.84,1.65,3.74,3.74,0,0,0,2.24.6,5.67,5.67,0,0,0,1.91-.32,5.24,5.24,0,0,0,1.63-.94v-2.43a7.71,7.71,0,0,0-1.62-.54,8.74,8.74,0,0,0-1.83-.18,4.13,4.13,0,0,0-2.32.57A1.8,1.8,0,0,0,28.34,158Z"/><path class="cls-1" d="M42.1,162.32v-15h3.39v3.24a6.38,6.38,0,0,1,1.71-2.61,3.62,3.62,0,0,1,2.43-.9l.75.08a2.59,2.59,0,0,1,.71.22v3a3.63,3.63,0,0,0-.88-.27,5.39,5.39,0,0,0-1-.09,3.86,3.86,0,0,0-2.21.66,4.56,4.56,0,0,0-1.54,1.83v9.89Z"/><path class="cls-1" d="M59.76,162.59a7.33,7.33,0,0,1-3.85-1,7.56,7.56,0,0,1-2.73-2.8,8.19,8.19,0,0,1,0-7.88,7.66,7.66,0,0,1,2.73-2.78,7.33,7.33,0,0,1,3.85-1,8.47,8.47,0,0,1,3.31.66,7.46,7.46,0,0,1,2.69,1.89l-2.1,2.19a5.43,5.43,0,0,0-1.74-1.32,4.75,4.75,0,0,0-2-.45,4,4,0,0,0-2.2.64,4.71,4.71,0,0,0-1.55,1.73,5.13,5.13,0,0,0-.57,2.43,5.19,5.19,0,0,0,.57,2.44A4.48,4.48,0,0,0,57.68,159a4,4,0,0,0,2.2.63,4.75,4.75,0,0,0,2-.45,5.63,5.63,0,0,0,1.74-1.29l2.1,2.16a7.31,7.31,0,0,1-2.69,1.88A8.47,8.47,0,0,1,59.76,162.59Z"/><path class="cls-1" d="M72.77,162.59A6.3,6.3,0,0,1,70,162a4.55,4.55,0,0,1-1.89-1.62,4.25,4.25,0,0,1-.67-2.38,3.93,3.93,0,0,1,.7-2.34,4.53,4.53,0,0,1,2-1.53,7.84,7.84,0,0,1,3-.54,9.58,9.58,0,0,1,2.07.22,7.79,7.79,0,0,1,2,.74v-1.68a2.83,2.83,0,0,0-.85-2.25,3.86,3.86,0,0,0-2.6-.75,7.72,7.72,0,0,0-2,.29,15.5,15.5,0,0,0-2.38.88l-1.2-2.46a14.83,14.83,0,0,1,6.23-1.53A6.64,6.64,0,0,1,79,148.49a5.1,5.1,0,0,1,1.6,4v9.8H77.24v-1.55a6.6,6.6,0,0,1-2.07,1.37A6.33,6.33,0,0,1,72.77,162.59ZM70.62,158a1.92,1.92,0,0,0,.84,1.65,3.74,3.74,0,0,0,2.24.6,5.67,5.67,0,0,0,1.91-.32,5.24,5.24,0,0,0,1.63-.94v-2.43a7.71,7.71,0,0,0-1.62-.54,8.74,8.74,0,0,0-1.83-.18,4.13,4.13,0,0,0-2.32.57A1.8,1.8,0,0,0,70.62,158Z"/><path class="cls-1" d="M89.48,162.62a11.89,11.89,0,0,1-3.59-.52A8.24,8.24,0,0,1,83,160.58l1.59-2.24a14.1,14.1,0,0,0,2.59,1.32,6.64,6.64,0,0,0,2.24.39,3.77,3.77,0,0,0,2.18-.57,1.71,1.71,0,0,0,.84-1.47,1.35,1.35,0,0,0-.49-1.1,3.68,3.68,0,0,0-1.6-.61l-2.64-.45a6.46,6.46,0,0,1-3.27-1.44,3.54,3.54,0,0,1-1.08-2.7,4.09,4.09,0,0,1,.73-2.44,4.88,4.88,0,0,1,2-1.62,7.41,7.41,0,0,1,3-.59,10.23,10.23,0,0,1,3,.45,11.73,11.73,0,0,1,2.88,1.35l-1.59,2.25A8.82,8.82,0,0,0,91.26,150a7.66,7.66,0,0,0-2.26-.35,3.46,3.46,0,0,0-1.88.46,1.47,1.47,0,0,0-.7,1.28,1.31,1.31,0,0,0,.46,1.09,3.59,3.59,0,0,0,1.64.56l2.67.51A6.39,6.39,0,0,1,94.53,155a3.61,3.61,0,0,1,1.09,2.75,4.12,4.12,0,0,1-.81,2.49A5.64,5.64,0,0,1,92.62,162,7.31,7.31,0,0,1,89.48,162.62Z"/><path class="cls-1" d="M106.87,162.32V150h-3.24v-2.7h3.24v-2.58A5,5,0,0,1,108.2,141a5.29,5.29,0,0,1,3.85-1.3q.63,0,1.23.06a4.35,4.35,0,0,1,1,.21v2.87c-.38-.08-.7-.13-1-.16a7.3,7.3,0,0,0-.84,0,2.38,2.38,0,0,0-1.7.51,2.18,2.18,0,0,0-.54,1.65v2.52h4V150h-4v12.32Z"/><path class="cls-1" d="M116.22,144.57l3.72-4h4.23l-5,4Zm.6,17.75v-15h3.39v15Z"/><path class="cls-1" d="M129.15,162.62a11.89,11.89,0,0,1-3.59-.52,8.24,8.24,0,0,1-2.86-1.52l1.59-2.24a14.1,14.1,0,0,0,2.59,1.32,6.64,6.64,0,0,0,2.24.39,3.83,3.83,0,0,0,2.19-.57,1.74,1.74,0,0,0,.84-1.47,1.35,1.35,0,0,0-.5-1.1,3.63,3.63,0,0,0-1.6-.61l-2.64-.45a6.46,6.46,0,0,1-3.27-1.44,3.54,3.54,0,0,1-1.08-2.7,4.09,4.09,0,0,1,.73-2.44,4.88,4.88,0,0,1,2-1.62,7.41,7.41,0,0,1,3-.59,10.18,10.18,0,0,1,3,.45,11.73,11.73,0,0,1,2.88,1.35l-1.59,2.25a8.82,8.82,0,0,0-2.26-1.09,7.66,7.66,0,0,0-2.26-.35,3.46,3.46,0,0,0-1.88.46,1.47,1.47,0,0,0-.7,1.28,1.31,1.31,0,0,0,.46,1.09,3.59,3.59,0,0,0,1.64.56l2.67.51A6.39,6.39,0,0,1,134.2,155a3.61,3.61,0,0,1,1.09,2.75,4.12,4.12,0,0,1-.81,2.49,5.64,5.64,0,0,1-2.19,1.75A7.28,7.28,0,0,1,129.15,162.62Z"/><path class="cls-1" d="M139.76,144.24a2.08,2.08,0,1,1,0-4.16,2.08,2.08,0,0,1,2.1,2.06,2.07,2.07,0,0,1-.61,1.49A2,2,0,0,1,139.76,144.24Zm-1.71,18.08v-15h3.39v15Z"/><path class="cls-1" d="M152.2,162.59a7.35,7.35,0,0,1-3.85-1,7.56,7.56,0,0,1-2.73-2.8,8.26,8.26,0,0,1,0-7.88,7.66,7.66,0,0,1,2.73-2.78,7.36,7.36,0,0,1,3.85-1,8.52,8.52,0,0,1,3.32.66,7.42,7.42,0,0,1,2.68,1.89l-2.1,2.19a5.43,5.43,0,0,0-1.74-1.32,4.75,4.75,0,0,0-2-.45,4,4,0,0,0-2.2.64,4.68,4.68,0,0,0-1.54,1.73,5.13,5.13,0,0,0-.57,2.43,5.19,5.19,0,0,0,.57,2.44,4.46,4.46,0,0,0,1.54,1.73,4,4,0,0,0,2.2.63,4.75,4.75,0,0,0,2-.45,5.63,5.63,0,0,0,1.74-1.29l2.1,2.16a7.28,7.28,0,0,1-2.68,1.88A8.52,8.52,0,0,1,152.2,162.59Z"/><path class="cls-1" d="M165.22,162.59a6.27,6.27,0,0,1-2.77-.58,4.55,4.55,0,0,1-1.89-1.62,4.25,4.25,0,0,1-.68-2.38,3.93,3.93,0,0,1,.71-2.34,4.5,4.5,0,0,1,2-1.53,7.9,7.9,0,0,1,3.06-.54,9.58,9.58,0,0,1,2.07.22,7.79,7.79,0,0,1,2,.74v-1.68a2.84,2.84,0,0,0-.86-2.25,3.83,3.83,0,0,0-2.59-.75,7.79,7.79,0,0,0-2,.29,15.5,15.5,0,0,0-2.38.88l-1.2-2.46a14.87,14.87,0,0,1,6.24-1.53,6.61,6.61,0,0,1,4.54,1.43,5.1,5.1,0,0,1,1.6,4v9.8h-3.35v-1.55a6.6,6.6,0,0,1-2.07,1.37A6.33,6.33,0,0,1,165.22,162.59ZM163.06,158a1.92,1.92,0,0,0,.84,1.65,3.8,3.8,0,0,0,2.25.6,5.61,5.61,0,0,0,1.9-.32,5.29,5.29,0,0,0,1.64-.94v-2.43a7.71,7.71,0,0,0-1.62-.54,8.74,8.74,0,0,0-1.83-.18,4.16,4.16,0,0,0-2.33.57A1.8,1.8,0,0,0,163.06,158Z"/><path class="cls-1" d="M181.92,162.62a11.83,11.83,0,0,1-3.58-.52,8.29,8.29,0,0,1-2.87-1.52l1.59-2.24a14.14,14.14,0,0,0,2.6,1.32,6.59,6.59,0,0,0,2.23.39,3.83,3.83,0,0,0,2.19-.57,1.71,1.71,0,0,0,.84-1.47,1.35,1.35,0,0,0-.5-1.1,3.63,3.63,0,0,0-1.6-.61l-2.64-.45a6.46,6.46,0,0,1-3.27-1.44,3.54,3.54,0,0,1-1.08-2.7,4.1,4.1,0,0,1,.74-2.44,4.88,4.88,0,0,1,2-1.62,7.36,7.36,0,0,1,3-.59,10.29,10.29,0,0,1,3,.45,11.73,11.73,0,0,1,2.88,1.35L186,151.11A8.87,8.87,0,0,0,183.7,150a7.66,7.66,0,0,0-2.26-.35,3.43,3.43,0,0,0-1.87.46,1.48,1.48,0,0,0-.71,1.28,1.32,1.32,0,0,0,.47,1.09,3.54,3.54,0,0,0,1.63.56l2.67.51A6.35,6.35,0,0,1,187,155a3.61,3.61,0,0,1,1.1,2.75,4.12,4.12,0,0,1-.81,2.49,5.64,5.64,0,0,1-2.19,1.75A7.36,7.36,0,0,1,181.92,162.62Z"/><path class="cls-1" d="M204.26,162.62a7.48,7.48,0,0,1-3.9-1,7.68,7.68,0,0,1-3.78-6.76,8.06,8.06,0,0,1,1-4,7.44,7.44,0,0,1,2.63-2.77,6.86,6.86,0,0,1,3.7-1,6.74,6.74,0,0,1,3.7,1,7.14,7.14,0,0,1,2.52,2.76,8.45,8.45,0,0,1,.92,4v.81h-11.1a5.34,5.34,0,0,0,.8,2.17,4.5,4.5,0,0,0,1.58,1.49,4.31,4.31,0,0,0,2.12.54,5.34,5.34,0,0,0,2-.38,4.38,4.38,0,0,0,1.58-1l2.22,2a9.69,9.69,0,0,1-2.81,1.66A9,9,0,0,1,204.26,162.62Zm-4.32-9.08h7.86a4.91,4.91,0,0,0-.74-1.92,4.14,4.14,0,0,0-1.38-1.32,3.53,3.53,0,0,0-1.81-.48,3.59,3.59,0,0,0-1.81.47,3.79,3.79,0,0,0-1.37,1.3A5.44,5.44,0,0,0,199.94,153.54Z"/><path class="cls-1" d="M227.41,162.59a7.54,7.54,0,0,1-3.86-1,7.38,7.38,0,0,1-2.71-2.78,8.48,8.48,0,0,1,0-8,7.37,7.37,0,0,1,6.57-3.79,7.31,7.31,0,0,1,3.85,1,7.5,7.5,0,0,1,2.68,2.77,8.48,8.48,0,0,1,0,8,7.26,7.26,0,0,1-6.53,3.79Zm0-2.87a3.81,3.81,0,0,0,2.17-.63,4.3,4.3,0,0,0,1.49-1.76,5.69,5.69,0,0,0,.54-2.5,5.61,5.61,0,0,0-.54-2.51,4.44,4.44,0,0,0-1.49-1.74,3.82,3.82,0,0,0-2.17-.64,3.91,3.91,0,0,0-2.19.64,4.39,4.39,0,0,0-1.5,1.74,5.61,5.61,0,0,0-.54,2.51,5.69,5.69,0,0,0,.54,2.52,4.26,4.26,0,0,0,1.5,1.74A3.9,3.9,0,0,0,227.41,159.72Z"/><path class="cls-1" d="M238.11,162.32v-15h3.39v2.46a5.94,5.94,0,0,1,2.07-2,5.7,5.7,0,0,1,5.4,0,4.86,4.86,0,0,1,1.84,1.87,5.66,5.66,0,0,1,.68,2.82v9.89h-3.42v-8.93a3.75,3.75,0,0,0-.9-2.63,3.14,3.14,0,0,0-2.4-1,3.81,3.81,0,0,0-1.85.46,4.4,4.4,0,0,0-1.42,1.37v10.7Z"/><path class="cls-1" d="M255.23,162.32v-21.5l3.39-.6v22.1Z"/><path class="cls-1" d="M264.14,144.24a2,2,0,0,1-1.49-.61,2.08,2.08,0,0,1,0-2.94,2,2,0,0,1,1.49-.61,2,2,0,0,1,1.48.61,2,2,0,0,1,.62,1.45,2,2,0,0,1-.62,1.49A2,2,0,0,1,264.14,144.24Zm-1.71,18.08v-15h3.39v15Z"/><path class="cls-1" d="M269.69,162.32v-15h3.38v2.46a5.94,5.94,0,0,1,2.07-2,5.7,5.7,0,0,1,5.4,0,4.79,4.79,0,0,1,1.84,1.87,5.66,5.66,0,0,1,.68,2.82v9.89h-3.42v-8.93a3.75,3.75,0,0,0-.9-2.63,3.14,3.14,0,0,0-2.4-1,3.78,3.78,0,0,0-1.84.46,4.33,4.33,0,0,0-1.43,1.37v10.7Z"/><path class="cls-1" d="M293.79,162.62a7.44,7.44,0,0,1-3.89-1,7.68,7.68,0,0,1-3.78-6.76,8.06,8.06,0,0,1,1-4,7.42,7.42,0,0,1,2.62-2.77,6.86,6.86,0,0,1,3.7-1,6.78,6.78,0,0,1,3.71,1,7.14,7.14,0,0,1,2.52,2.76,8.44,8.44,0,0,1,.91,4v.81H289.45a5.33,5.33,0,0,0,.79,2.17,4.45,4.45,0,0,0,1.59,1.49,4.28,4.28,0,0,0,2.11.54,5.39,5.39,0,0,0,2-.38,4.34,4.34,0,0,0,1.57-1l2.22,2a9.65,9.65,0,0,1-2.8,1.66A9,9,0,0,1,293.79,162.62Zm-4.31-9.08h7.85a4.89,4.89,0,0,0-.73-1.92,4.14,4.14,0,0,0-1.38-1.32,3.56,3.56,0,0,0-1.82-.48,3.62,3.62,0,0,0-1.81.47,3.84,3.84,0,0,0-1.36,1.3A5.44,5.44,0,0,0,289.48,153.54Z"/><path class="cls-1" d="M152.15,0c14.33,0,22.06,8.19,22.06,18.43,0,8.93-5.59,13.68-10.24,15.26v.37c6.79,2.23,11.45,7.45,11.45,16.38,0,11.45-8.19,19.64-22.43,19.64S128.61,63.38,128.14,48h15.45c.09,5.31,3,8.84,8.84,8.84,4.93,0,7.63-3.16,7.63-7.63,0-6-3.63-8.47-11.91-8.47h-3V27.83h3c5.4,0,10.61-1.31,10.61-7.45,0-4.56-2.7-7.07-7-7.07-5.12,0-7,3.72-7.26,7.44H129C129.54,7.35,138.29,0,152.15,0Z"/><path class="cls-1" d="M153.55,107.32c0-4.86-2.8-7.53-7.13-7.53s-7.13,2.67-7.13,7.53v20.19H128V107.32c0-4.86-2.79-7.53-7.13-7.53s-7.13,2.67-7.13,7.53v20.19H102.31V90.33H113.7V95a13.12,13.12,0,0,1,10.87-5.06c5.59,0,10.12,2.46,12.66,6.93a15,15,0,0,1,12.52-6.93c9.2,0,15.13,5.86,15.13,15.86v21.72H153.55Z"/><path class="cls-1" d="M171.08,80.33c0-3.46,2.73-6.19,6.79-6.19s6.73,2.73,6.73,6.19-2.73,6.13-6.73,6.13S171.08,83.73,171.08,80.33Zm1.06,10h11.4v37.18h-11.4Z"/><path class="cls-1" d="M191.07,78.2h11.39v49.31H191.07Z"/><path class="cls-1" d="M93,41V57.62h16.2V71.85H93V88.42H77.92V71.85H61.72V57.62h16.2V41Z"/></g></g></svg>