<svg width="277" height="297" viewBox="0 0 277 297" fill="none" xmlns="http://www.w3.org/2000/svg">
<path d="M234.594 201.341C247.557 216.557 257.514 229.047 268.507 240.29C279.5 251.533 279.371 259.323 262.881 260.699C247.324 261.998 240.738 268.333 239.105 284.069C237.42 300.583 228.319 299.649 218.052 289.262C205.295 276.279 192.124 263.971 179.316 251.014C176.049 247.664 168.945 245.146 171.823 239.044C174.701 232.942 181.001 236.291 185.979 236.863C219.763 240.835 222.537 239.174 234.594 201.341Z" fill="white"/>
<path d="M40.4472 201.549C53.9036 239.381 56.0038 240.68 90.1764 236.94C95.2064 236.395 101.351 232.994 104.1 239.537C106.148 244.419 100.625 247.327 97.6436 250.157C84.2909 263.478 70.5492 276.435 57.2742 289.833C45.892 301.336 37.8285 298.558 36.7655 283.472C35.6246 266.775 27.3796 261.998 12.3934 260.647C-1.63342 259.453 -3.88913 252.468 6.32637 241.485C17.579 229.436 27.8463 216.427 40.4472 201.549Z" fill="white"/>
<path d="M255.18 145.903C245.457 131.57 245.872 118.275 255.388 104.046C264.903 89.8167 260.106 79.7159 244.731 74.0033C229.978 68.4985 221.189 59.722 220.826 42.2987C220.385 25.9661 211.57 16.6702 193.68 22.3049C178.123 27.1865 165.782 23.8369 155.54 10.8279C143.873 -3.9728 131.298 -3.34962 119.993 11.2174C109.622 24.512 96.9177 26.797 81.6722 22.2789C65.3378 17.3973 55.9001 24.8755 55.3556 40.7148C54.7333 58.5016 46.7476 68.6283 30.6465 74.4707C14.5455 80.3131 11.6416 90.8813 20.7422 104.695C29.8428 118.509 30.8799 130.661 21.4163 144.501C11.5638 158.834 14.1306 170.467 31.3466 176.388C47.8625 182.1 54.6815 193.24 55.4075 210.559C55.9779 225.463 65.7785 233.331 80.1943 228.501C99.1734 222.192 112.137 228.709 123.779 242.965C130.961 251.741 140.969 255.013 149.162 245.561C163.344 229.021 178.694 219.154 196.869 228.891C215.174 230.812 220.204 221.101 220.515 209.832C221.137 192.331 228.993 181.737 245.146 176.076C261.299 170.415 264.462 159.639 255.18 145.903ZM137.572 211.883C87.2726 211.883 47.1884 172.934 46.6439 123.806C46.0994 74.6784 87.9208 33.3145 138.272 33.4962C188.624 33.678 229.693 74.7304 228.915 124.637C228.164 173.739 188.105 212.039 137.572 211.883Z" fill="white"/>
<path d="M137.676 198.848C94.8693 198.744 60.23 165.378 59.6336 123.754C59.0114 81.6633 94.636 46.739 138.194 46.739C180.897 46.739 215.563 80.2352 216.159 122.041C216.781 164.391 181.494 198.978 137.676 198.848Z" fill="white"/>
<path d="M120.488 103.551L107.27 145H95.0352L113.984 93.8125H121.719L120.488 103.551ZM131.457 145L118.203 103.551L116.832 93.8125H124.672L143.691 145H131.457ZM130.895 125.945V134.805H104.211V125.945H130.895ZM172.52 93.7773V145H161.516V106.293L149.633 109.914V101.406L171.43 93.7773H172.52Z" fill="#39547d"/>
</svg>
