<svg width="277" height="297" viewBox="0 0 277 297" fill="none" xmlns="http://www.w3.org/2000/svg">
<path d="M234.592 201.334C247.556 216.551 257.512 229.04 268.505 240.284C279.499 251.527 279.369 259.317 262.879 260.693C247.322 261.991 240.737 268.327 239.103 284.062C237.418 300.577 228.317 299.642 218.05 289.256C205.294 276.273 192.122 263.965 179.314 251.008C176.047 247.658 168.943 245.139 171.821 239.037C174.699 232.935 180.999 236.285 185.978 236.856C219.761 240.829 222.536 239.167 234.592 201.334Z" fill="white"/>
<path d="M40.4456 201.542C53.9021 239.375 56.0022 240.673 90.1749 236.934C95.2048 236.389 101.35 232.987 104.098 239.531C106.146 244.412 100.624 247.32 97.642 250.151C84.2893 263.471 70.5476 276.428 57.2727 289.827C45.8904 301.33 37.8269 298.551 36.7639 283.465C35.6231 266.769 27.3781 261.991 12.3919 260.641C-1.63501 259.447 -3.89072 252.462 6.32479 241.478C17.5774 229.43 27.8448 216.421 40.4456 201.542Z" fill="white"/>
<path d="M255.179 145.897C245.456 131.564 245.871 118.269 255.386 104.04C264.901 89.8102 260.105 79.7094 244.73 73.9969C229.977 68.492 221.187 59.7155 220.824 42.2923C220.384 25.9596 211.568 16.6638 193.678 22.2984C178.122 27.18 165.78 23.8304 155.539 10.8214C143.871 -3.97927 131.296 -3.35609 119.992 11.2109C109.621 24.5055 96.9161 26.7905 81.6706 22.2724C65.3362 17.3908 55.8985 24.869 55.354 40.7083C54.7318 58.4951 46.746 68.6219 30.645 74.4642C14.5439 80.3066 11.64 90.8748 20.7406 104.689C29.8412 118.503 30.8783 130.655 21.4147 144.495C11.5622 158.828 14.129 170.461 31.345 176.381C47.8609 182.094 54.6799 193.233 55.4059 210.552C55.9763 225.457 65.7769 233.325 80.1927 228.495C99.1718 222.185 112.136 228.703 123.777 242.958C130.959 251.735 140.967 255.006 149.16 245.555C163.343 229.014 178.692 219.147 196.867 228.885C215.172 230.806 220.202 221.095 220.513 209.825C221.136 192.324 228.992 181.73 245.145 176.07C261.297 170.409 264.461 159.633 255.179 145.897ZM137.571 211.877C87.271 211.877 47.1868 172.928 46.6423 123.8C46.0978 74.672 87.9192 33.308 138.271 33.4898C188.622 33.6715 229.692 74.7239 228.914 124.631C228.162 173.733 188.104 212.033 137.571 211.877Z" fill="white"/>
<path d="M137.674 198.842C94.8677 198.738 60.2284 165.371 59.6321 123.748C59.0098 81.6569 94.6344 46.7325 138.193 46.7325C180.896 46.7325 215.561 80.2287 216.157 122.034C216.78 164.385 181.492 198.972 137.674 198.842Z" fill="white"/>
<path d="M118.488 106.551L105.27 148H93.0352L111.984 96.8125H119.719L118.488 106.551ZM129.457 148L116.203 106.551L114.832 96.8125H122.672L141.691 148H129.457ZM128.895 128.945V137.805H102.211V128.945H128.895ZM155.648 117.73H161.238C162.832 117.73 164.145 117.449 165.176 116.887C166.23 116.324 167.004 115.527 167.496 114.496C168.012 113.465 168.27 112.258 168.27 110.875C168.27 109.68 168.035 108.613 167.566 107.676C167.098 106.738 166.383 106 165.422 105.461C164.484 104.898 163.266 104.617 161.766 104.617C160.688 104.617 159.656 104.84 158.672 105.285C157.711 105.707 156.926 106.328 156.316 107.148C155.707 107.945 155.402 108.906 155.402 110.031H144.398C144.398 107.172 145.172 104.699 146.719 102.613C148.289 100.527 150.363 98.9219 152.941 97.7969C155.543 96.6484 158.379 96.0742 161.449 96.0742C164.988 96.0742 168.094 96.6367 170.766 97.7617C173.461 98.8633 175.547 100.504 177.023 102.684C178.523 104.84 179.273 107.512 179.273 110.699C179.273 112.363 178.875 113.969 178.078 115.516C177.305 117.039 176.191 118.398 174.738 119.594C173.309 120.766 171.598 121.703 169.605 122.406C167.637 123.086 165.445 123.426 163.031 123.426H155.648V117.73ZM155.648 125.992V120.402H163.031C165.703 120.402 168.094 120.707 170.203 121.316C172.312 121.926 174.105 122.805 175.582 123.953C177.059 125.102 178.184 126.496 178.957 128.137C179.73 129.777 180.117 131.605 180.117 133.621C180.117 136.012 179.648 138.145 178.711 140.02C177.773 141.895 176.461 143.477 174.773 144.766C173.086 146.055 171.105 147.039 168.832 147.719C166.559 148.375 164.098 148.703 161.449 148.703C159.316 148.703 157.195 148.41 155.086 147.824C152.977 147.238 151.066 146.348 149.355 145.152C147.645 143.934 146.273 142.398 145.242 140.547C144.211 138.672 143.695 136.445 143.695 133.867H154.699C154.699 135.062 155.004 136.141 155.613 137.102C156.246 138.039 157.102 138.789 158.18 139.352C159.281 139.891 160.477 140.16 161.766 140.16C163.312 140.16 164.625 139.879 165.703 139.316C166.805 138.73 167.637 137.934 168.199 136.926C168.785 135.918 169.078 134.758 169.078 133.445C169.078 131.664 168.762 130.234 168.129 129.156C167.52 128.055 166.629 127.258 165.457 126.766C164.285 126.25 162.879 125.992 161.238 125.992H155.648Z" fill="#39547d"/>
</svg>
