<svg xmlns="http://www.w3.org/2000/svg" viewBox="0 0 231.38 130.08"><defs><style>.cls-1{fill:#a2b743;}</style></defs><title>Aplicativo RI+</title><g id="Camada_2" data-name="Camada 2"><g id="Capa_1" data-name="Capa 1"><path class="cls-1" d="M0,25.9,10,.4h7.14l9.8,25.5H20.11L18,19.82H8.67L6.52,25.9ZM10.38,15h5.94l-3-8.45Z"/><path class="cls-1" d="M29.8,25.9V.4H42.26A9.87,9.87,0,0,1,47,1.49a8,8,0,0,1,3.13,3,8.42,8.42,0,0,1,1.11,4.34A7.93,7.93,0,0,1,50.15,13,8,8,0,0,1,47,15.92,9.87,9.87,0,0,1,42.26,17H36.07V25.9ZM36.07,12h5.06A3.89,3.89,0,0,0,44,11.09a3.14,3.14,0,0,0,.93-2.31A3.1,3.1,0,0,0,44,6.48a3.92,3.92,0,0,0-2.82-.91h-5.1Z"/><path class="cls-1" d="M55.67,25.9V.4h6.26V20.55H74.58V25.9Z"/><path class="cls-1" d="M78.91,25.9V.4h6.27V25.9Z"/><path class="cls-1" d="M102.74,26.3a13.76,13.76,0,0,1-5.29-1,13.37,13.37,0,0,1-4.28-2.79,12.75,12.75,0,0,1-2.86-4.18,13.15,13.15,0,0,1-1-5.18,13.06,13.06,0,0,1,1-5.19,12.82,12.82,0,0,1,2.86-4.17A13.54,13.54,0,0,1,97.45,1a13.76,13.76,0,0,1,5.29-1,13.68,13.68,0,0,1,7.59,2.31A10.5,10.5,0,0,1,113.08,5l-4.22,4a8.59,8.59,0,0,0-2.77-2.55,6.86,6.86,0,0,0-3.35-.84,6.54,6.54,0,0,0-2.75.57,6.7,6.7,0,0,0-2.21,1.6,7.58,7.58,0,0,0-1.47,2.41,8.08,8.08,0,0,0-.53,3,8.14,8.14,0,0,0,.53,3,7.53,7.53,0,0,0,1.47,2.4,6.83,6.83,0,0,0,8.31,1.31,8.86,8.86,0,0,0,2.77-2.53l4.22,4A10.93,10.93,0,0,1,110.33,24a13,13,0,0,1-3.6,1.73A13.49,13.49,0,0,1,102.74,26.3Z"/><path class="cls-1" d="M114,25.9,123.9.4H131l9.8,25.5h-6.77L132,19.82h-9.33l-2.15,6.08ZM124.34,15h5.94l-3-8.45Z"/><path class="cls-1" d="M149.88,25.9V5.76h-8.2V.4h22.66V5.76h-8.19V25.9Z"/><path class="cls-1" d="M167.58,25.9V.4h6.27V25.9Z"/><path class="cls-1" d="M186.2,25.9,176.4.4h6.78l6.74,19,6.85-19h6.52l-9.95,25.5Z"/><path class="cls-1" d="M218.19,26.3a13.32,13.32,0,0,1-5.18-1,13,13,0,0,1-7-7,13.15,13.15,0,0,1-1-5.16A13.13,13.13,0,0,1,206,8a13,13,0,0,1,7-7,13.89,13.89,0,0,1,10.35,0,12.93,12.93,0,0,1,7,7,13.14,13.14,0,0,1,1,5.15,13.15,13.15,0,0,1-1,5.16,12.87,12.87,0,0,1-7,7A13.27,13.27,0,0,1,218.19,26.3Zm0-5.57A6.26,6.26,0,0,0,223,18.56a7.78,7.78,0,0,0,1.42-2.4,8.57,8.57,0,0,0,.51-3,8.51,8.51,0,0,0-.51-3A7.83,7.83,0,0,0,223,7.74a6.47,6.47,0,0,0-2.15-1.6,6.32,6.32,0,0,0-2.66-.57,6.26,6.26,0,0,0-2.66.57,6.37,6.37,0,0,0-2.15,1.6A7.64,7.64,0,0,0,212,10.15a8.51,8.51,0,0,0-.51,3,8.57,8.57,0,0,0,.51,3,7.59,7.59,0,0,0,1.42,2.4,6.26,6.26,0,0,0,4.81,2.17Z"/><path class="cls-1" d="M25,130.08V38.28H69.57A36.56,36.56,0,0,1,86.36,42,28.45,28.45,0,0,1,97.83,52.37,28,28,0,0,1,102,67.52a26.73,26.73,0,0,1-4.65,15.54,28.84,28.84,0,0,1-12.4,10.17l19.28,36.85H79L62.36,96.38H47.54v33.7ZM47.54,78.67H67.47a11.81,11.81,0,0,0,8.46-3,10.3,10.3,0,0,0,3.21-7.87,10.25,10.25,0,0,0-3.21-7.93,12,12,0,0,0-8.46-3H47.54Z"/><path class="cls-1" d="M115.86,130.08V38.28h22.56v91.8Z"/><path class="cls-1" d="M178.55,114V91.13H157.18V75.39h21.37V52.57h16.26V75.39h21.38V91.13H194.81V114Z"/></g></g></svg>