<svg xmlns="http://www.w3.org/2000/svg" viewBox="0 0 168.21 142.13"><defs><style>.cls-1{fill:#96d733;}.cls-2{fill:#567a93;}</style></defs><title>Circulo</title><g id="Camada_2" data-name="Camada 2"><g id="Capa_1" data-name="Capa 1"><path class="cls-1" d="M17.53,84.1a66.58,66.58,0,0,1,133.15,0v.16h17.53V84.1A84.11,84.11,0,0,0,0,84.1v.16H17.53Z"/><path class="cls-1" d="M150.68,84.1v.16h17.53V84.1A84.1,84.1,0,0,0,84.1,0V17.53A66.57,66.57,0,0,1,150.68,84.1Z"/><circle class="cls-2" cx="84.1" cy="84.1" r="58.03" transform="matrix(1, -0.08, 0.08, 1, -6.38, 6.91)"/><circle class="cls-1" cx="84.1" cy="84.1" r="58.03" transform="matrix(1, -0.08, 0.08, 1, -6.38, 6.91)"/><path class="cls-1" d="M142.13,84.1a58,58,0,0,0-58-58V142.13A58,58,0,0,0,142.13,84.1Z"/></g></g></svg>