<svg width="353" height="515" viewBox="0 0 353 515" fill="none" xmlns="http://www.w3.org/2000/svg">
<path opacity="0.08" d="M352 112L331 148" stroke="#1E1711" stroke-width="0.5" stroke-miterlimit="10"/>
<path opacity="0.08" d="M331 148L352 206" stroke="#1E1711" stroke-width="0.5" stroke-miterlimit="10"/>
<path opacity="0.08" d="M352 318L317 264" stroke="#1E1711" stroke-width="0.5" stroke-miterlimit="10"/>
<path opacity="0.08" d="M317 264L352 238" stroke="#1E1711" stroke-width="0.5" stroke-miterlimit="10"/>
<path opacity="0.08" d="M328 233L352 231" stroke="#1E1711" stroke-width="0.5" stroke-miterlimit="10"/>
<path opacity="0.08" d="M352 206L328 178" stroke="#1E1711" stroke-width="0.5" stroke-miterlimit="10"/>
<path opacity="0.08" d="M352 231L328 178" stroke="#1E1711" stroke-width="0.5" stroke-miterlimit="10"/>
<path opacity="0.08" d="M328.325 178.492L328.182 232.557" stroke="#1E1711" stroke-width="0.5" stroke-miterlimit="10"/>
<path opacity="0.08" d="M352 372L305 391" stroke="#1E1711" stroke-width="0.5" stroke-miterlimit="10"/>
<path opacity="0.08" d="M311 471L352 482" stroke="#1E1711" stroke-width="0.5" stroke-miterlimit="10"/>
<path opacity="0.08" d="M298.806 245.364L328.182 232.557" stroke="#1E1711" stroke-width="0.5" stroke-miterlimit="10"/>
<path opacity="0.08" d="M317.394 264.145L328.182 232.557" stroke="#1E1711" stroke-width="0.5" stroke-miterlimit="10"/>
<path opacity="0.08" d="M331.285 149.484C332.001 149.484 332.582 148.904 332.582 148.188C332.582 147.473 332.001 146.892 331.285 146.892C330.569 146.892 329.988 147.473 329.988 148.188C329.988 148.904 330.569 149.484 331.285 149.484Z" fill="#1E1711"/>
<path opacity="0.08" d="M328.325 179.788C329.042 179.788 329.622 179.208 329.622 178.492C329.622 177.776 329.042 177.196 328.325 177.196C327.609 177.196 327.029 177.776 327.029 178.492C327.029 179.208 327.609 179.788 328.325 179.788Z" fill="#1E1711"/>
<path opacity="0.08" d="M328.182 233.853C328.899 233.853 329.479 233.273 329.479 232.557C329.479 231.841 328.899 231.261 328.182 231.261C327.466 231.261 326.886 231.841 326.886 232.557C326.886 233.273 327.466 233.853 328.182 233.853Z" fill="#1E1711"/>
<path opacity="0.08" d="M328.626 60.2899C329.342 60.2899 329.923 59.7097 329.923 58.9939C329.923 58.2782 329.342 57.698 328.626 57.698C327.91 57.698 327.329 58.2782 327.329 58.9939C327.329 59.7097 327.91 60.2899 328.626 60.2899Z" fill="#1E1711"/>
<path opacity="0.08" d="M85.9491 30L79 13.6522L107.177 1L142 25.4075L85.9491 30Z" stroke="#1E1711" stroke-width="0.5" stroke-miterlimit="10"/>
<path opacity="0.08" d="M260.198 13.0948L206 1" stroke="#1E1711" stroke-width="0.5" stroke-miterlimit="10"/>
<path opacity="0.08" d="M305 1L260.198 13.0948" stroke="#1E1711" stroke-width="0.5" stroke-miterlimit="10"/>
<path opacity="0.08" d="M142.128 18.8382L145 1" stroke="#1E1711" stroke-width="0.5" stroke-miterlimit="10"/>
<path opacity="0.08" d="M206 1L142 19" stroke="#1E1711" stroke-width="0.5" stroke-miterlimit="10"/>
<path opacity="0.08" d="M35.3916 3.41254L86.0415 30.485" stroke="#1E1711" stroke-width="0.5" stroke-miterlimit="10"/>
<path opacity="0.08" d="M191.263 30.8023L206.782 8.90891" stroke="#1E1711" stroke-width="0.5" stroke-miterlimit="10"/>
<path opacity="0.08" d="M24.9766 24.2692L35.3916 3.41254" stroke="#1E1711" stroke-width="0.5" stroke-miterlimit="10"/>
<path opacity="0.08" d="M109.625 428.067L163.355 452.943L177.867 450.663L166.237 404.582L109.625 428.067Z" stroke="#1E1711" stroke-width="0.5" stroke-miterlimit="10"/>
<path opacity="0.08" d="M85.9491 514L79 476.233L107.177 447L142 503.39L85.9491 514Z" stroke="#1E1711" stroke-width="0.5" stroke-miterlimit="10"/>
<path opacity="0.08" d="M96.4007 391.298V368.385L121.101 350.44L150.42 396.339L96.4007 391.298Z" stroke="#1E1711" stroke-width="0.5" stroke-miterlimit="10"/>
<path opacity="0.08" d="M125.45 273.924V301.244L163.355 317.728L186.195 274.111L125.45 273.924Z" stroke="#1E1711" stroke-width="0.5" stroke-miterlimit="10"/>
<path opacity="0.08" d="M223.388 265.458L264.131 265.158L258.52 316.517L205.027 276.872L223.388 265.458Z" stroke="#1E1711" stroke-width="0.5" stroke-miterlimit="10"/>
<path opacity="0.08" d="M61.7696 389.748L100.027 430.117L82.2361 440.366H27.1749L61.7696 389.748Z" stroke="#1E1711" stroke-width="0.5" stroke-miterlimit="10"/>
<path opacity="0.08" d="M294.14 412.351L337.625 435.414L311.078 471.018L272.83 471.331L294.14 412.351Z" stroke="#1E1711" stroke-width="0.5" stroke-miterlimit="10"/>
<path opacity="0.08" d="M113.474 341.288L123.186 322.357L101.19 279.711L86.4075 324.588L113.474 341.288Z" stroke="#1E1711" stroke-width="0.5" stroke-miterlimit="10"/>
<path opacity="0.08" d="M182.581 369.126L153.04 336.325L185.448 324.629L219.67 374.295L182.581 369.126Z" stroke="#1E1711" stroke-width="0.5" stroke-miterlimit="10"/>
<path opacity="0.08" d="M205.956 443.134V471.331L260.198 503.054L246.309 419.96L205.956 443.134Z" stroke="#1E1711" stroke-width="0.5" stroke-miterlimit="10"/>
<path opacity="0.08" d="M25.9777 348.16L34.3276 371.701L78.3581 358.797L38.9619 305.754L25.9777 348.16Z" stroke="#1E1711" stroke-width="0.5" stroke-miterlimit="10"/>
<path opacity="0.08" d="M27.3955 482.447L35.3916 493.374L44.7571 478.85L37.1634 468.175L27.3955 482.447Z" stroke="#1E1711" stroke-width="0.5" stroke-miterlimit="10"/>
<path opacity="0.08" d="M166.237 404.582L182.581 369.126" stroke="#1E1711" stroke-width="0.5" stroke-miterlimit="10"/>
<path opacity="0.08" d="M153.04 336.325L166.237 404.582" stroke="#1E1711" stroke-width="0.5" stroke-miterlimit="10"/>
<path opacity="0.08" d="M219.67 374.295L166.237 404.582" stroke="#1E1711" stroke-width="0.5" stroke-miterlimit="10"/>
<path opacity="0.08" d="M177.867 450.663L204.661 418.705" stroke="#1E1711" stroke-width="0.5" stroke-miterlimit="10"/>
<path opacity="0.08" d="M181.284 421.253L204.661 418.705" stroke="#1E1711" stroke-width="0.5" stroke-miterlimit="10"/>
<path opacity="0.08" d="M237.332 396.339L204.661 418.705" stroke="#1E1711" stroke-width="0.5" stroke-miterlimit="10"/>
<path opacity="0.08" d="M205.956 443.134L204.661 418.705" stroke="#1E1711" stroke-width="0.5" stroke-miterlimit="10"/>
<path opacity="0.08" d="M246.309 419.96L204.661 418.705" stroke="#1E1711" stroke-width="0.5" stroke-miterlimit="10"/>
<path opacity="0.08" d="M237.332 396.339L246.309 419.96" stroke="#1E1711" stroke-width="0.5" stroke-miterlimit="10"/>
<path opacity="0.08" d="M205.956 471.331L177.867 450.663" stroke="#1E1711" stroke-width="0.5" stroke-miterlimit="10"/>
<path opacity="0.08" d="M205.956 443.134L177.867 450.663" stroke="#1E1711" stroke-width="0.5" stroke-miterlimit="10"/>
<path opacity="0.08" d="M166.237 404.582L150.42 396.339" stroke="#1E1711" stroke-width="0.5" stroke-miterlimit="10"/>
<path opacity="0.08" d="M109.625 428.067L150.42 396.339" stroke="#1E1711" stroke-width="0.5" stroke-miterlimit="10"/>
<path opacity="0.08" d="M96.4031 391.298L109.625 428.067" stroke="#1E1711" stroke-width="0.5" stroke-miterlimit="10"/>
<path opacity="0.08" d="M121.104 350.44L166.237 404.582" stroke="#1E1711" stroke-width="0.5" stroke-miterlimit="10"/>
<path opacity="0.08" d="M153.04 336.325L121.104 350.44" stroke="#1E1711" stroke-width="0.5" stroke-miterlimit="10"/>
<path opacity="0.08" d="M185.448 324.629L258.52 316.517" stroke="#1E1711" stroke-width="0.5" stroke-miterlimit="10"/>
<path opacity="0.08" d="M205.027 276.872L185.448 324.629" stroke="#1E1711" stroke-width="0.5" stroke-miterlimit="10"/>
<path opacity="0.08" d="M219.67 374.295L258.52 316.517" stroke="#1E1711" stroke-width="0.5" stroke-miterlimit="10"/>
<path opacity="0.08" d="M153.04 336.325L128.576 335.145" stroke="#1E1711" stroke-width="0.5" stroke-miterlimit="10"/>
<path opacity="0.08" d="M125.45 301.244L128.576 335.145" stroke="#1E1711" stroke-width="0.5" stroke-miterlimit="10"/>
<path opacity="0.08" d="M121.974 351.712L113.474 341.288" stroke="#1E1711" stroke-width="0.5" stroke-miterlimit="10"/>
<path opacity="0.08" d="M123.186 322.357L128.576 335.145" stroke="#1E1711" stroke-width="0.5" stroke-miterlimit="10"/>
<path opacity="0.08" d="M121.104 350.44L128.576 335.145" stroke="#1E1711" stroke-width="0.5" stroke-miterlimit="10"/>
<path opacity="0.08" d="M123.186 322.357L125.45 301.244" stroke="#1E1711" stroke-width="0.5" stroke-miterlimit="10"/>
<path opacity="0.08" d="M101.19 279.711L125.45 301.244" stroke="#1E1711" stroke-width="0.5" stroke-miterlimit="10"/>
<path opacity="0.08" d="M125.45 273.924L101.19 279.711" stroke="#1E1711" stroke-width="0.5" stroke-miterlimit="10"/>
<path opacity="0.08" d="M128.576 335.145L163.355 317.728" stroke="#1E1711" stroke-width="0.5" stroke-miterlimit="10"/>
<path opacity="0.08" d="M153.04 336.325L163.355 317.728" stroke="#1E1711" stroke-width="0.5" stroke-miterlimit="10"/>
<path opacity="0.08" d="M185.448 324.629L163.355 317.728" stroke="#1E1711" stroke-width="0.5" stroke-miterlimit="10"/>
<path opacity="0.08" d="M205.027 276.872L163.355 317.728" stroke="#1E1711" stroke-width="0.5" stroke-miterlimit="10"/>
<path opacity="0.08" d="M186.195 274.111L205.027 276.872" stroke="#1E1711" stroke-width="0.5" stroke-miterlimit="10"/>
<path opacity="0.08" d="M135.807 261.182L186.195 274.111" stroke="#1E1711" stroke-width="0.5" stroke-miterlimit="10"/>
<path opacity="0.08" d="M125.45 273.924L135.807 261.182" stroke="#1E1711" stroke-width="0.5" stroke-miterlimit="10"/>
<path opacity="0.08" d="M128.576 335.145L113.474 341.288" stroke="#1E1711" stroke-width="0.5" stroke-miterlimit="10"/>
<path opacity="0.08" d="M78.358 358.797L113.474 341.288" stroke="#1E1711" stroke-width="0.5" stroke-miterlimit="10"/>
<path opacity="0.08" d="M96.4031 368.385L78.358 358.797" stroke="#1E1711" stroke-width="0.5" stroke-miterlimit="10"/>
<path opacity="0.08" d="M113.474 341.288L96.4031 368.385" stroke="#1E1711" stroke-width="0.5" stroke-miterlimit="10"/>
<path opacity="0.08" d="M86.4074 324.588L78.358 358.797" stroke="#1E1711" stroke-width="0.5" stroke-miterlimit="10"/>
<path opacity="0.08" d="M38.9619 305.754L86.4075 324.588" stroke="#1E1711" stroke-width="0.5" stroke-miterlimit="10"/>
<path opacity="0.08" d="M101.19 279.711L38.9619 305.754" stroke="#1E1711" stroke-width="0.5" stroke-miterlimit="10"/>
<path opacity="0.08" d="M96.4031 391.298L34.3276 371.699" stroke="#1E1711" stroke-width="0.5" stroke-miterlimit="10"/>
<path opacity="0.08" d="M78.358 358.797L96.4031 391.298" stroke="#1E1711" stroke-width="0.5" stroke-miterlimit="10"/>
<path opacity="0.08" d="M102.484 111.853L66.4815 70.275L86.0948 30.4608L140.865 78.9956L102.484 111.853Z" stroke="#1E1711" stroke-width="0.5" stroke-miterlimit="10"/>
<path opacity="0.08" d="M257.226 215.387L269.35 237.254L299.361 245.299L280.625 170.147L257.226 215.387Z" stroke="#1E1711" stroke-width="0.5" stroke-miterlimit="10"/>
<path opacity="0.08" d="M1.34229 58.9067L11.687 97.3256L61.9878 86.5461L25.1051 23.6854L1.34229 58.9067Z" stroke="#1E1711" stroke-width="0.5" stroke-miterlimit="10"/>
<path opacity="0.08" d="M106.064 135.594L119.897 154.772L150.621 154.876L127.045 106.206L106.064 135.594Z" stroke="#1E1711" stroke-width="0.5" stroke-miterlimit="10"/>
<path opacity="0.08" d="M228.941 213.844L178.649 169.5L200.139 136.367L270.152 165.508L228.941 213.844Z" stroke="#1E1711" stroke-width="0.5" stroke-miterlimit="10"/>
<path opacity="0.08" d="M278.74 110.898L295.384 94.7047L268.063 89.6588L265.581 132.067L278.74 110.898Z" stroke="#1E1711" stroke-width="0.5" stroke-miterlimit="10"/>
<path opacity="0.08" d="M61.7697 177.199L73.4984 111.671L27.7543 112.487L58.5921 204.671L61.7697 177.199Z" stroke="#1E1711" stroke-width="0.5" stroke-miterlimit="10"/>
<path opacity="0.08" d="M151.714 193.581L164.65 178.071L171.65 210.724H161.496L151.714 193.581Z" stroke="#1E1711" stroke-width="0.5" stroke-miterlimit="10"/>
<path opacity="0.08" d="M85.1059 265.436L65.3641 266.73L57.5474 242.092L70.076 251.587L85.1059 265.436Z" stroke="#1E1711" stroke-width="0.5" stroke-miterlimit="10"/>
<path opacity="0.08" d="M167.209 85.1217L179.99 136.367L242.305 94.9178L201.435 42.6744L167.209 85.1217Z" stroke="#1E1711" stroke-width="0.5" stroke-miterlimit="10"/>
<path opacity="0.08" d="M317.566 264.329L283.987 262.478L274.008 295.234L333.491 335.886L317.566 264.329Z" stroke="#1E1711" stroke-width="0.5" stroke-miterlimit="10"/>
<path opacity="0.08" d="M87.3794 251.207L78.9422 206.008L106.064 189.429L126.085 242.421L87.3794 251.207Z" stroke="#1E1711" stroke-width="0.5" stroke-miterlimit="10"/>
<path opacity="0.08" d="M260.455 388.217L258.52 345.69L282.693 322.762L305.663 390.748L260.455 388.217Z" stroke="#1E1711" stroke-width="0.5" stroke-miterlimit="10"/>
<path opacity="0.08" d="M260.2 13.1093L287.456 59.9242L285.47 81.2265L219.141 26.5147L260.2 13.1093Z" stroke="#1E1711" stroke-width="0.5" stroke-miterlimit="10"/>
<path opacity="0.08" d="M140.865 78.9931L167.209 85.1217" stroke="#1E1711" stroke-width="0.5" stroke-miterlimit="10"/>
<path opacity="0.08" d="M179.99 136.365L140.865 78.9931" stroke="#1E1711" stroke-width="0.5" stroke-miterlimit="10"/>
<path opacity="0.08" d="M201.435 42.6744L140.865 78.9931" stroke="#1E1711" stroke-width="0.5" stroke-miterlimit="10"/>
<path opacity="0.08" d="M86.0948 30.4608L153.202 54.704" stroke="#1E1711" stroke-width="0.5" stroke-miterlimit="10"/>
<path opacity="0.08" d="M140.865 78.9931L153.202 54.7039" stroke="#1E1711" stroke-width="0.5" stroke-miterlimit="10"/>
<path opacity="0.08" d="M201.435 42.6744L153.202 54.704" stroke="#1E1711" stroke-width="0.5" stroke-miterlimit="10"/>
<path opacity="0.08" d="M191.006 30.9719L153.202 54.7039" stroke="#1E1711" stroke-width="0.5" stroke-miterlimit="10"/>
<path opacity="0.08" d="M201.435 42.6744L191.006 30.9719" stroke="#1E1711" stroke-width="0.5" stroke-miterlimit="10"/>
<path opacity="0.08" d="M140.865 78.9931L127.045 106.206" stroke="#1E1711" stroke-width="0.5" stroke-miterlimit="10"/>
<path opacity="0.08" d="M102.484 111.853L127.045 106.206" stroke="#1E1711" stroke-width="0.5" stroke-miterlimit="10"/>
<path opacity="0.08" d="M106.064 135.594L102.484 111.853" stroke="#1E1711" stroke-width="0.5" stroke-miterlimit="10"/>
<path opacity="0.08" d="M150.621 154.876L140.865 78.9931" stroke="#1E1711" stroke-width="0.5" stroke-miterlimit="10"/>
<path opacity="0.08" d="M179.99 136.365L150.621 154.876" stroke="#1E1711" stroke-width="0.5" stroke-miterlimit="10"/>
<path opacity="0.08" d="M242.305 94.9154L268.063 89.6564" stroke="#1E1711" stroke-width="0.5" stroke-miterlimit="10"/>
<path opacity="0.08" d="M265.581 132.067L242.305 94.9154" stroke="#1E1711" stroke-width="0.5" stroke-miterlimit="10"/>
<path opacity="0.08" d="M201.435 42.6744L268.063 89.6564" stroke="#1E1711" stroke-width="0.5" stroke-miterlimit="10"/>
<path opacity="0.08" d="M179.99 136.365L167.914 160.928" stroke="#1E1711" stroke-width="0.5" stroke-miterlimit="10"/>
<path opacity="0.08" d="M178.649 169.5L167.914 160.928" stroke="#1E1711" stroke-width="0.5" stroke-miterlimit="10"/>
<path opacity="0.08" d="M150.621 154.876L151.714 193.581" stroke="#1E1711" stroke-width="0.5" stroke-miterlimit="10"/>
<path opacity="0.08" d="M164.65 178.071L167.914 160.928" stroke="#1E1711" stroke-width="0.5" stroke-miterlimit="10"/>
<path opacity="0.08" d="M150.621 154.876L167.914 160.928" stroke="#1E1711" stroke-width="0.5" stroke-miterlimit="10"/>
<path opacity="0.08" d="M164.65 178.071L178.649 169.5" stroke="#1E1711" stroke-width="0.5" stroke-miterlimit="10"/>
<path opacity="0.08" d="M171.65 210.724L178.649 169.5" stroke="#1E1711" stroke-width="0.5" stroke-miterlimit="10"/>
<path opacity="0.08" d="M228.941 213.844L171.65 210.724" stroke="#1E1711" stroke-width="0.5" stroke-miterlimit="10"/>
<path opacity="0.08" d="M167.914 160.928L200.139 136.365" stroke="#1E1711" stroke-width="0.5" stroke-miterlimit="10"/>
<path opacity="0.08" d="M179.99 136.365H200.139" stroke="#1E1711" stroke-width="0.5" stroke-miterlimit="10"/>
<path opacity="0.08" d="M242.305 94.9154L200.139 136.365" stroke="#1E1711" stroke-width="0.5" stroke-miterlimit="10"/>
<path opacity="0.08" d="M265.581 132.067L200.139 136.365" stroke="#1E1711" stroke-width="0.5" stroke-miterlimit="10"/>
<path opacity="0.08" d="M270.152 165.508L265.581 132.067" stroke="#1E1711" stroke-width="0.5" stroke-miterlimit="10"/>
<path opacity="0.08" d="M257.226 215.387L270.152 165.508" stroke="#1E1711" stroke-width="0.5" stroke-miterlimit="10"/>
<path opacity="0.08" d="M228.941 213.844L257.226 215.387" stroke="#1E1711" stroke-width="0.5" stroke-miterlimit="10"/>
<path opacity="0.08" d="M167.914 160.928L151.714 193.581" stroke="#1E1711" stroke-width="0.5" stroke-miterlimit="10"/>
<path opacity="0.08" d="M106.064 189.429L151.714 193.581" stroke="#1E1711" stroke-width="0.5" stroke-miterlimit="10"/>
<path opacity="0.08" d="M119.897 154.772L106.064 189.429" stroke="#1E1711" stroke-width="0.5" stroke-miterlimit="10"/>
<path opacity="0.08" d="M151.714 193.581L119.897 154.772" stroke="#1E1711" stroke-width="0.5" stroke-miterlimit="10"/>
<path opacity="0.08" d="M161.496 210.724L106.064 189.429" stroke="#1E1711" stroke-width="0.5" stroke-miterlimit="10"/>
<path opacity="0.08" d="M126.085 242.421L161.496 210.724" stroke="#1E1711" stroke-width="0.5" stroke-miterlimit="10"/>
<path opacity="0.08" d="M171.65 210.724L126.085 242.421" stroke="#1E1711" stroke-width="0.5" stroke-miterlimit="10"/>
<path opacity="0.08" d="M106.064 135.594L78.9422 206.008" stroke="#1E1711" stroke-width="0.5" stroke-miterlimit="10"/>
<path opacity="0.08" d="M106.064 189.429V135.594" stroke="#1E1711" stroke-width="0.5" stroke-miterlimit="10"/>
<path opacity="0.08" d="M246.309 419.96L260.455 388.217" stroke="#1E1711" stroke-width="0.5" stroke-miterlimit="10"/>
<path opacity="0.08" d="M237.332 396.339L260.455 388.217" stroke="#1E1711" stroke-width="0.5" stroke-miterlimit="10"/>
<path opacity="0.08" d="M258.52 345.689V316.517" stroke="#1E1711" stroke-width="0.5" stroke-miterlimit="10"/>
<path opacity="0.08" d="M237.332 396.339L258.52 345.689" stroke="#1E1711" stroke-width="0.5" stroke-miterlimit="10"/>
<path opacity="0.08" d="M237.332 396.339L219.67 374.295" stroke="#1E1711" stroke-width="0.5" stroke-miterlimit="10"/>
<path opacity="0.08" d="M258.52 345.689L219.67 374.295" stroke="#1E1711" stroke-width="0.5" stroke-miterlimit="10"/>
<path opacity="0.08" d="M246.309 419.96L267.554 412.351" stroke="#1E1711" stroke-width="0.5" stroke-miterlimit="10"/>
<path opacity="0.08" d="M260.455 388.217L267.554 412.351" stroke="#1E1711" stroke-width="0.5" stroke-miterlimit="10"/>
<path opacity="0.08" d="M272.83 471.331L267.554 412.351" stroke="#1E1711" stroke-width="0.5" stroke-miterlimit="10"/>
<path opacity="0.08" d="M294.14 412.351H267.554" stroke="#1E1711" stroke-width="0.5" stroke-miterlimit="10"/>
<path opacity="0.08" d="M246.309 419.96L272.83 471.331" stroke="#1E1711" stroke-width="0.5" stroke-miterlimit="10"/>
<path opacity="0.08" d="M260.198 503.054L272.83 471.331" stroke="#1E1711" stroke-width="0.5" stroke-miterlimit="10"/>
<path opacity="0.08" d="M311.078 471.016L260.198 503.054" stroke="#1E1711" stroke-width="0.5" stroke-miterlimit="10"/>
<path opacity="0.08" d="M294.14 412.351L305.663 390.748" stroke="#1E1711" stroke-width="0.5" stroke-miterlimit="10"/>
<path opacity="0.08" d="M260.455 388.217L294.14 412.351" stroke="#1E1711" stroke-width="0.5" stroke-miterlimit="10"/>
<path opacity="0.08" d="M282.693 322.762L258.52 316.517" stroke="#1E1711" stroke-width="0.5" stroke-miterlimit="10"/>
<path opacity="0.08" d="M274.008 295.234L264.131 265.158" stroke="#1E1711" stroke-width="0.5" stroke-miterlimit="10"/>
<path opacity="0.08" d="M282.693 322.762L274.008 295.234" stroke="#1E1711" stroke-width="0.5" stroke-miterlimit="10"/>
<path opacity="0.08" d="M258.52 316.517L274.008 295.234" stroke="#1E1711" stroke-width="0.5" stroke-miterlimit="10"/>
<path opacity="0.08" d="M283.987 262.478L264.131 265.158" stroke="#1E1711" stroke-width="0.5" stroke-miterlimit="10"/>
<path opacity="0.08" d="M269.35 237.254L264.131 265.158" stroke="#1E1711" stroke-width="0.5" stroke-miterlimit="10"/>
<path opacity="0.08" d="M283.987 262.478L269.35 237.254" stroke="#1E1711" stroke-width="0.5" stroke-miterlimit="10"/>
<path opacity="0.08" d="M223.388 265.458L269.35 237.254" stroke="#1E1711" stroke-width="0.5" stroke-miterlimit="10"/>
<path opacity="0.08" d="M223.388 265.458L257.226 215.387" stroke="#1E1711" stroke-width="0.5" stroke-miterlimit="10"/>
<path opacity="0.08" d="M228.941 213.844L223.388 265.458" stroke="#1E1711" stroke-width="0.5" stroke-miterlimit="10"/>
<path opacity="0.08" d="M205.027 276.872L228.941 213.844" stroke="#1E1711" stroke-width="0.5" stroke-miterlimit="10"/>
<path opacity="0.08" d="M171.65 210.724L186.195 274.111" stroke="#1E1711" stroke-width="0.5" stroke-miterlimit="10"/>
<path opacity="0.08" d="M135.807 261.182L171.65 210.724" stroke="#1E1711" stroke-width="0.5" stroke-miterlimit="10"/>
<path opacity="0.08" d="M270.152 165.508L280.625 170.147" stroke="#1E1711" stroke-width="0.5" stroke-miterlimit="10"/>
<path opacity="0.08" d="M265.581 132.067L280.625 170.147" stroke="#1E1711" stroke-width="0.5" stroke-miterlimit="10"/>
<path opacity="0.08" d="M278.74 110.898L280.625 170.147" stroke="#1E1711" stroke-width="0.5" stroke-miterlimit="10"/>
<path opacity="0.08" d="M283.987 262.478L299.361 245.297" stroke="#1E1711" stroke-width="0.5" stroke-miterlimit="10"/>
<path opacity="0.08" d="M317.566 264.329L299.361 245.297" stroke="#1E1711" stroke-width="0.5" stroke-miterlimit="10"/>
<path opacity="0.08" d="M305.663 390.748L333.491 335.886" stroke="#1E1711" stroke-width="0.5" stroke-miterlimit="10"/>
<path opacity="0.08" d="M282.693 322.762L333.491 335.886" stroke="#1E1711" stroke-width="0.5" stroke-miterlimit="10"/>
<path opacity="0.08" d="M337.625 435.412L305.663 390.748" stroke="#1E1711" stroke-width="0.5" stroke-miterlimit="10"/>
<path opacity="0.08" d="M163.355 452.943L107.281 446.899" stroke="#1E1711" stroke-width="0.5" stroke-miterlimit="10"/>
<path opacity="0.08" d="M109.625 428.067L107.281 446.899" stroke="#1E1711" stroke-width="0.5" stroke-miterlimit="10"/>
<path opacity="0.08" d="M100.027 430.117L109.625 428.067" stroke="#1E1711" stroke-width="0.5" stroke-miterlimit="10"/>
<path opacity="0.08" d="M96.4031 391.298L100.027 430.117" stroke="#1E1711" stroke-width="0.5" stroke-miterlimit="10"/>
<path opacity="0.08" d="M61.7697 389.748L34.3276 371.699" stroke="#1E1711" stroke-width="0.5" stroke-miterlimit="10"/>
<path opacity="0.08" d="M96.4031 391.298L61.7697 389.748" stroke="#1E1711" stroke-width="0.5" stroke-miterlimit="10"/>
<path opacity="0.08" d="M107.281 446.899L100.027 430.117" stroke="#1E1711" stroke-width="0.5" stroke-miterlimit="10"/>
<path opacity="0.08" d="M79.0852 478.988L82.2361 440.366" stroke="#1E1711" stroke-width="0.5" stroke-miterlimit="10"/>
<path opacity="0.08" d="M107.281 446.899L82.2361 440.366" stroke="#1E1711" stroke-width="0.5" stroke-miterlimit="10"/>
<path opacity="0.08" d="M27.1749 440.366L34.3275 371.699" stroke="#1E1711" stroke-width="0.5" stroke-miterlimit="10"/>
<path opacity="0.08" d="M126.085 242.421L135.807 261.182" stroke="#1E1711" stroke-width="0.5" stroke-miterlimit="10"/>
<path opacity="0.08" d="M125.45 273.924L126.085 242.421" stroke="#1E1711" stroke-width="0.5" stroke-miterlimit="10"/>
<path opacity="0.08" d="M101.19 279.711L87.3794 251.207" stroke="#1E1711" stroke-width="0.5" stroke-miterlimit="10"/>
<path opacity="0.08" d="M70.076 251.587L87.3794 251.207" stroke="#1E1711" stroke-width="0.5" stroke-miterlimit="10"/>
<path opacity="0.08" d="M85.1059 265.436L87.3794 251.207" stroke="#1E1711" stroke-width="0.5" stroke-miterlimit="10"/>
<path opacity="0.08" d="M101.19 279.711L85.1059 265.436" stroke="#1E1711" stroke-width="0.5" stroke-miterlimit="10"/>
<path opacity="0.08" d="M38.9619 305.754L65.3641 266.732" stroke="#1E1711" stroke-width="0.5" stroke-miterlimit="10"/>
<path opacity="0.08" d="M78.9422 206.008L70.076 251.587" stroke="#1E1711" stroke-width="0.5" stroke-miterlimit="10"/>
<path opacity="0.08" d="M73.4984 111.668L106.064 135.594" stroke="#1E1711" stroke-width="0.5" stroke-miterlimit="10"/>
<path opacity="0.08" d="M61.7697 177.199L78.9422 206.008" stroke="#1E1711" stroke-width="0.5" stroke-miterlimit="10"/>
<path opacity="0.08" d="M106.064 135.594L61.7697 177.199" stroke="#1E1711" stroke-width="0.5" stroke-miterlimit="10"/>
<path opacity="0.08" d="M102.484 111.853L73.4984 111.668" stroke="#1E1711" stroke-width="0.5" stroke-miterlimit="10"/>
<path opacity="0.08" d="M61.9878 86.5461L102.484 111.853" stroke="#1E1711" stroke-width="0.5" stroke-miterlimit="10"/>
<path opacity="0.08" d="M73.4984 111.669L61.9878 86.5461" stroke="#1E1711" stroke-width="0.5" stroke-miterlimit="10"/>
<path opacity="0.08" d="M11.687 97.3257L27.7543 112.487" stroke="#1E1711" stroke-width="0.5" stroke-miterlimit="10"/>
<path opacity="0.08" d="M61.9878 86.5461L27.7543 112.487" stroke="#1E1711" stroke-width="0.5" stroke-miterlimit="10"/>
<path opacity="0.08" d="M219.141 26.5147L201.435 42.6744" stroke="#1E1711" stroke-width="0.5" stroke-miterlimit="10"/>
<path opacity="0.08" d="M268.063 89.6564L219.141 26.5147" stroke="#1E1711" stroke-width="0.5" stroke-miterlimit="10"/>
<path opacity="0.08" d="M285.47 81.2266L268.063 89.6564" stroke="#1E1711" stroke-width="0.5" stroke-miterlimit="10"/>
<path opacity="0.08" d="M295.384 94.7022L285.47 81.2266" stroke="#1E1711" stroke-width="0.5" stroke-miterlimit="10"/>
<path opacity="0.08" d="M191.006 30.9719L219.141 26.5147" stroke="#1E1711" stroke-width="0.5" stroke-miterlimit="10"/>
<path opacity="0.08" d="M66.4815 70.2749L61.9878 86.5461" stroke="#1E1711" stroke-width="0.5" stroke-miterlimit="10"/>
<path opacity="0.08" d="M86.0948 30.4608L25.1051 23.6854" stroke="#1E1711" stroke-width="0.5" stroke-miterlimit="10"/>
<path opacity="0.08" d="M181.284 421.253L166.237 404.582" stroke="#1E1711" stroke-width="0.5" stroke-miterlimit="10"/>
<path opacity="0.08" d="M166.237 404.582L204.662 418.705" stroke="#1E1711" stroke-width="0.5" stroke-miterlimit="10"/>
<path opacity="0.08" d="M177.867 450.663L181.284 421.253" stroke="#1E1711" stroke-width="0.5" stroke-miterlimit="10"/>
<path opacity="0.08" d="M142.128 508.798L163.355 452.943" stroke="#1E1711" stroke-width="0.5" stroke-miterlimit="10"/>
<path opacity="0.08" d="M205.956 471.331L142.128 508.798" stroke="#1E1711" stroke-width="0.5" stroke-miterlimit="10"/>
<path opacity="0.08" d="M57.5474 242.092L58.5921 204.671" stroke="#1E1711" stroke-width="0.5" stroke-miterlimit="10"/>
<path opacity="0.08" d="M78.9422 206.008L58.5921 204.671" stroke="#1E1711" stroke-width="0.5" stroke-miterlimit="10"/>
<path opacity="0.08" d="M27.7543 112.487L4.45441 148.188" stroke="#1E1711" stroke-width="0.5" stroke-miterlimit="10"/>
<path opacity="0.08" d="M58.5921 204.671L19.7194 206.008" stroke="#1E1711" stroke-width="0.5" stroke-miterlimit="10"/>
<path opacity="0.08" d="M4.45441 148.188L19.7194 206.008" stroke="#1E1711" stroke-width="0.5" stroke-miterlimit="10"/>
<path opacity="0.08" d="M38.9619 305.754L57.5474 242.092" stroke="#1E1711" stroke-width="0.5" stroke-miterlimit="10"/>
<path opacity="0.08" d="M82.2361 440.366L37.1634 468.175" stroke="#1E1711" stroke-width="0.5" stroke-miterlimit="10"/>
<path opacity="0.08" d="M79.0852 478.988L37.1634 468.175" stroke="#1E1711" stroke-width="0.5" stroke-miterlimit="10"/>
<path opacity="0.08" d="M44.7571 478.85L79.0852 478.988" stroke="#1E1711" stroke-width="0.5" stroke-miterlimit="10"/>
<path opacity="0.08" d="M27.1749 440.366L37.1634 468.175" stroke="#1E1711" stroke-width="0.5" stroke-miterlimit="10"/>
<path opacity="0.08" d="M35 493L86 514" stroke="#1E1711" stroke-width="0.5" stroke-miterlimit="10"/>
<path opacity="0.08" d="M6.63342 335.801L25.9776 348.16" stroke="#1E1711" stroke-width="0.5" stroke-miterlimit="10"/>
<path opacity="0.08" d="M38.9618 305.754L18.3451 318.246" stroke="#1E1711" stroke-width="0.5" stroke-miterlimit="10"/>
<path opacity="0.08" d="M6.63342 335.801L18.3451 318.246" stroke="#1E1711" stroke-width="0.5" stroke-miterlimit="10"/>
<path opacity="0.08" d="M25.9776 348.16L18.3451 318.246" stroke="#1E1711" stroke-width="0.5" stroke-miterlimit="10"/>
<path opacity="0.08" d="M18 318L2 264" stroke="#1E1711" stroke-width="0.5" stroke-miterlimit="10"/>
<path opacity="0.08" d="M2 264L16 246" stroke="#1E1711" stroke-width="0.5" stroke-miterlimit="10"/>
<path opacity="0.08" d="M19.7194 206.008L14.261 231.072" stroke="#1E1711" stroke-width="0.5" stroke-miterlimit="10"/>
<path opacity="0.08" d="M1.35193 232.557L14.261 231.072" stroke="#1E1711" stroke-width="0.5" stroke-miterlimit="10"/>
<path opacity="0.08" d="M15.6135 245.764L14.261 231.072" stroke="#1E1711" stroke-width="0.5" stroke-miterlimit="10"/>
<path opacity="0.08" d="M19.7194 206.008L1.495 178.492" stroke="#1E1711" stroke-width="0.5" stroke-miterlimit="10"/>
<path opacity="0.08" d="M14.2611 231.072L1.495 178.492" stroke="#1E1711" stroke-width="0.5" stroke-miterlimit="10"/>
<path opacity="0.08" d="M1.49493 178.492L1.35193 232.557" stroke="#1E1711" stroke-width="0.5" stroke-miterlimit="10"/>
<path opacity="0.08" d="M27.1749 440.366L10.7877 435.427" stroke="#1E1711" stroke-width="0.5" stroke-miterlimit="10"/>
<path opacity="0.08" d="M34 372L2 391" stroke="#1E1711" stroke-width="0.5" stroke-miterlimit="10"/>
<path opacity="0.08" d="M10.7877 435.426L34.3275 371.699" stroke="#1E1711" stroke-width="0.5" stroke-miterlimit="10"/>
<path opacity="0.08" d="M37.1634 468.175L22.5577 458.565" stroke="#1E1711" stroke-width="0.5" stroke-miterlimit="10"/>
<path opacity="0.08" d="M27.175 440.366L22.5577 458.565" stroke="#1E1711" stroke-width="0.5" stroke-miterlimit="10"/>
<path opacity="0.08" d="M10.7877 435.427L22.5576 458.565" stroke="#1E1711" stroke-width="0.5" stroke-miterlimit="10"/>
<path opacity="0.08" d="M27.3955 482.447L22.5577 458.565" stroke="#1E1711" stroke-width="0.5" stroke-miterlimit="10"/>
<path opacity="0.08" d="M2 471L27 482" stroke="#1E1711" stroke-width="0.5" stroke-miterlimit="10"/>
<path opacity="0.08" d="M153.202 54.704L142.162 19.0974" stroke="#1E1711" stroke-width="0.5" stroke-miterlimit="10"/>
<path opacity="0.08" d="M191.006 30.9719L142.162 19.0974" stroke="#1E1711" stroke-width="0.5" stroke-miterlimit="10"/>
<path opacity="0.08" d="M206.884 9.16327L219.141 26.5147" stroke="#1E1711" stroke-width="0.5" stroke-miterlimit="10"/>
<path opacity="0.08" d="M305 1C295.701 31.6664 296.754 29.2578 287.456 59.9242" stroke="#1E1711" stroke-width="0.5" stroke-miterlimit="10"/>
<path opacity="0.08" d="M351.916 24.0657L287.456 59.9242" stroke="#1E1711" stroke-width="0.5" stroke-miterlimit="10"/>
<path opacity="0.08" d="M328.018 59.178L287.456 59.9241" stroke="#1E1711" stroke-width="0.5" stroke-miterlimit="10"/>
<path opacity="0.08" d="M351.916 24.0657C304.5 1 351.916 24.0657 304.5 1" stroke="#1E1711" stroke-width="0.5" stroke-miterlimit="10"/>
<path opacity="0.08" d="M287.456 59.9242L311.403 79.1166" stroke="#1E1711" stroke-width="0.5" stroke-miterlimit="10"/>
<path opacity="0.08" d="M328.018 59.178L311.403 79.1166" stroke="#1E1711" stroke-width="0.5" stroke-miterlimit="10"/>
<path opacity="0.08" d="M295.384 94.7022L311.403 79.1166" stroke="#1E1711" stroke-width="0.5" stroke-miterlimit="10"/>
<path opacity="0.08" d="M338.367 96.8097L311.403 79.1166" stroke="#1E1711" stroke-width="0.5" stroke-miterlimit="10"/>
<path opacity="0.08" d="M295.384 94.7022L338.367 96.8097" stroke="#1E1711" stroke-width="0.5" stroke-miterlimit="10"/>
<path opacity="0.08" d="M331.59 148.646L278.74 110.898" stroke="#1E1711" stroke-width="0.5" stroke-miterlimit="10"/>
<path opacity="0.08" d="M338.367 96.8097L331.59 148.646" stroke="#1E1711" stroke-width="0.5" stroke-miterlimit="10"/>
<path opacity="0.08" d="M328.561 178.071L331.59 148.646" stroke="#1E1711" stroke-width="0.5" stroke-miterlimit="10"/>
<path opacity="0.08" d="M280.625 170.147L328.561 178.071" stroke="#1E1711" stroke-width="0.5" stroke-miterlimit="10"/>
<path opacity="0.08" d="M16 246L1 233" stroke="#1E1711" stroke-width="0.5" stroke-miterlimit="10"/>
<path opacity="0.08" d="M38 264L1 233" stroke="#1E1711" stroke-width="0.5" stroke-miterlimit="10"/>
<path opacity="0.08" d="M57.5474 242.092L30.9755 229.151" stroke="#1E1711" stroke-width="0.5" stroke-miterlimit="10"/>
<path opacity="0.08" d="M15.6135 245.764L30.9755 229.151" stroke="#1E1711" stroke-width="0.5" stroke-miterlimit="10"/>
<path opacity="0.08" d="M19.7194 206.008L30.9755 229.151" stroke="#1E1711" stroke-width="0.5" stroke-miterlimit="10"/>
<path opacity="0.08" d="M38.9619 305.754L38.0408 248.339" stroke="#1E1711" stroke-width="0.5" stroke-miterlimit="10"/>
<path opacity="0.08" d="M57.5475 242.092L38.0408 248.339" stroke="#1E1711" stroke-width="0.5" stroke-miterlimit="10"/>
<path opacity="0.08" d="M15.6135 245.764L38.0408 248.339" stroke="#1E1711" stroke-width="0.5" stroke-miterlimit="10"/>
<path opacity="0.08" d="M191 514L207 499" stroke="#1E1711" stroke-width="0.5" stroke-miterlimit="10"/>
<path opacity="0.08" d="M205.956 471.331L206.782 498.868" stroke="#1E1711" stroke-width="0.5" stroke-miterlimit="10"/>
<path opacity="0.08" d="M24.9766 514.229L35.3916 493.372" stroke="#1E1711" stroke-width="0.5" stroke-miterlimit="10"/>
<path opacity="0.08" d="M150.42 397.635C151.136 397.635 151.716 397.055 151.716 396.339C151.716 395.623 151.136 395.043 150.42 395.043C149.703 395.043 149.123 395.623 149.123 396.339C149.123 397.055 149.703 397.635 150.42 397.635Z" fill="#1E1711"/>
<path opacity="0.08" d="M109.625 429.363C110.341 429.363 110.922 428.783 110.922 428.067C110.922 427.352 110.341 426.771 109.625 426.771C108.909 426.771 108.328 427.352 108.328 428.067C108.328 428.783 108.909 429.363 109.625 429.363Z" fill="#1E1711"/>
<path opacity="0.08" d="M100.027 431.413C100.743 431.413 101.323 430.832 101.323 430.117C101.323 429.401 100.743 428.821 100.027 428.821C99.3106 428.821 98.73 429.401 98.73 430.117C98.73 430.832 99.3106 431.413 100.027 431.413Z" fill="#1E1711"/>
<path opacity="0.08" d="M82.2361 441.662C82.9522 441.662 83.5328 441.082 83.5328 440.366C83.5328 439.65 82.9522 439.07 82.2361 439.07C81.5199 439.07 80.9394 439.65 80.9394 440.366C80.9394 441.082 81.5199 441.662 82.2361 441.662Z" fill="#1E1711"/>
<path opacity="0.08" d="M37.1634 469.47C37.8796 469.47 38.4601 468.89 38.4601 468.174C38.4601 467.459 37.8796 466.878 37.1634 466.878C36.4473 466.878 35.8667 467.459 35.8667 468.174C35.8667 468.89 36.4473 469.47 37.1634 469.47Z" fill="#1E1711"/>
<path opacity="0.08" d="M22.5577 459.861C23.2739 459.861 23.8544 459.281 23.8544 458.565C23.8544 457.849 23.2739 457.269 22.5577 457.269C21.8416 457.269 21.261 457.849 21.261 458.565C21.261 459.281 21.8416 459.861 22.5577 459.861Z" fill="#1E1711"/>
<path opacity="0.08" d="M27.3955 483.743C28.1117 483.743 28.6923 483.163 28.6923 482.447C28.6923 481.731 28.1117 481.151 27.3955 481.151C26.6794 481.151 26.0988 481.731 26.0988 482.447C26.0988 483.163 26.6794 483.743 27.3955 483.743Z" fill="#1E1711"/>
<path opacity="0.08" d="M35.3916 494.668C36.1078 494.668 36.6884 494.088 36.6884 493.372C36.6884 492.656 36.1078 492.076 35.3916 492.076C34.6755 492.076 34.0949 492.656 34.0949 493.372C34.0949 494.088 34.6755 494.668 35.3916 494.668Z" fill="#1E1711"/>
<path opacity="0.08" d="M27.175 441.662C27.8912 441.662 28.4717 441.082 28.4717 440.366C28.4717 439.65 27.8912 439.07 27.175 439.07C26.4589 439.07 25.8783 439.65 25.8783 440.366C25.8783 441.082 26.4589 441.662 27.175 441.662Z" fill="#1E1711"/>
<path opacity="0.08" d="M10.7878 436.723C11.504 436.723 12.0845 436.142 12.0845 435.427C12.0845 434.711 11.504 434.131 10.7878 434.131C10.0717 434.131 9.49109 434.711 9.49109 435.427C9.49109 436.142 10.0717 436.723 10.7878 436.723Z" fill="#1E1711"/>
<path opacity="0.08" d="M44.871 479.727C45.5872 479.727 46.1677 479.147 46.1677 478.431C46.1677 477.715 45.5872 477.135 44.871 477.135C44.1548 477.135 43.5743 477.715 43.5743 478.431C43.5743 479.147 44.1548 479.727 44.871 479.727Z" fill="#1E1711"/>
<path opacity="0.08" d="M107.281 448.195C107.997 448.195 108.578 447.614 108.578 446.899C108.578 446.183 107.997 445.603 107.281 445.603C106.565 445.603 105.984 446.183 105.984 446.899C105.984 447.614 106.565 448.195 107.281 448.195Z" fill="#1E1711"/>
<path opacity="0.08" d="M79.0852 480.284C79.8013 480.284 80.3819 479.704 80.3819 478.988C80.3819 478.272 79.8013 477.692 79.0852 477.692C78.369 477.692 77.7885 478.272 77.7885 478.988C77.7885 479.704 78.369 480.284 79.0852 480.284Z" fill="#1E1711"/>
<path opacity="0.08" d="M163.355 454.239C164.072 454.239 164.652 453.658 164.652 452.943C164.652 452.227 164.072 451.647 163.355 451.647C162.639 451.647 162.059 452.227 162.059 452.943C162.059 453.658 162.639 454.239 163.355 454.239Z" fill="#1E1711"/>
<path opacity="0.08" d="M177.867 451.959C178.583 451.959 179.163 451.379 179.163 450.663C179.163 449.947 178.583 449.367 177.867 449.367C177.15 449.367 176.57 449.947 176.57 450.663C176.57 451.379 177.15 451.959 177.867 451.959Z" fill="#1E1711"/>
<path opacity="0.08" d="M205.956 472.627C206.672 472.627 207.253 472.047 207.253 471.331C207.253 470.615 206.672 470.035 205.956 470.035C205.24 470.035 204.659 470.615 204.659 471.331C204.659 472.047 205.24 472.627 205.956 472.627Z" fill="#1E1711"/>
<path opacity="0.08" d="M206.37 500.46C207.086 500.46 207.667 499.88 207.667 499.164C207.667 498.448 207.086 497.868 206.37 497.868C205.654 497.868 205.074 498.448 205.074 499.164C205.074 499.88 205.654 500.46 206.37 500.46Z" fill="#1E1711"/>
<path opacity="0.08" d="M96.4032 369.681C97.1193 369.681 97.6999 369.101 97.6999 368.385C97.6999 367.669 97.1193 367.089 96.4032 367.089C95.687 367.089 95.1064 367.669 95.1064 368.385C95.1064 369.101 95.687 369.681 96.4032 369.681Z" fill="#1E1711"/>
<path opacity="0.08" d="M78.358 360.093C79.0742 360.093 79.6547 359.513 79.6547 358.797C79.6547 358.081 79.0742 357.501 78.358 357.501C77.6419 357.501 77.0613 358.081 77.0613 358.797C77.0613 359.513 77.6419 360.093 78.358 360.093Z" fill="#1E1711"/>
<path opacity="0.08" d="M96.4032 392.594C97.1193 392.594 97.6999 392.014 97.6999 391.298C97.6999 390.582 97.1193 390.002 96.4032 390.002C95.687 390.002 95.1064 390.582 95.1064 391.298C95.1064 392.014 95.687 392.594 96.4032 392.594Z" fill="#1E1711"/>
<path opacity="0.08" d="M61.7696 391.044C62.4858 391.044 63.0664 390.464 63.0664 389.748C63.0664 389.032 62.4858 388.452 61.7696 388.452C61.0535 388.452 60.4729 389.032 60.4729 389.748C60.4729 390.464 61.0535 391.044 61.7696 391.044Z" fill="#1E1711"/>
<path opacity="0.08" d="M26.1013 349.534C26.8175 349.534 27.398 348.954 27.398 348.238C27.398 347.522 26.8175 346.942 26.1013 346.942C25.3851 346.942 24.8046 347.522 24.8046 348.238C24.8046 348.954 25.3851 349.534 26.1013 349.534Z" fill="#1E1711"/>
<path opacity="0.08" d="M18.3451 319.542C19.0613 319.542 19.6419 318.962 19.6419 318.246C19.6419 317.531 19.0613 316.95 18.3451 316.95C17.629 316.95 17.0484 317.531 17.0484 318.246C17.0484 318.962 17.629 319.542 18.3451 319.542Z" fill="#1E1711"/>
<path opacity="0.08" d="M38.9618 307.05C39.678 307.05 40.2586 306.47 40.2586 305.754C40.2586 305.038 39.678 304.458 38.9618 304.458C38.2457 304.458 37.6651 305.038 37.6651 305.754C37.6651 306.47 38.2457 307.05 38.9618 307.05Z" fill="#1E1711"/>
<path opacity="0.08" d="M34.3276 372.995C35.0437 372.995 35.6243 372.414 35.6243 371.699C35.6243 370.983 35.0437 370.403 34.3276 370.403C33.6114 370.403 33.0308 370.983 33.0308 371.699C33.0308 372.414 33.6114 372.995 34.3276 372.995Z" fill="#1E1711"/>
<path opacity="0.08" d="M113.474 342.584C114.19 342.584 114.771 342.004 114.771 341.288C114.771 340.572 114.19 339.992 113.474 339.992C112.758 339.992 112.177 340.572 112.177 341.288C112.177 342.004 112.758 342.584 113.474 342.584Z" fill="#1E1711"/>
<path opacity="0.08" d="M86.4075 325.884C87.1236 325.884 87.7042 325.304 87.7042 324.588C87.7042 323.872 87.1236 323.292 86.4075 323.292C85.6913 323.292 85.1107 323.872 85.1107 324.588C85.1107 325.304 85.6913 325.884 86.4075 325.884Z" fill="#1E1711"/>
<path opacity="0.08" d="M128.24 336.262C128.956 336.262 129.536 335.681 129.536 334.966C129.536 334.25 128.956 333.67 128.24 333.67C127.523 333.67 126.943 334.25 126.943 334.966C126.943 335.681 127.523 336.262 128.24 336.262Z" fill="#1E1711"/>
<path opacity="0.08" d="M153.04 337.621C153.756 337.621 154.336 337.04 154.336 336.325C154.336 335.609 153.756 335.029 153.04 335.029C152.324 335.029 151.743 335.609 151.743 336.325C151.743 337.04 152.324 337.621 153.04 337.621Z" fill="#1E1711"/>
<path opacity="0.08" d="M182.581 370.422C183.297 370.422 183.878 369.842 183.878 369.126C183.878 368.41 183.297 367.83 182.581 367.83C181.865 367.83 181.284 368.41 181.284 369.126C181.284 369.842 181.865 370.422 182.581 370.422Z" fill="#1E1711"/>
<path opacity="0.08" d="M166.521 405.719C167.237 405.719 167.818 405.138 167.818 404.423C167.818 403.707 167.237 403.126 166.521 403.126C165.805 403.126 165.224 403.707 165.224 404.423C165.224 405.138 165.805 405.719 166.521 405.719Z" fill="#1E1711"/>
<path opacity="0.08" d="M181.284 422.549C182 422.549 182.581 421.969 182.581 421.253C182.581 420.537 182 419.957 181.284 419.957C180.568 419.957 179.987 420.537 179.987 421.253C179.987 421.969 180.568 422.549 181.284 422.549Z" fill="#1E1711"/>
<path opacity="0.08" d="M204.661 420.001C205.378 420.001 205.958 419.421 205.958 418.705C205.958 417.989 205.378 417.409 204.661 417.409C203.945 417.409 203.365 417.989 203.365 418.705C203.365 419.421 203.945 420.001 204.661 420.001Z" fill="#1E1711"/>
<path opacity="0.08" d="M121.104 351.736C121.82 351.736 122.401 351.156 122.401 350.44C122.401 349.724 121.82 349.144 121.104 349.144C120.388 349.144 119.807 349.724 119.807 350.44C119.807 351.156 120.388 351.736 121.104 351.736Z" fill="#1E1711"/>
<path opacity="0.08" d="M123.186 323.653C123.902 323.653 124.483 323.073 124.483 322.357C124.483 321.641 123.902 321.061 123.186 321.061C122.47 321.061 121.889 321.641 121.889 322.357C121.889 323.073 122.47 323.653 123.186 323.653Z" fill="#1E1711"/>
<path opacity="0.08" d="M125.45 302.54C126.166 302.54 126.746 301.96 126.746 301.244C126.746 300.528 126.166 299.948 125.45 299.948C124.734 299.948 124.153 300.528 124.153 301.244C124.153 301.96 124.734 302.54 125.45 302.54Z" fill="#1E1711"/>
<path opacity="0.08" d="M101.19 281.007C101.906 281.007 102.487 280.427 102.487 279.711C102.487 278.995 101.906 278.415 101.19 278.415C100.474 278.415 99.8934 278.995 99.8934 279.711C99.8934 280.427 100.474 281.007 101.19 281.007Z" fill="#1E1711"/>
<path opacity="0.08" d="M125.45 275.22C126.166 275.22 126.746 274.64 126.746 273.924C126.746 273.208 126.166 272.628 125.45 272.628C124.734 272.628 124.153 273.208 124.153 273.924C124.153 274.64 124.734 275.22 125.45 275.22Z" fill="#1E1711"/>
<path opacity="0.08" d="M186.195 275.407C186.911 275.407 187.491 274.826 187.491 274.111C187.491 273.395 186.911 272.815 186.195 272.815C185.478 272.815 184.898 273.395 184.898 274.111C184.898 274.826 185.478 275.407 186.195 275.407Z" fill="#1E1711"/>
<path opacity="0.08" d="M205.027 278.168C205.744 278.168 206.324 277.588 206.324 276.872C206.324 276.156 205.744 275.576 205.027 275.576C204.311 275.576 203.731 276.156 203.731 276.872C203.731 277.588 204.311 278.168 205.027 278.168Z" fill="#1E1711"/>
<path opacity="0.08" d="M185.448 325.925C186.164 325.925 186.745 325.345 186.745 324.629C186.745 323.914 186.164 323.333 185.448 323.333C184.732 323.333 184.151 323.914 184.151 324.629C184.151 325.345 184.732 325.925 185.448 325.925Z" fill="#1E1711"/>
<path opacity="0.08" d="M135.807 262.478C136.523 262.478 137.103 261.898 137.103 261.182C137.103 260.467 136.523 259.886 135.807 259.886C135.09 259.886 134.51 260.467 134.51 261.182C134.51 261.898 135.09 262.478 135.807 262.478Z" fill="#1E1711"/>
<path opacity="0.08" d="M126.085 243.717C126.801 243.717 127.382 243.137 127.382 242.421C127.382 241.705 126.801 241.125 126.085 241.125C125.369 241.125 124.788 241.705 124.788 242.421C124.788 243.137 125.369 243.717 126.085 243.717Z" fill="#1E1711"/>
<path opacity="0.08" d="M85.1059 266.732C85.8221 266.732 86.4026 266.152 86.4026 265.436C86.4026 264.72 85.8221 264.14 85.1059 264.14C84.3897 264.14 83.8091 264.72 83.8091 265.436C83.8091 266.152 84.3897 266.732 85.1059 266.732Z" fill="#1E1711"/>
<path opacity="0.08" d="M65.3641 268.028C66.0803 268.028 66.6608 267.448 66.6608 266.732C66.6608 266.016 66.0803 265.436 65.3641 265.436C64.6479 265.436 64.0674 266.016 64.0674 266.732C64.0674 267.448 64.6479 268.028 65.3641 268.028Z" fill="#1E1711"/>
<path opacity="0.08" d="M87.3794 252.503C88.0956 252.503 88.6761 251.923 88.6761 251.207C88.6761 250.491 88.0956 249.911 87.3794 249.911C86.6632 249.911 86.0826 250.491 86.0826 251.207C86.0826 251.923 86.6632 252.503 87.3794 252.503Z" fill="#1E1711"/>
<path opacity="0.08" d="M70.076 252.883C70.7922 252.883 71.3727 252.303 71.3727 251.587C71.3727 250.872 70.7922 250.292 70.076 250.292C69.3599 250.292 68.7793 250.872 68.7793 251.587C68.7793 252.303 69.3599 252.883 70.076 252.883Z" fill="#1E1711"/>
<path opacity="0.08" d="M57.5474 243.388C58.2636 243.388 58.8442 242.807 58.8442 242.092C58.8442 241.376 58.2636 240.796 57.5474 240.796C56.8313 240.796 56.2507 241.376 56.2507 242.092C56.2507 242.807 56.8313 243.388 57.5474 243.388Z" fill="#1E1711"/>
<path opacity="0.08" d="M38.0408 249.635C38.757 249.635 39.3375 249.055 39.3375 248.339C39.3375 247.623 38.757 247.043 38.0408 247.043C37.3246 247.043 36.7441 247.623 36.7441 248.339C36.7441 249.055 37.3246 249.635 38.0408 249.635Z" fill="#1E1711"/>
<path opacity="0.08" d="M30.9754 230.447C31.6916 230.447 32.2722 229.867 32.2722 229.151C32.2722 228.436 31.6916 227.855 30.9754 227.855C30.2593 227.855 29.6787 228.436 29.6787 229.151C29.6787 229.867 30.2593 230.447 30.9754 230.447Z" fill="#1E1711"/>
<path opacity="0.08" d="M19.7195 207.304C20.4356 207.304 21.0162 206.724 21.0162 206.008C21.0162 205.292 20.4356 204.712 19.7195 204.712C19.0033 204.712 18.4227 205.292 18.4227 206.008C18.4227 206.724 19.0033 207.304 19.7195 207.304Z" fill="#1E1711"/>
<path opacity="0.08" d="M4.45443 149.484C5.17058 149.484 5.75114 148.904 5.75114 148.188C5.75114 147.473 5.17058 146.892 4.45443 146.892C3.73827 146.892 3.15771 147.473 3.15771 148.188C3.15771 148.904 3.73827 149.484 4.45443 149.484Z" fill="#1E1711"/>
<path opacity="0.08" d="M1.49497 179.788C2.21113 179.788 2.79169 179.208 2.79169 178.492C2.79169 177.776 2.21113 177.196 1.49497 177.196C0.778806 177.196 0.198242 177.776 0.198242 178.492C0.198242 179.208 0.778806 179.788 1.49497 179.788Z" fill="#1E1711"/>
<path opacity="0.08" d="M15.6135 247.06C16.3297 247.06 16.9102 246.48 16.9102 245.764C16.9102 245.048 16.3297 244.468 15.6135 244.468C14.8973 244.468 14.3168 245.048 14.3168 245.764C14.3168 246.48 14.8973 247.06 15.6135 247.06Z" fill="#1E1711"/>
<path opacity="0.08" d="M14.2611 232.368C14.9772 232.368 15.5578 231.788 15.5578 231.072C15.5578 230.357 14.9772 229.776 14.2611 229.776C13.5449 229.776 12.9644 230.357 12.9644 231.072C12.9644 231.788 13.5449 232.368 14.2611 232.368Z" fill="#1E1711"/>
<path opacity="0.08" d="M1.35196 233.853C2.06812 233.853 2.64869 233.273 2.64869 232.557C2.64869 231.841 2.06812 231.261 1.35196 231.261C0.635798 231.261 0.0552368 231.841 0.0552368 232.557C0.0552368 233.273 0.635798 233.853 1.35196 233.853Z" fill="#1E1711"/>
<path opacity="0.08" d="M163.355 319.024C164.072 319.024 164.652 318.444 164.652 317.728C164.652 317.012 164.072 316.432 163.355 316.432C162.639 316.432 162.059 317.012 162.059 317.728C162.059 318.444 162.639 319.024 163.355 319.024Z" fill="#1E1711"/>
<path opacity="0.08" d="M260.455 389.513C261.171 389.513 261.751 388.933 261.751 388.217C261.751 387.501 261.171 386.921 260.455 386.921C259.738 386.921 259.158 387.501 259.158 388.217C259.158 388.933 259.738 389.513 260.455 389.513Z" fill="#1E1711"/>
<path opacity="0.08" d="M258.52 346.986C259.237 346.986 259.817 346.405 259.817 345.69C259.817 344.974 259.237 344.394 258.52 344.394C257.804 344.394 257.224 344.974 257.224 345.69C257.224 346.405 257.804 346.986 258.52 346.986Z" fill="#1E1711"/>
<path opacity="0.08" d="M282.693 324.058C283.409 324.058 283.99 323.478 283.99 322.762C283.99 322.046 283.409 321.466 282.693 321.466C281.977 321.466 281.396 322.046 281.396 322.762C281.396 323.478 281.977 324.058 282.693 324.058Z" fill="#1E1711"/>
<path opacity="0.08" d="M333.491 337.182C334.207 337.182 334.787 336.602 334.787 335.886C334.787 335.17 334.207 334.59 333.491 334.59C332.774 334.59 332.194 335.17 332.194 335.886C332.194 336.602 332.774 337.182 333.491 337.182Z" fill="#1E1711"/>
<path opacity="0.08" d="M305.891 391.591C306.607 391.591 307.188 391.011 307.188 390.295C307.188 389.579 306.607 388.999 305.891 388.999C305.175 388.999 304.594 389.579 304.594 390.295C304.594 391.011 305.175 391.591 305.891 391.591Z" fill="#1E1711"/>
<path opacity="0.08" d="M258.52 317.813C259.237 317.813 259.817 317.233 259.817 316.517C259.817 315.801 259.237 315.221 258.52 315.221C257.804 315.221 257.224 315.801 257.224 316.517C257.224 317.233 257.804 317.813 258.52 317.813Z" fill="#1E1711"/>
<path opacity="0.08" d="M264.376 265.988C265.092 265.988 265.673 265.408 265.673 264.693C265.673 263.977 265.092 263.397 264.376 263.397C263.66 263.397 263.08 263.977 263.08 264.693C263.08 265.408 263.66 265.988 264.376 265.988Z" fill="#1E1711"/>
<path opacity="0.08" d="M223.388 266.754C224.104 266.754 224.684 266.174 224.684 265.458C224.684 264.742 224.104 264.162 223.388 264.162C222.672 264.162 222.091 264.742 222.091 265.458C222.091 266.174 222.672 266.754 223.388 266.754Z" fill="#1E1711"/>
<path opacity="0.08" d="M268.848 238.759C269.564 238.759 270.145 238.178 270.145 237.463C270.145 236.747 269.564 236.167 268.848 236.167C268.132 236.167 267.551 236.747 267.551 237.463C267.551 238.178 268.132 238.759 268.848 238.759Z" fill="#1E1711"/>
<path opacity="0.08" d="M283.987 263.774C284.703 263.774 285.284 263.194 285.284 262.478C285.284 261.763 284.703 261.182 283.987 261.182C283.271 261.182 282.69 261.763 282.69 262.478C282.69 263.194 283.271 263.774 283.987 263.774Z" fill="#1E1711"/>
<path opacity="0.08" d="M299.361 246.592C300.077 246.592 300.658 246.012 300.658 245.297C300.658 244.581 300.077 244.001 299.361 244.001C298.645 244.001 298.064 244.581 298.064 245.297C298.064 246.012 298.645 246.592 299.361 246.592Z" fill="#1E1711"/>
<path opacity="0.08" d="M317.079 265.114C317.795 265.114 318.376 264.534 318.376 263.818C318.376 263.102 317.795 262.522 317.079 262.522C316.363 262.522 315.782 263.102 315.782 263.818C315.782 264.534 316.363 265.114 317.079 265.114Z" fill="#1E1711"/>
<path opacity="0.08" d="M274.008 296.53C274.725 296.53 275.305 295.95 275.305 295.234C275.305 294.518 274.725 293.938 274.008 293.938C273.292 293.938 272.712 294.518 272.712 295.234C272.712 295.95 273.292 296.53 274.008 296.53Z" fill="#1E1711"/>
<path opacity="0.08" d="M294.14 413.647C294.857 413.647 295.437 413.067 295.437 412.351C295.437 411.635 294.857 411.055 294.14 411.055C293.424 411.055 292.844 411.635 292.844 412.351C292.844 413.067 293.424 413.647 294.14 413.647Z" fill="#1E1711"/>
<path opacity="0.08" d="M267.554 413.647C268.27 413.647 268.851 413.067 268.851 412.351C268.851 411.635 268.27 411.055 267.554 411.055C266.838 411.055 266.257 411.635 266.257 412.351C266.257 413.067 266.838 413.647 267.554 413.647Z" fill="#1E1711"/>
<path opacity="0.08" d="M272.83 472.627C273.547 472.627 274.127 472.047 274.127 471.331C274.127 470.615 273.547 470.035 272.83 470.035C272.114 470.035 271.534 470.615 271.534 471.331C271.534 472.047 272.114 472.627 272.83 472.627Z" fill="#1E1711"/>
<path opacity="0.08" d="M311.078 472.312C311.794 472.312 312.374 471.732 312.374 471.016C312.374 470.3 311.794 469.72 311.078 469.72C310.362 469.72 309.781 470.3 309.781 471.016C309.781 471.732 310.362 472.312 311.078 472.312Z" fill="#1E1711"/>
<path opacity="0.08" d="M237.332 397.635C238.048 397.635 238.628 397.055 238.628 396.339C238.628 395.623 238.048 395.043 237.332 395.043C236.615 395.043 236.035 395.623 236.035 396.339C236.035 397.055 236.615 397.635 237.332 397.635Z" fill="#1E1711"/>
<path opacity="0.08" d="M219.67 375.591C220.386 375.591 220.966 375.011 220.966 374.295C220.966 373.58 220.386 372.999 219.67 372.999C218.953 372.999 218.373 373.58 218.373 374.295C218.373 375.011 218.953 375.591 219.67 375.591Z" fill="#1E1711"/>
<path opacity="0.08" d="M205.956 444.431C206.672 444.431 207.253 443.85 207.253 443.134C207.253 442.419 206.672 441.838 205.956 441.838C205.24 441.838 204.659 442.419 204.659 443.134C204.659 443.85 205.24 444.431 205.956 444.431Z" fill="#1E1711"/>
<path opacity="0.08" d="M246.309 421.256C247.026 421.256 247.606 420.675 247.606 419.96C247.606 419.244 247.026 418.664 246.309 418.664C245.593 418.664 245.013 419.244 245.013 419.96C245.013 420.675 245.593 421.256 246.309 421.256Z" fill="#1E1711"/>
<path opacity="0.08" d="M140.865 80.2891C141.581 80.2891 142.162 79.7088 142.162 78.9931C142.162 78.2773 141.581 77.6971 140.865 77.6971C140.149 77.6971 139.568 78.2773 139.568 78.9931C139.568 79.7088 140.149 80.2891 140.865 80.2891Z" fill="#1E1711"/>
<path opacity="0.08" d="M127.045 107.502C127.761 107.502 128.341 106.922 128.341 106.206C128.341 105.49 127.761 104.91 127.045 104.91C126.328 104.91 125.748 105.49 125.748 106.206C125.748 106.922 126.328 107.502 127.045 107.502Z" fill="#1E1711"/>
<path opacity="0.08" d="M102.484 113.149C103.201 113.149 103.781 112.568 103.781 111.853C103.781 111.137 103.201 110.557 102.484 110.557C101.768 110.557 101.188 111.137 101.188 111.853C101.188 112.568 101.768 113.149 102.484 113.149Z" fill="#1E1711"/>
<path opacity="0.08" d="M61.9878 87.842C62.704 87.842 63.2846 87.2618 63.2846 86.5461C63.2846 85.8303 62.704 85.2501 61.9878 85.2501C61.2717 85.2501 60.6911 85.8303 60.6911 86.5461C60.6911 87.2618 61.2717 87.842 61.9878 87.842Z" fill="#1E1711"/>
<path opacity="0.08" d="M27.7542 113.783C28.4704 113.783 29.051 113.203 29.051 112.487C29.051 111.772 28.4704 111.191 27.7542 111.191C27.0381 111.191 26.4575 111.772 26.4575 112.487C26.4575 113.203 27.0381 113.783 27.7542 113.783Z" fill="#1E1711"/>
<path opacity="0.08" d="M25.1051 24.9814C25.8212 24.9814 26.4018 24.4012 26.4018 23.6854C26.4018 22.9697 25.8212 22.3894 25.1051 22.3894C24.3889 22.3894 23.8083 22.9697 23.8083 23.6854C23.8083 24.4012 24.3889 24.9814 25.1051 24.9814Z" fill="#1E1711"/>
<path opacity="0.08" d="M12.0869 98.9995C12.8031 98.9995 13.3837 98.4193 13.3837 97.7036C13.3837 96.9878 12.8031 96.4076 12.0869 96.4076C11.3708 96.4076 10.7902 96.9878 10.7902 97.7036C10.7902 98.4193 11.3708 98.9995 12.0869 98.9995Z" fill="#1E1711"/>
<path opacity="0.08" d="M66.4815 71.571C67.1977 71.571 67.7782 70.9907 67.7782 70.275C67.7782 69.5592 67.1977 68.979 66.4815 68.979C65.7653 68.979 65.1848 69.5592 65.1848 70.275C65.1848 70.9907 65.7653 71.571 66.4815 71.571Z" fill="#1E1711"/>
<path opacity="0.08" d="M86.0948 31.7568C86.811 31.7568 87.3916 31.1765 87.3916 30.4608C87.3916 29.7451 86.811 29.1648 86.0948 29.1648C85.3787 29.1648 84.7981 29.7451 84.7981 30.4608C84.7981 31.1765 85.3787 31.7568 86.0948 31.7568Z" fill="#1E1711"/>
<path opacity="0.08" d="M1.7955 60.2899C2.51166 60.2899 3.09222 59.7097 3.09222 58.9939C3.09222 58.2782 2.51166 57.698 1.7955 57.698C1.07934 57.698 0.498779 58.2782 0.498779 58.9939C0.498779 59.7097 1.07934 60.2899 1.7955 60.2899Z" fill="#1E1711"/>
<path opacity="0.08" d="M73.4984 112.965C74.2145 112.965 74.7951 112.384 74.7951 111.669C74.7951 110.953 74.2145 110.373 73.4984 110.373C72.7822 110.373 72.2016 110.953 72.2016 111.669C72.2016 112.384 72.7822 112.965 73.4984 112.965Z" fill="#1E1711"/>
<path opacity="0.08" d="M106.064 136.89C106.781 136.89 107.361 136.31 107.361 135.594C107.361 134.879 106.781 134.298 106.064 134.298C105.348 134.298 104.768 134.879 104.768 135.594C104.768 136.31 105.348 136.89 106.064 136.89Z" fill="#1E1711"/>
<path opacity="0.08" d="M119.897 156.068C120.613 156.068 121.194 155.488 121.194 154.772C121.194 154.057 120.613 153.476 119.897 153.476C119.181 153.476 118.6 154.057 118.6 154.772C118.6 155.488 119.181 156.068 119.897 156.068Z" fill="#1E1711"/>
<path opacity="0.08" d="M106.064 190.725C106.781 190.725 107.361 190.145 107.361 189.429C107.361 188.714 106.781 188.133 106.064 188.133C105.348 188.133 104.768 188.714 104.768 189.429C104.768 190.145 105.348 190.725 106.064 190.725Z" fill="#1E1711"/>
<path opacity="0.08" d="M78.9422 207.304C79.6584 207.304 80.239 206.724 80.239 206.008C80.239 205.292 79.6584 204.712 78.9422 204.712C78.2261 204.712 77.6455 205.292 77.6455 206.008C77.6455 206.724 78.2261 207.304 78.9422 207.304Z" fill="#1E1711"/>
<path opacity="0.08" d="M61.7696 178.495C62.4858 178.495 63.0664 177.914 63.0664 177.199C63.0664 176.483 62.4858 175.903 61.7696 175.903C61.0535 175.903 60.4729 176.483 60.4729 177.199C60.4729 177.914 61.0535 178.495 61.7696 178.495Z" fill="#1E1711"/>
<path opacity="0.08" d="M58.5921 205.967C59.3082 205.967 59.8888 205.387 59.8888 204.671C59.8888 203.955 59.3082 203.375 58.5921 203.375C57.8759 203.375 57.2953 203.955 57.2953 204.671C57.2953 205.387 57.8759 205.967 58.5921 205.967Z" fill="#1E1711"/>
<path opacity="0.08" d="M151.714 194.877C152.43 194.877 153.011 194.297 153.011 193.581C153.011 192.865 152.43 192.285 151.714 192.285C150.998 192.285 150.417 192.865 150.417 193.581C150.417 194.297 150.998 194.877 151.714 194.877Z" fill="#1E1711"/>
<path opacity="0.08" d="M161.496 212.02C162.212 212.02 162.793 211.44 162.793 210.724C162.793 210.009 162.212 209.428 161.496 209.428C160.78 209.428 160.2 210.009 160.2 210.724C160.2 211.44 160.78 212.02 161.496 212.02Z" fill="#1E1711"/>
<path opacity="0.08" d="M171.65 212.02C172.366 212.02 172.946 211.44 172.946 210.724C172.946 210.009 172.366 209.428 171.65 209.428C170.933 209.428 170.353 210.009 170.353 210.724C170.353 211.44 170.933 212.02 171.65 212.02Z" fill="#1E1711"/>
<path opacity="0.08" d="M229.103 215.387C229.819 215.387 230.4 214.807 230.4 214.091C230.4 213.376 229.819 212.795 229.103 212.795C228.387 212.795 227.806 213.376 227.806 214.091C227.806 214.807 228.387 215.387 229.103 215.387Z" fill="#1E1711"/>
<path opacity="0.08" d="M257.226 216.683C257.942 216.683 258.523 216.103 258.523 215.387C258.523 214.672 257.942 214.091 257.226 214.091C256.51 214.091 255.929 214.672 255.929 215.387C255.929 216.103 256.51 216.683 257.226 216.683Z" fill="#1E1711"/>
<path opacity="0.08" d="M167.818 162.592C168.534 162.592 169.114 162.012 169.114 161.296C169.114 160.58 168.534 160 167.818 160C167.101 160 166.521 160.58 166.521 161.296C166.521 162.012 167.101 162.592 167.818 162.592Z" fill="#1E1711"/>
<path opacity="0.08" d="M179.99 137.661C180.706 137.661 181.287 137.08 181.287 136.365C181.287 135.649 180.706 135.069 179.99 135.069C179.274 135.069 178.693 135.649 178.693 136.365C178.693 137.08 179.274 137.661 179.99 137.661Z" fill="#1E1711"/>
<path opacity="0.08" d="M167.362 86.4661C168.078 86.4661 168.659 85.8859 168.659 85.1701C168.659 84.4544 168.078 83.8742 167.362 83.8742C166.646 83.8742 166.065 84.4544 166.065 85.1701C166.065 85.8859 166.646 86.4661 167.362 86.4661Z" fill="#1E1711"/>
<path opacity="0.08" d="M242.305 96.2114C243.021 96.2114 243.602 95.6312 243.602 94.9154C243.602 94.1996 243.021 93.6194 242.305 93.6194C241.589 93.6194 241.009 94.1996 241.009 94.9154C241.009 95.6312 241.589 96.2114 242.305 96.2114Z" fill="#1E1711"/>
<path opacity="0.08" d="M201.435 43.9704C202.152 43.9704 202.732 43.3902 202.732 42.6744C202.732 41.9587 202.152 41.3784 201.435 41.3784C200.719 41.3784 200.139 41.9587 200.139 42.6744C200.139 43.3902 200.719 43.9704 201.435 43.9704Z" fill="#1E1711"/>
<path opacity="0.08" d="M219.141 27.8107C219.857 27.8107 220.438 27.2305 220.438 26.5147C220.438 25.799 219.857 25.2188 219.141 25.2188C218.425 25.2188 217.844 25.799 217.844 26.5147C217.844 27.2305 218.425 27.8107 219.141 27.8107Z" fill="#1E1711"/>
<path opacity="0.08" d="M191.006 32.2679C191.722 32.2679 192.303 31.6877 192.303 30.9719C192.303 30.2562 191.722 29.676 191.006 29.676C190.29 29.676 189.709 30.2562 189.709 30.9719C189.709 31.6877 190.29 32.2679 191.006 32.2679Z" fill="#1E1711"/>
<path opacity="0.08" d="M268.063 90.9524C268.779 90.9524 269.36 90.3722 269.36 89.6564C269.36 88.9407 268.779 88.3605 268.063 88.3605C267.347 88.3605 266.766 88.9407 266.766 89.6564C266.766 90.3722 267.347 90.9524 268.063 90.9524Z" fill="#1E1711"/>
<path opacity="0.08" d="M285.47 82.5225C286.187 82.5225 286.767 81.9423 286.767 81.2265C286.767 80.5108 286.187 79.9306 285.47 79.9306C284.754 79.9306 284.174 80.5108 284.174 81.2265C284.174 81.9423 284.754 82.5225 285.47 82.5225Z" fill="#1E1711"/>
<path opacity="0.08" d="M287.456 61.2201C288.172 61.2201 288.752 60.6399 288.752 59.9241C288.752 59.2084 288.172 58.6282 287.456 58.6282C286.739 58.6282 286.159 59.2084 286.159 59.9241C286.159 60.6399 286.739 61.2201 287.456 61.2201Z" fill="#1E1711"/>
<path opacity="0.08" d="M260.123 14.134C260.839 14.134 261.419 13.5538 261.419 12.838C261.419 12.1223 260.839 11.542 260.123 11.542C259.406 11.542 258.826 12.1223 258.826 12.838C258.826 13.5538 259.406 14.134 260.123 14.134Z" fill="#1E1711"/>
<path opacity="0.08" d="M311.403 80.4126C312.119 80.4126 312.699 79.8324 312.699 79.1167C312.699 78.4009 312.119 77.8207 311.403 77.8207C310.686 77.8207 310.106 78.4009 310.106 79.1167C310.106 79.8324 310.686 80.4126 311.403 80.4126Z" fill="#1E1711"/>
<path opacity="0.08" d="M295.384 95.9982C296.1 95.9982 296.68 95.418 296.68 94.7022C296.68 93.9865 296.1 93.4063 295.384 93.4063C294.668 93.4063 294.087 93.9865 294.087 94.7022C294.087 95.418 294.668 95.9982 295.384 95.9982Z" fill="#1E1711"/>
<path opacity="0.08" d="M150.621 156.172C151.337 156.172 151.917 155.592 151.917 154.876C151.917 154.161 151.337 153.581 150.621 153.581C149.905 153.581 149.324 154.161 149.324 154.876C149.324 155.592 149.905 156.172 150.621 156.172Z" fill="#1E1711"/>
<path opacity="0.08" d="M164.65 179.367C165.366 179.367 165.946 178.786 165.946 178.071C165.946 177.355 165.366 176.775 164.65 176.775C163.934 176.775 163.353 177.355 163.353 178.071C163.353 178.786 163.934 179.367 164.65 179.367Z" fill="#1E1711"/>
<path opacity="0.08" d="M178.649 170.796C179.366 170.796 179.946 170.216 179.946 169.5C179.946 168.785 179.366 168.204 178.649 168.204C177.933 168.204 177.353 168.785 177.353 169.5C177.353 170.216 177.933 170.796 178.649 170.796Z" fill="#1E1711"/>
<path opacity="0.08" d="M270.152 166.804C270.868 166.804 271.449 166.224 271.449 165.508C271.449 164.793 270.868 164.212 270.152 164.212C269.436 164.212 268.855 164.793 268.855 165.508C268.855 166.224 269.436 166.804 270.152 166.804Z" fill="#1E1711"/>
<path opacity="0.08" d="M200.139 137.661C200.855 137.661 201.435 137.08 201.435 136.365C201.435 135.649 200.855 135.069 200.139 135.069C199.423 135.069 198.842 135.649 198.842 136.365C198.842 137.08 199.423 137.661 200.139 137.661Z" fill="#1E1711"/>
<path opacity="0.08" d="M265.581 133.363C266.297 133.363 266.878 132.783 266.878 132.067C266.878 131.352 266.297 130.771 265.581 130.771C264.865 130.771 264.284 131.352 264.284 132.067C264.284 132.783 264.865 133.363 265.581 133.363Z" fill="#1E1711"/>
<path opacity="0.08" d="M278.74 112.194C279.456 112.194 280.036 111.614 280.036 110.898C280.036 110.182 279.456 109.602 278.74 109.602C278.023 109.602 277.443 110.182 277.443 110.898C277.443 111.614 278.023 112.194 278.74 112.194Z" fill="#1E1711"/>
<path opacity="0.08" d="M153.202 55.9999C153.918 55.9999 154.499 55.4197 154.499 54.7039C154.499 53.9882 153.918 53.408 153.202 53.408C152.486 53.408 151.905 53.9882 151.905 54.7039C151.905 55.4197 152.486 55.9999 153.202 55.9999Z" fill="#1E1711"/>
<path opacity="0.08" d="M142.162 20.3934C142.878 20.3934 143.459 19.8132 143.459 19.0974C143.459 18.3817 142.878 17.8015 142.162 17.8015C141.446 17.8015 140.865 18.3817 140.865 19.0974C140.865 19.8132 141.446 20.3934 142.162 20.3934Z" fill="#1E1711"/>
<path opacity="0.08" d="M207 499L219 514" stroke="#1E1711" stroke-width="0.5" stroke-miterlimit="10"/>
<path opacity="0.08" d="M311 471L287 514" stroke="#1E1711" stroke-width="0.5" stroke-miterlimit="10"/>
<path opacity="0.08" d="M351.916 514.025L311.267 471.357" stroke="#1E1711" stroke-width="0.5" stroke-miterlimit="10"/>
<path opacity="0.08" d="M260.123 504.094C260.839 504.094 261.419 503.513 261.419 502.798C261.419 502.082 260.839 501.502 260.123 501.502C259.406 501.502 258.826 502.082 258.826 502.798C258.826 503.513 259.406 504.094 260.123 504.094Z" fill="#1E1711"/>
<path opacity="0.08" d="M2 391L7 336" stroke="#1E1711" stroke-width="0.5" stroke-miterlimit="10"/>
<path opacity="0.08" d="M11 435L2 391" stroke="#1E1711" stroke-width="0.5" stroke-miterlimit="10"/>
<path opacity="0.08" d="M25.0857 24.0657L2 29.5" stroke="#1E1711" stroke-width="0.5" stroke-miterlimit="10"/>
<path opacity="0.08" d="M25.0857 24.0657L3.5 2.48003" stroke="#1E1711" stroke-width="0.5" stroke-miterlimit="10"/>
<path opacity="0.08" d="M12 97L2 79" stroke="#1E1711" stroke-width="0.5" stroke-miterlimit="10"/>
<path opacity="0.08" d="M2 95L12 97" stroke="#1E1711" stroke-width="0.5" stroke-miterlimit="10"/>
<path opacity="0.08" d="M11.5367 96.8097L4.76221 148.646" stroke="#1E1711" stroke-width="0.5" stroke-miterlimit="10"/>
<path opacity="0.08" d="M6.66007 337.182C7.37624 337.182 7.9568 336.602 7.9568 335.886C7.9568 335.17 7.37624 334.59 6.66007 334.59C5.94391 334.59 5.36334 335.17 5.36334 335.886C5.36334 336.602 5.94391 337.182 6.66007 337.182Z" fill="#1E1711"/>
<path opacity="0.08" d="M25 514L2 471" stroke="#1E1711" stroke-width="0.5" stroke-miterlimit="10"/>
</svg>
