<svg xmlns="http://www.w3.org/2000/svg" viewBox="0 0 323.37 333.57"><defs><style>.cls-1{fill:#fff;}</style></defs><title>Mapa</title><g id="Camada_2" data-name="Camada 2"><g id="Capa_1" data-name="Capa 1"><path class="cls-1" d="M181.12,54.16a6.16,6.16,0,0,0-.56.43c-.11.1-.25.32,0,.42s.21-.07.56,0,.43.07.6-.17.25-.22.18-.39-.68-.64-.73-.46Z"/><path class="cls-1" d="M183.6,51.54a2.18,2.18,0,0,1-.71.43c-.24.1-.42.07-.6.46s-.44.67-.36.92.22.81.33.85A1.91,1.91,0,0,0,183,54c.21-.14,2.05-1.7,2.33-2a4.76,4.76,0,0,1,1.35-1.24,6.25,6.25,0,0,0,1.67-1c.31-.39.39-.21.6-.85a17,17,0,0,0,.32-2.94c0-.68,0-1-.43-.78a10.27,10.27,0,0,0-2.51,1.1c-.5.46-1.49,1.31-1.6,1.77a7.59,7.59,0,0,1-.67,1.45c-.14.28-.43.5-.25.64s.35.14.35.32a.91.91,0,0,1,0,.42A2.63,2.63,0,0,1,183.6,51.54Z"/><path class="cls-1" d="M191.54,47.11a4.69,4.69,0,0,0-1.06.64c-.15.21-.46.6-.29.64a2,2,0,0,0,1.14-.32c.32-.25.6,0,.6-.32S191.89,46.94,191.54,47.11Z"/><path class="cls-1" d="M189.48,49.17a2.94,2.94,0,0,1-.6.71,5.9,5.9,0,0,0-.49.56s.1.25.49,0,.5,0,.82-.55S189.73,48.79,189.48,49.17Z"/><path class="cls-1" d="M187.29,51.29c-.35.13-.89.39-.89.5s-1,.39,0,.11.78.1,1-.29S187.5,51.21,187.29,51.29Z"/><path class="cls-1" d="M189.7,42.33s-1.1.89-1.14,1.13a.45.45,0,0,0,.76.29c.38-.32.94-.61,1.16-.85a.75.75,0,0,0,.24-.71C190.65,42,190.12,42,189.7,42.33Z"/><path class="cls-1" d="M192.85,41.37c-.5,0-.6-.14-.92.18s-.71.5-.28.78a2.35,2.35,0,0,0,1.2.46,2.81,2.81,0,0,0,1.45-.21c.14-.18.53-.43.57-.71s-.35-1-.53-1a.62.62,0,0,0-.57.32c-.18.28-.21.39-.42.35A2.66,2.66,0,0,1,192.85,41.37Z"/><path class="cls-1" d="M191,43.68a6,6,0,0,0-.62,1c0,.11,0,.32.31.14a5.35,5.35,0,0,0,.93-.7.7.7,0,0,0,.14-.39S191.36,43.27,191,43.68Z"/><path class="cls-1" d="M191.79,44.6c-.14.15-.64.11-.69.48s-.41.65,0,.58.3.25.69-.21a3.08,3.08,0,0,0,.53-.85S192.11,44.24,191.79,44.6Z"/><path class="cls-1" d="M192.32,45.08v.62l.71-.62s1-.75.14-.38-.64.14-.64.14Z"/><path class="cls-1" d="M195.86,35.88a2.94,2.94,0,0,0-.32,1.35c0,.71.39,1,.16,1.17s-.51.17-.65.56-.39.46-.18.85a1.78,1.78,0,0,0,.67.68c.18.1.39.14.46,0s-.17-.64.15-.78.49-.36.63-.36a.42.42,0,0,0,.32-.35c0-.14.07,0-.14-.36s-.35-.24-.35-.63-.08-.57,0-.75a1.2,1.2,0,0,0,.11-.71c0-.21-.07-.56-.22-.67S196.05,35.46,195.86,35.88Z"/><path class="cls-1" d="M197.56,36.59a2.75,2.75,0,0,1,0,.81c-.07.29-.16.47,0,.5a.9.9,0,0,0,.54,0c.14-.07.64-.21.74-.46s.29-.35.32-.5-.07-.56-.35-.49a4.66,4.66,0,0,1-1,0S197.56,36.27,197.56,36.59Z"/><path class="cls-1" d="M198.94,38.36a3.66,3.66,0,0,1-.46.85c-.1.14-.32.53,0,.57s.37-.14.72-.32.81-.39.42-.71S199.13,37.89,198.94,38.36Z"/><path class="cls-1" d="M197.11,40.17c-.19.17-.75-.13-.65.41s-.11.83.32,1,.85-.11,1.07,0,.46,0,.67.27.37.15.68.22.38.16.74-.22.92-.51,1.06-.69-.14-.39,0-.68-.18-.1.42-.3,1.17-.34,1.17-.58-.1-.57-.63-.59-.61-.34-1,0-.39.67-.74.8.06.25-.7.42-.65.46-1,.27-.46-.27-.64-.27S197.48,39.85,197.11,40.17Z"/><path class="cls-1" d="M201.11,41.66c-.39.17-.43.35-.68.63s-.67.23-.39.51.18.42.71.49a7.38,7.38,0,0,0,1.49,0,1.12,1.12,0,0,0,.85-.8c0-.3.25-.14-.11-.45A1.56,1.56,0,0,0,201.11,41.66Z"/><path class="cls-1" d="M197.67,56.89a.92.92,0,0,0-.57,0c-.18.11-.32-.18-.18.11s0,.32.35.32.54.17.75,0S198,57,197.67,56.89Z"/><path class="cls-1" d="M243.76,63.35c-.13-.1-.38,0-.32.37s.17.69.15.8-.32.4,0,.32a.53.53,0,0,0,.43-.35c0-.1,0-.32,0-.5S244.15,63.67,243.76,63.35Z"/><path class="cls-1" d="M245.59,235.3c-.4.31-.8.67-.72.72a1.94,1.94,0,0,0,.72,0c.4,0,.88-.08,1-.21s.53-.13,0-.37S246,235,245.59,235.3Z"/><path class="cls-1" d="M236.69,242c-.12.48-.56.35-.64.59a.79.79,0,0,0,0,.69c.13.18.64,0,.64,0s.37-.48.58-.35.64.43.8.24,0-.49,0-.49-.93-.14-.4-.45l.53-.31s.51-.29.19-.53S236.77,241.65,236.69,242Z"/><path class="cls-1" d="M211.79,274.61c-.74.15-1,.45-.91.74a1,1,0,0,1,0,.85c-.14.37-.45.27-.37.77s-.14.85.26.74.45-.1.56-.53,0-.66.32-.87.53-.38.5-.56-.26-.19-.1-.35.08-.16.11-.37S212.18,274.53,211.79,274.61Z"/><path class="cls-1" d="M210,281.7c-.11.45-.45.29-.56.72s.19.56,0,.9-.13.11-.69.4-.42-.32-.56.29a3,3,0,0,0,0,1.12c0,.16.39.21-.06.77s-.81.05-1.24.4-6.14,5.82-6.43,6.11-.88.77-1,.93-.66,1.67-1,2.58-2.79,7.22-2.79,7.22-1.91,5.05-2.34,5.77a12.15,12.15,0,0,1-2,2.53c-.72.63-4.33,4.35-4.6,4.57s-1.43,1-1.78,1.25-1.22.63-1.27.71-.24,1-.45.83.13-.83,0-1.17-.51-.48-.51-.77.08-.64.37-.48.32.45.69.37.3,0,.61-.32a1.47,1.47,0,0,1,.77-.45.77.77,0,0,0,.64-.43,11.38,11.38,0,0,1,.61-1c.43-.61.38-1.17.93-1.33s.56-.13,1-.29.35.05.67-.27.26-.55.4-1,.16-.53.32-1.08.74-.93,1.06-1.25-.24-.67.18-.88,1-.21,1.2-.51a1.34,1.34,0,0,0,.19-1c0-.64-.64-2.34-.19-2.42s.21.45.45.51.83,0,.67-.69.16-1.17-.32-1.28-1.62.56-1.62.56-.48.8-1,1a3.88,3.88,0,0,1-.82.22,3.6,3.6,0,0,1-1.38-.3c-.11-.1-.77-.79-.83-.69s-.55.48-.34.67a3.82,3.82,0,0,0,.69.58c.32.19.64,0,.72.48a1.62,1.62,0,0,1-.4,1.22c-.24.29-.51.32-.59.91a7.22,7.22,0,0,1-.24,1.08s-.39.22-.31-.21.31-1.27-.08-.69-.93.83-.93,1.09-.16,1.09-.14,1.7.24.83,0,1.09-.66.08-.79.4-.11.58-.19.64-.05,0-.53,0a1.44,1.44,0,0,0-1.22.42c-.32.37-.56.27-.64,1a4.65,4.65,0,0,1-.19,1.28,2.31,2.31,0,0,1-.74,1.09s-.56-.19-.72.08-.34.69,0,.87.4-.18.53.16,0,.35-.24.61-.48.51-.32.72.91,0,1.17,0,1,.19.4.45-.77.24-1.17.61-1,.24-1.19.7-.53.37-.64,1.19a20.41,20.41,0,0,1-1,4A34.94,34.94,0,0,1,175,330.3s-2,1.76-2.2,2-.11.13-.67.42a3.94,3.94,0,0,0-1,.88,29,29,0,0,1,0-4.5c.24-.71,1.24-2.05,1.45-2.55a2.75,2.75,0,0,0,.42-2.27c-.35-1.06-2.26-3-2.9-4s-1.49-2.48-2.62-2.83a6.17,6.17,0,0,1-2.84-1.35c-.49-.63-5.1-4-5.53-4.6s-2.62-2.41-3-2.91-1.35-2-2.2-2.19-1.2-.57-2.05-.15-.15.43-1.07.85-1.41,1-1.41.15.14-1-.29-1.42-.85-.36-1.06-1.06,0-1.42-.57-1.71-1.41-.49-2.19-.85a4.09,4.09,0,0,1-1.71-1.06,4.55,4.55,0,0,0-1.7-1.42c-.63-.21-1.41-.42-1.91-.63s-1.06-.22-.92-.5,2.34-1.7,3-2.34,2.9-2.41,3.82-3.33,3.47-6.3,4.54-7.58a37.89,37.89,0,0,1,4.32-4.29,17.61,17.61,0,0,1,5.74-3.79c2.83-1.2,6.09-2.2,7.09-3.4a4.54,4.54,0,0,0,1.27-2.2,6.48,6.48,0,0,0,.5-4.25c-.36-1.42-1.14-1.77-.43-3s.57-2.06-.14-3.83.5-2-1.42-2.41-3.68-.64-4-1-1.07-.22-.71-1.28.63-4.46.85-5.45,1.2-4.75,1.41-5.32a19,19,0,0,0,.71-2.41c0-.21-.21-.35-1.27-.92s-2.27-1.84-3.69-1.49-1.56,1.28-2.48,1.49-.71.92-1.56.21-1.27.5-1.41-1.13-1.21-10.42-1.28-11.27a4.07,4.07,0,0,0-1.77-2.48c-.64-.28-1.35-1.56-2.41-.92s-1.35.5-1.77.36-.36-.64-1.63-.54-11.76.22-12,0-1.13-.73-.78-1.72,1.92-5.25,1.92-6.38-1.16-5.81-2-6.59.51-2.48.51-3.4-1.63-2.13-1.14-3.19,4.47-11,4.4-12.12-3.47-5.67-3.76-6.09-1.91.49-2-.64-1.63-6.38-1.42-7.09.71-1.34.57-2a1.59,1.59,0,0,0-1.21-1.2,27.34,27.34,0,0,0-4.39-.93c-1.28,0-.85.64-3.47.71s-5.6.64-6-.71a71.09,71.09,0,0,0-3.4-6.51s2,0,1.77-2.91-.35-8.29-1.13-9.92-1.27-2.41-2.34-2.76-2.55-1.28-3.33-1.42-6.3-.43-6.3-.43a32.06,32.06,0,0,0-2.48-2.34c-.71-.49-2.63-.28-3.05-1s-2.2-2.9-3.33-3.19-2.06.78-2.91,0-1.34-1.91-2.34-2-3.47.14-4.46,0-3.47-2.41-4.68-3.19-1.7-.92-2-1.42-3.12-5-2.91-5.95a35.1,35.1,0,0,0,.36-6.59c-.22-.64-2.7-1.7-2.7-1.7s-6.23.14-6.59,0-5,2.55-5.45,2.76-8.29.15-8.43.5-2.13.92-2.27,2.06a10.09,10.09,0,0,1-1.28,3c-.14.28-3.82-2.76-4.32-3s-5.24-.29-7.3-.57a5.51,5.51,0,0,0-4.25,1.34c-.35.43-1.91-.56-1.63-1.77a9.78,9.78,0,0,0-.78-4.89c-.5-.7-1.35-.14-.71-1.34a3.45,3.45,0,0,0-.23-3.4c-.48-.43-.62-.78-1.47,0s-2.27,2-3,2.76-1.13,1-1.13,1.84.5,1.21-.78,1.7-1.91.92-3.33.71-1.42.07-2-.78a32.92,32.92,0,0,0-2.91-3s-3.05-.49-3.54-.49-2.06,0-1.49-.28a2.44,2.44,0,0,0,.78-2.34c-.28-.57-1-.85-.9-1.7s.56-1.7,0-2.13A12.15,12.15,0,0,1,5,112.45c-.42-.64-3.33-3.19-3.33-3.62s.64-1.13,0-1.77S0,105.72,0,105.36s1.06-.28,1.56-.85.49-5,1.49-5.67S5.81,97,6.52,96.5a2,2,0,0,0,.78-2c-.14-.78-1.14-1.21-.43-2S8,89.63,8.65,88.78s-.08-2.55,1.55-3.33,1.21-1.42,3.41-2.27,3.18-2.12,4.53-2.34a42.75,42.75,0,0,0,4.46-.56c1.21-.36,2.13-.5,2.7-1.28s.35-.71,1.41-.64a40.77,40.77,0,0,1,4.75.71,4,4,0,0,0,2.13.43c.57-.22,1.27-.3,1.7-1.18s4.32-24.48,4.32-24.69-.28-2.12-1.06-2.48-2.27-1.06-2.06-1.77,1-1.56.07-2.55-2.4-1.35-2.19-2.13-.64-4.74-.21-5.31.53-1.49,1.43-1.49a15.8,15.8,0,0,1,3.24.85s-.07-.35.64-.85a2.29,2.29,0,0,0,.78-1.56s.57-.14.28-1.42a3.27,3.27,0,0,0-.63-1.63c-.43-.77-.22-1.2-.86-1.13s.43.41-1.13,0-1.13-.06-1.56-.41-.92-.57-.71-1.28-.14-1.2,1.21-1.2,4.53-.43,5.67-.43,3.11.35,3.61,0,.64-.92.78-1.77.57.42.92,1.35A2.24,2.24,0,0,0,50.1,30c.92-.21,1.7-.28,2-.78a16.35,16.35,0,0,0,.78-1.91s1.28.5,1.56,1a4.53,4.53,0,0,1,.5,2.55c0,1.49,0,2.2.35,2.77s1.07,1.27,1.7.85,1.28-1.21,1.85-.64a9.82,9.82,0,0,0,3.47,2.55,5.36,5.36,0,0,0,3.19,0c.92-.21,1.7.85,2.69.25s1.13-1.74,2.34-2.3,5.1-1.14,5.81-2,1.06-1.49,1.63-1.2,1.77.71,2.27.35A9.8,9.8,0,0,0,82,28.9c.28-.64,0-1.63.63-1.7a5.47,5.47,0,0,0,1.92-.78c.28-.21.85-.64,1.27-.57A4.64,4.64,0,0,0,88.22,25c.22-.35.78-1.77.36-2.05S87,21.81,86.45,22a11.92,11.92,0,0,1-2.76.35c-.64-.07-.78.11-1.28-.37s-.71-.34-.92-1.05a10.33,10.33,0,0,1-.5-3.47c.15-1.06-.14-2.05.71-2.76s1.28-.71.85-1.92-.07-1.27-.85-2.05-2.26-1.56-2.19-1.77.85-.43,1.48,0,1.49,1.84,2.34,2.34a7.3,7.3,0,0,0,3.12.63,20.73,20.73,0,0,0,2.28.22A5.93,5.93,0,0,0,92.4,11c.85-.78,1.14-2,2.06-2s4.53.15,5.74-.39S103.74,8,104,7.36s-.14-1.42,1.07-1.77A30.15,30.15,0,0,0,108.84,4a4.15,4.15,0,0,0,1.78-1.91c.14-.5-.08-2,.28-1.92s.49.57,1.27.64S113-.51,113.45.2s-.14,1.84,0,2.62-.43,2.91-.28,3.12a12.27,12.27,0,0,0,1.91.85c.42.21,1.77.78,2,1.56s1.14,1.77.43,2.2-1.49.28-1.7,1.27a16.6,16.6,0,0,1-.5,3.26A16.41,16.41,0,0,0,114.23,18a19.29,19.29,0,0,0-.21,2.34c0,.92,1.84,2.9,2.33,3.19s.43,2.26.5,3,1.56,1.92,2.13,2.84,1.63,2.12,2.19,2.19a1.83,1.83,0,0,1,1.63.85,2.13,2.13,0,0,0,2.2,1.28c1.13-.14,3-.21,3.12-.71s-.92-1.7,0-1.91a5.15,5.15,0,0,0,1.63-.71s1.06.92,1.56.28a2.87,2.87,0,0,1,2.05-.92c.71-.07,1.21-.78,1.84-.85a2.92,2.92,0,0,0,1.7-1.06c.43-.5-.14-.43.43-.5s1.56,1.77,2.91,1.77a5.58,5.58,0,0,0,2.62-.35c.42-.28.49-1.06.85-1.06s2.27.85,3.33.35,2.55-.28,2.69-.92.14-2.2-.28-2.48-.26-1.63.37-1.06,2,.42,3.6.28.42-.92,1.91-.5,2,.07,2.27.36.71,2.48,2.33,3.26,1.35,1.06,3.12,1.2,2.7,0,3.26-.35a3.36,3.36,0,0,1,2.62-1,8.18,8.18,0,0,0,3.41-.71,18.44,18.44,0,0,0,4-3.69,12,12,0,0,0,1.14-3s1.63-4.75,2.41-5.53,1.27-1.56,1.49-1.77a5.17,5.17,0,0,0,.56-1.42,13.64,13.64,0,0,0,.43-1.35,9.9,9.9,0,0,1,1.42-.78c.56-.21.63-1.06.7-.85l.07.22s.43-1.85.86-1.42S188,8.56,188,10.19v1.63s.42-1.2.7-.85a4,4,0,0,1,.71,2.2,9.55,9.55,0,0,0,.43,3.61A50.69,50.69,0,0,1,192.11,23a13.48,13.48,0,0,0,.63,2.76c.29.64.78,1.77.78,1.77a2.7,2.7,0,0,0,1.14.15,4.17,4.17,0,0,1,1.41,0c.5.07,1.21-.15,1.49.63s-.21,1.85,0,2.27a2.38,2.38,0,0,1,.09,1.42c-.09.21-.51.07-.8.57a2.86,2.86,0,0,0-.49,1.2c-.07.5.07.5-.36,1s-1,.92-1,1.35-.07.3-.35.71-.43.42-1.28,1.2-2,2.62-2.27,2.84-1.41.85-1.7,1.06-.71.78-1,1.06a10.49,10.49,0,0,1-.92,1c-.35.29-.92,1-1.13,1.14a11.1,11.1,0,0,0-1.28.92,4,4,0,0,0-1.2,1.63c-.29.71-.71,1.06-.93,1.56a5.29,5.29,0,0,1-.7,1.13c-.22.28-.43.71-.57.92s-.43.64-.64.92-.57.43-.78.64-.14.71-.14.71-.78.35-.85.71-.43.64,0,.92.64.71,1.13.43,1.07.32,1.56.09a5.43,5.43,0,0,0,1.35-1c.28-.28.71-.21,1.06-.7s.5-.85.92-.93.5-.07,1.14-.21a4.17,4.17,0,0,0,1.41-.78c.22-.14.78-.56,1.14-.78a1.28,1.28,0,0,1,.92-.21c.5,0,1.13-.64,1.13-.64s.57.07.57.5a4.36,4.36,0,0,0,0,1.35c.14.49-.43.28.14.49s.78-.21.71-.71-.57-1-.35-1.34-.22,0,.21-.36.71-.35.78-.64a2.91,2.91,0,0,0,.21-.92V47.54a3,3,0,0,1,.28-1.42c.29-.42.22-.71.85-1.2a8.83,8.83,0,0,1,1-.71,3.44,3.44,0,0,1,1.13-.57c.28,0,.11-.21,1.15,0a7.07,7.07,0,0,0,1.83.21c.56,0,.21-.07,1.06-.07h1.84a4.26,4.26,0,0,0,1.42-.28,4.93,4.93,0,0,1,1.35-.43c.42,0,.42-.42.7-.07s0,.36.64.5a11.41,11.41,0,0,0,1.28.28c.21,0,.21-.35,1,.07a10.26,10.26,0,0,0,1.7.71,6,6,0,0,1-.39,1.45,3.41,3.41,0,0,0-.6,1.32,6.09,6.09,0,0,1-.07,1.06c-.07.49-.22.35-.36.65s-.39.28-.42.75,0,.64-.29.75a.8.8,0,0,0-.53.71,13.43,13.43,0,0,1-.21,1.92,1.08,1.08,0,0,1-.85.57,6.13,6.13,0,0,0-1.77.76,5.45,5.45,0,0,1-1.21.83c-.24.07-.21,0-.78.22l-1.06.31c-.35.11-.28.07-.71.18a4.2,4.2,0,0,1-.78.21c-.32,0-.53-.07-.74,0a1.25,1.25,0,0,1-.85-.17c-.21-.15,0-.36-.6,0s-.71.5-1,.5-.28-.39-.64,0-.25.49-.57.53a2.66,2.66,0,0,1-1,0c-.18-.11.1-.78-.57-.46s-.67.5-.85.51a1.29,1.29,0,0,1-.78-.33c-.14-.18-.64-1-.74-.93a4.14,4.14,0,0,0-.57.68c-.18.21-.57.28-.74.42s-.5.5-.25.75.6.39.81.14,1.28-.29,1.49-.25,1.35-.28,1.28.11a6,6,0,0,1-.11.88c-.11.29-.14.64,0,.64s.22-.64.54-.67.39.17.63.14-.67-1.1-.32-1.21a1.46,1.46,0,0,1,1.07,0,1.92,1.92,0,0,0,1,.18,6.92,6.92,0,0,0,1.21,0c.28-.07.39,0,.74-.25s.11-.39.57-.49a4,4,0,0,1,1-.11c.14,0,.6-.24,1,0s.53.65.81.28a2.26,2.26,0,0,1,1-.8c.31-.07.85-.35.92.15s.17.61-.07.93-.5,1.09-.85,1.33a11.68,11.68,0,0,0-.93.89c-.24.21-.46.39-.49.64a2.16,2.16,0,0,0,0,.85,2.81,2.81,0,0,1,.11,1c0,.18-.32.36-.32.54s-.14.42.11.49.53.18.78-.21.39-.32.25-.92-.11-1.31.14-1.42.42-.07.46-.25-.11-.25,0-.56a1.1,1.1,0,0,1,.46-.71,1.44,1.44,0,0,0,.67-.64c.11-.28.14-.5.28-.82s.11-.38.25-.72a1.56,1.56,0,0,1,.46-.83c.39-.39.68-.88.92-1s.5-.74.64-.55.07.56.32.55a1.16,1.16,0,0,0,.6-.25c.11-.07.07-.45.07-.6s0-.58.32-.25a9.72,9.72,0,0,0,1.1.71.86.86,0,0,1,.21.39s0-.53.36-.55,1.13-.08,1.06-.3-.14-.21-.49-.57-.64-.88-.39-1.13.53,0,.42-.48-.42-.38-.32-.77.36-.78.5-.71.71.47.85.22-.36-.93-.14-1.12a17.4,17.4,0,0,1,1.27-1.39c.43-.32.68-.82,1-.82s.22.29.54.31.49-.49.7-.52.54.61.71.52.14-.74.53-.66.39.75.61.66.1-.7.35-.66.11.5.64.66,1.27-.77,1.59-.66-.21.71.25.81.53-.81.89-.53-.29.67.25.78.49-.39,1-.18.25.3.49.43.68-.25.89-.14-.25.42,0,.56.74-.32,1.1-.24-.39.31.25.6.56-.43.88-.14,0,.85.57,1.24,1.27-.11,1.63-.25.35-.46.74-.29.32.54.89.85,1.06-.14,1.52,0,.82-.39.67.32.11.85-.21,1-.25.14,0,.25.39.42.71.35.46-.32.74-.39.36-.42.57,0,.07.67.32.88a1.53,1.53,0,0,0,.71.31.77.77,0,0,0,.64-.1c.26-.19.21-.24.4-.37a2.88,2.88,0,0,1,.74-.38c.08,0,.56.22.45.43s-.26.16-.4.34-.26.38-.24.48A1.65,1.65,0,0,1,236,54c0,.19.13.24,0,.43s-.45-.14-.61.42-.24.75-.13.88.42.34.48.45.1-.32.18-.45.62-.29.66-.35,0,0,.41-.13a1.65,1.65,0,0,0,.63-.34c.08-.08.22-.06.3-.22s.16-.32,0-.4-.69,0-.27-.21.61.37.72.48.16-.11.32-.08.29-.13.42-.21.11-.24.27-.4.72-.37.72-.11-.19.37-.16.56.23.29.31.16,0-.43.3-.16.24.51.21.59,0,.42,0,.45.26-.08.31.13a.8.8,0,0,1,0,.53c0,.16-.18.19-.18.48a3.89,3.89,0,0,1,.4.4c.24.26.32.37.58.66s.51.37.59.75.53.32,0,.5a4.17,4.17,0,0,0-1.44.77c-.21.27-.58.29-.24.59s.24.42.77.05,1-1.14,1.44-.9a2,2,0,0,1,.74,1.14c0,.18-.45.77-.45.77s.24.24.19.42-.27.19-.32.43-.16.08-.21.56a1.72,1.72,0,0,0,.07.82c.06.27-.18.45-.21.64s-.32,0-.13.48.37.45.5.74a5.21,5.21,0,0,0,.35.56c.11.19-.29.29.21.4s1.07.32,1.17,0-.13-.59-.24-1-.1-.61,0-.69.08-.29.16-.45a3.73,3.73,0,0,0,.13-.64,1.38,1.38,0,0,1,.56.32c.13.18,0,.4.47.37a3.82,3.82,0,0,0,1.31-.27c.32-.21.53-.74.85-1.09l.87-.9a1.12,1.12,0,0,1,.64.11,3.07,3.07,0,0,0,1.06.34c.35.06.56.06.67,0A5.34,5.34,0,0,1,252,62a.23.23,0,0,0,.13-.32c0-.08-.31-.39,0-.42a6,6,0,0,1,1.66,0c.34.16.95.43,1.48.72a17.94,17.94,0,0,0,1.94,1.09c.56.19.91.16,1.15.5a3.46,3.46,0,0,0,.66.83,5.3,5.3,0,0,0,1.22.41,5.14,5.14,0,0,0,1,0c.13,0,.53-.09.69,0s-.08,0,.16.09.29-.09.29-.09.08-.09.27,0,.39.12.29,0-.29-.33-.19-.33a4.69,4.69,0,0,1,1,.33,11.52,11.52,0,0,1,1.41.52,5.08,5.08,0,0,0,2.26.69c.74,0,2.17.08,2.68.08a10.57,10.57,0,0,0,1.86-.08c.5-.11,1.62,0,2.79-.16s2.05-.32,2.58-.4,1.06-.56,1.83-.42a16.21,16.21,0,0,1,3.46,1.59A14.12,14.12,0,0,0,285,68.05c.64.19.91,0,1.52.27s3.27,2.92,3.67,3.19,1.83,1.22,2.68,1.7a11.87,11.87,0,0,1,2.79,2.39c.85,1,1.25,1.54,1.59,1.65s.67,0,1,.45a9.31,9.31,0,0,1,.63,1.27c.38.72.48,1.12.8,1.31s1.62-.38,2.37,0a5.87,5.87,0,0,1,1.75,2,2.15,2.15,0,0,0,1.73.77c.48,0,1.94,1.17,2.47,1.2s4,.18,4.54.31,2.26-.29,2.74-.16,2.6.59,3.3,1.31,1,.66,1.32,2-.18,2,.48,3.11a7.61,7.61,0,0,1,1,2.77c.34,1.35,1.35,4.25,1.54,5.07a26.43,26.43,0,0,1,.42,5.37c-.13,1.51-1.25,6.67-1.33,7.33a29.57,29.57,0,0,1-1.56,4.28c-.27.48-2,3.38-2.32,4a24,24,0,0,1-2.79,3.06c-.66.69-2.12,1.78-2.34,2.2s.14.59-.37,1.2-.18.5-1,1.3a21.57,21.57,0,0,1-2.71,2.18c-.48.29-1.57,1.22-2.65,1.81s-1.68.77-1.79,1.11-.05.51-.23.77-.22.45-.43.35-.37-.29-.48-.32-.29-.11-.21.21.5.45.37.67.19.24-.1.77-.32.63-.51.69-.5-.19-.58-.14a.38.38,0,0,0-.19.3c-.05.21.16.24.24.48s.26.13.08.47A4.34,4.34,0,0,0,302,138c0,.27-.21.32-.29.24s-.18-.24-.26-.26-.16-.06-.16.18.13.32.18.72.06.32-.1.64-2.45,3.56-2.87,4.25a9.38,9.38,0,0,1-1.47,2.18c-.61.53-1.67,1.49-2,1.86a5.33,5.33,0,0,1-.9.8c-.16.1-.85.29-1,0s-.27-.72,0-.85.58-.16.5-.4,0-.3-.24-.56-.21.16-.58.08-.16-.77-.59-.85-.39.61-.47.69-.67-.13-.67.21-.1.19.43.64.32.69.18.72-.82-.14-.58.26.53.11.58.32a1.33,1.33,0,0,1-.45.93c-.21.13-.48,0-.58.35a.79.79,0,0,1-.43.5c-.13.08-.37-.08-.29.29s.27.43.4.61.18.56-.13.46-.43-.13-.46,0-.37.14-.1.4.56.13.63.67-.15.29-.37.34-.56.24-.45.53.61.38.8.48.1.24-.13.4-.54.53-.48.8.26.34.26.61-.18.5-.26,1.17-.11,1.51-.16,2a3.89,3.89,0,0,1-.35,1.36c-.21.37-.5.34-.48,1.22a5.11,5.11,0,0,0,.51,2,3.11,3.11,0,0,1,.29,1.17c0,.27-.11.29,0,.48s.35.26.37.42-.74-.16-.74.38.45.55.26,1.14-.79,1.22-.47,2.1a15.22,15.22,0,0,1,.87,3.08,3.94,3.94,0,0,1-.42,2.15,4.41,4.41,0,0,0-.4,1.81,12.64,12.64,0,0,1-.29,1.7,11.28,11.28,0,0,0-.59,2.42,13.14,13.14,0,0,1-.13,3.24c-.32,1.14-.72,1.78-.61,2.47s.21.4.45,1.2a2.36,2.36,0,0,1-.37,2c-.37.63-2.63,1.62-2.95,2.47a10.67,10.67,0,0,0-.56,2.82c0,.55-.05,6.16.08,6.8a2.45,2.45,0,0,1-.56,2.18,11.7,11.7,0,0,1-1.86,1.91c-.34.27-1,.29-1.49.88a4,4,0,0,0-1.3,2.34c-.08,1.11-.93,3.16-1,4a2.69,2.69,0,0,1-.82,1.79c-.46.47-1.31.66-1.68,1.32a20.12,20.12,0,0,1-1.27,2.29,11.6,11.6,0,0,0-1.28,1.86c-.61,1.06-.32,3.43-.35,3.85a1.37,1.37,0,0,0,.16,1c.24.56.64.69-.16,1.09s-2.07,1.57-2.76,1.7-2.34.16-2.79.64a20.73,20.73,0,0,0-1.81,1.67c-.21.4-.61,1-.55,1.2s.16.85.16.85,0-.29.18,0,.21.69,0,.77a4,4,0,0,0-.88.9c-.16.24.21.24-.48,0s-1.06-.32-1.3-.13-.32.4-.4.18,0-.23-.45-.45a2.16,2.16,0,0,0-1.12-.29c-.42,0-.53-.27-.79.13a1.28,1.28,0,0,0-.27.61,2.43,2.43,0,0,1-.48.13c-.16,0-.5,0-1.06,0a10.46,10.46,0,0,1-1.59-.13c-.32-.08-.8-.13-.75-.21a1.17,1.17,0,0,0,.27-.77c0-.53.05-.61-.24-.77s-.4-.34-.72-.11-.74.32-.77.64.13.69-.08,1,.05.93-.85.61a6.85,6.85,0,0,0-2.18-.51c-.34.05-.9.11-1,.11s0-.4-.45,0-1.17.69-1.36.83-.85.5-.93.31-.34-.55-.16-.47a.59.59,0,0,0,.69,0c.35-.22,1.12-.48,1.2-.72s.13-.59-.29-.48a8.4,8.4,0,0,0-1.07.16c-.45.16-.61.16-.74.42s-.16.35-.32.43a1.58,1.58,0,0,0-.35.19c-.29.18-.1.08-.58.23s-.53.19-.35-.07.48-.7.22-.86-.11-.23-.61-.23a2.2,2.2,0,0,0-1.63.79c-.47.56-.61,1.52-.13,1.81s1-.27,1.25.19-.21,0-.45.39-.08.83-.85.83a3.88,3.88,0,0,0-1.7.24c-.19.16-.32-.67-.77-.56a4.63,4.63,0,0,0-1.54,1,3.66,3.66,0,0,0-.8,1.07c-.13.23-.16.21-.67.26s-.55,0-.79.4-.32.35-.19.69.29.53,0,.77-.5-.37-.53-.18.22.61,0,.74-.37,0-.74-.4-.27-.48-.72-.48a3,3,0,0,0-1,0,2.17,2.17,0,0,0-1.28-.16,3.18,3.18,0,0,0-1.75.66c-.24.3-.59.27-.64.83s.11,1.06-.37,1.11-1.17-.74-1.36-.71-.39.61-.63.72-.59-.67-1.28-.14-2.39,3-2.92,3.46-1.14.87-1.73,1.38-1.12.26-1.73.87-1.19,1.15-1.62,1.55-.93.31-1.22.5a6.86,6.86,0,0,0-1.3,1.14c-.24.35-.37.35-.48.72s-.19.58,0,.82.42.3.45.38.32.05-.27.32a5.91,5.91,0,0,0-1.33,1,3,3,0,0,0-.87.9c-.08.24-.08.4-.35.16s.45-.71.35-1-.53.16-.85.1-.35-1-.51-1-.53-.08-.56,0,.19.48.08.79-.18.64-.42.64-.08-.42-.56-.21-1-.24-1.06.21.16.43.66.57.77.18.93.44.48,0,.43.21-.59.46-.67.83a9.65,9.65,0,0,1-.4,1.22c-.13.37-.39.21-.42.45s.16.19.24.37.1-.05.1.75-.16,1.11-.1,1.51.08.48-.27.72-1.22.64-1.17.85.08.32.91,0,.82-1,1.11-.77a.65.65,0,0,1,.19,1,3.35,3.35,0,0,0-.69,1.26,6.74,6.74,0,0,0-.59,2.39c.08,1,.19,1.09.45,1.31s.27.1.19.77a4.69,4.69,0,0,0,.05,1.38c.06.5.3.61.51.61s.45-.43.56-.35.69.4.61.78-.93.1-1.22.53a1.39,1.39,0,0,0-.06,1.17,1.92,1.92,0,0,1,0,.95c-.11.24-.51.11-.64.8a2.17,2.17,0,0,0,.05,1.49c.21.45.32.42.29.82a18.94,18.94,0,0,1-.1,2.63"/></g></g></svg>