<svg xmlns="http://www.w3.org/2000/svg" viewBox="0 0 165.51 151.62"><defs><style>.cls-1{fill:#39547d;}.cls-2{fill:#a2b743;}</style></defs><title>Pin e pentagono</title><g id="Camada_2" data-name="Camada 2"><g id="Capa_1" data-name="Capa 1"><path class="cls-1" d="M83,0a16.14,16.14,0,0,0-9.42,3L6.79,51.69A16.19,16.19,0,0,0,1,70.53l26.31,70.55a16.19,16.19,0,0,0,15.18,10.54h82.35a16.2,16.2,0,0,0,15.31-10.9l24.45-70.64A16.22,16.22,0,0,0,159,51.81L92.69,3.23A16.2,16.2,0,0,0,83,0Z"/><path class="cls-2" d="M52,63.7a29.53,29.53,0,0,1,8-20.41,29.32,29.32,0,0,1,21.33-9.86c12.84-.34,22.55,5.2,28.68,16.45a27.1,27.1,0,0,1,1.25,24A88,88,0,0,1,102.36,90c-4.82,7.15-10.28,13.81-15.59,20.59-1.07,1.37-2.11,2.76-3.18,4.14-.61.8-1.11.82-1.69,0-6-8-12.52-15.63-18.2-23.89-4.11-6-7.91-12.14-10.25-19.08a35.64,35.64,0,0,1-1-3.68A16.65,16.65,0,0,1,52,63.7ZM82.71,75.64A10.31,10.31,0,1,0,82.8,55a10.31,10.31,0,1,0-.09,20.61Z"/><path class="cls-2" d="M82.82,124.38c-5.7-.23-11.18-.67-16.37-2.75a14,14,0,0,1-5.19-3.22,4.74,4.74,0,0,1,.14-7.18,15.71,15.71,0,0,1,5.86-3.37,35.89,35.89,0,0,1,5.12-1.41,1,1,0,0,1,1.19.44c2.44,3.18,4.91,6.34,7.35,9.52,1.19,1.55,2.41,1.54,3.61,0,2.46-3.2,5-6.38,7.43-9.57a.89.89,0,0,1,1-.41c3.38.76,6.72,1.64,9.64,3.6a7.1,7.1,0,0,1,3,3.49c.74,2.08-.19,4.29-2.43,5.92a24.8,24.8,0,0,1-9.45,3.8A64.66,64.66,0,0,1,82.82,124.38Z"/></g></g></svg>