<svg xmlns="http://www.w3.org/2000/svg" viewBox="0 0 44.62 138.07"><defs><style>.cls-1{fill:#39547d;}</style></defs><title>Seta</title><g id="Camada_2" data-name="Camada 2"><g id="Capa_1" data-name="Capa 1"><path class="cls-1" d="M30.11,130.07,16.2,127a6.13,6.13,0,0,0,4.29,5.49,180.21,180.21,0,0,0,19.25,5.49c3.73.79,5.69-1.82,4.56-5.44-1.87-6-4.07-12-6.13-18-.12-.35-.22-.83-.48-1-.85-.53-1.77-1-2.66-1.4-.38.77-1.15,1.59-1.06,2.29.31,2.39.93,4.74,1.43,7.11a8.14,8.14,0,0,1,.05,4.31c-1.42-1.3-2.91-2.53-4.27-3.9A86.65,86.65,0,0,1,16.46,18.25c2.41-4.41,5.36-8.52,8-12.78.93-1.48,1.78-3,2.67-4.53L26.35,0c-1.06.39-2.42.49-3.13,1.22a76.55,76.55,0,0,0-7,8C-4.69,38.1-5.5,78.23,14.46,109.27c3.8,5.92,8.7,11.14,13.13,16.66.91,1.13,2,2.13,3,3.19Z"/></g></g></svg>