<svg xmlns="http://www.w3.org/2000/svg" viewBox="0 0 43.53 134.69"><defs><style>.cls-1{fill:#fff;}</style></defs><title>Seta-Branca</title><g id="Camada_2" data-name="Camada 2"><g id="Capa_1" data-name="Capa 1"><path class="cls-1" d="M29.37,126.89l-13.57-3A6,6,0,0,0,20,129.2a176.6,176.6,0,0,0,18.77,5.36c3.65.76,5.56-1.78,4.46-5.31-1.83-5.9-4-11.7-6-17.55-.12-.34-.21-.8-.47-1-.82-.52-1.72-.92-2.59-1.37-.37.75-1.12,1.55-1,2.24.3,2.33.9,4.63,1.39,6.93a8.06,8.06,0,0,1,.06,4.21c-1.4-1.27-2.85-2.47-4.17-3.8A84.54,84.54,0,0,1,16.06,17.8c2.35-4.3,5.23-8.3,7.84-12.46.91-1.45,1.74-2.95,2.61-4.42L25.7,0c-1,.38-2.36.48-3.05,1.19A74,74,0,0,0,15.85,9C-4.57,37.17-5.37,76.32,14.1,106.6c3.72,5.77,8.49,10.86,12.82,16.24.89,1.11,1.94,2.09,2.91,3.12Z"/></g></g></svg>