<svg xmlns="http://www.w3.org/2000/svg" viewBox="0 0 155.24 12.12"><defs><style>.cls-1{fill:#39547d;}</style></defs><title>Onda_Azul</title><g id="Camada_2" data-name="Camada 2"><g id="Capa_1" data-name="Capa 1"><path class="cls-1" d="M145.72,11.85c-2.09-.52-2.71-2.48-3.9-3.75S140,7.23,139.11,8c-.72.59-1.4,1.22-2.08,1.86-2.22,2.08-4.73,2-6.73-.22-2.48-2.74-2.66-2.78-5.41,0a14.73,14.73,0,0,1-1.49,1.11c-1.61,1.24-3.11,1.33-4.42-.53a28.06,28.06,0,0,0-2.17-2.46c-.94-1-1.88-1.63-2.87,0-.11.18-.38.26-.56.41-4.25,3.6-5.06,3.74-9.1,0-1.1-1-1.6-.35-2.35-.17-.32.07-.52.59-.82.84-3.64,2.93-5.39,2.89-8.79-.4-1.43-1.37-2.55-1.27-4,0-3.51,3-5.36,2.63-7.85-.27-1.56-1.81-2.61-2-4.43-.3-3.13,3-5.64,2.93-8.52-.55-1.33-1.61-2-1-3-.15-1.25,1-2.33,2.17-4.09,2.47-2.5.43-4.21-1.05-5.8-2.37s-3-1.76-4.69-.09c-3.36,3.34-6.39,2-9.26-.14-1.45-1.09-3-2.59-4.46.12,0,.05-.16,0-.21.09-4.51,4-4.58,4-9.08-.17-1.33-1.24-1.85-.9-2.69.26a12.79,12.79,0,0,1-1.91,2.05c-1.65,1.45-3.46,1.25-4.94-.49C16.69,8,16,7.13,15.28,6.31s-1.36-1.06-2.16-.07a10,10,0,0,1-1.72,1.6C9,9.71,7,9.46,4.69,7.13A24.48,24.48,0,0,0,1,3.83C-.11,3.1-.26,2.36.36,1.45S1.68-.28,3.05.09a6.79,6.79,0,0,1,3,2.14c2.22,2.29,2.89,2.3,5,.11,2.45-2.52,4.74-2.44,7.07.26,2.15,2.5,2.15,2.5,4.35-.15,1.36-1.66,4.46-2,5.81-.3.55.68,1.35,1,1.82,1.81.84,1.43,2,.92,3,0,.28-.26.34-.75.58-1.06C36,0,38.46-.22,41.38,2.22c3.78,3.16,4.61,3.11,8-.52,1.16-1.23,4.7-.95,6.41.51,4,3.41,4,3.41,7.86-.45a2.3,2.3,0,0,1,2.76-.69A7.26,7.26,0,0,1,68.11,2c3.77,3.3,3.76,3.31,7.81.34,1.77-1.3,4.76-.67,6.51,1.38,2,2.36,2,2.35,4.51.25.54-.46,1.11-.87,1.68-1.29,1.25-.91,2.31-1.69,3.81,0,.65.72,1.84,1.39,2.43,2.13,1.64,2.05,2.8,1.2,4.25,0,3.76-3.25,4.63-3.31,8.2.1,1.58,1.5,2.5,1,3.7-.29,2.76-2.88,6.51-2.81,9.1.19a2.43,2.43,0,0,0,3.68.47c.19-.14.3-.38.49-.52,4.21-3.16,4.36-3.74,8.31.83a2,2,0,0,0,3.09.28A27.72,27.72,0,0,1,139.17,3c1.71-1,3.46-1.07,4.71.91.08.13.25.2.35.32,2.91,3.45,2.91,3.45,6.41.85A10.15,10.15,0,0,1,152.1,4a2.29,2.29,0,0,1,2.68.34c1,.94.11,1.7-.44,2.28a26.47,26.47,0,0,1-6,5.06A2.61,2.61,0,0,1,145.72,11.85Z"/></g></g></svg>